<svg width="144" height="144" viewBox="0 0 144 144" fill="none" xmlns="http://www.w3.org/2000/svg">
<path d="M107.667 46.0317C106.381 42.4135 104.12 35.9388 98.0736 30.583C95.0743 27.9169 91.5513 25.9174 87.7903 24.5606C89.6946 22.442 90.9562 19.7998 91.5275 17.4908C91.8608 16.0864 92.4559 13.5394 91.2657 10.8971C89.3852 6.70762 84.6006 5.63645 83.4818 5.39841C79.4351 4.49386 73.8888 5.327 70.7229 9.42127C68.6282 12.1111 68.4853 15.0628 68.4377 16.134C68.4377 16.4196 68.3663 19.4903 69.8184 22.5372C63.2723 23.2514 56.9642 25.4889 51.8226 29.0833C46.3477 32.8919 43.4436 37.3909 41.4917 40.414C38.659 44.7939 35.9454 50.6021 31.2798 76.1199C30.6371 79.5952 30.1134 82.6898 29.6611 85.3558C44.9194 86.8793 83.3866 89.6167 105.596 92.3303C106.381 88.4265 107.238 83.9276 107.667 81.4996C109.833 68.455 111.689 57.5052 107.667 46.0317ZM86.981 15.6103C86.3145 18.2287 84.0531 20.7995 80.9586 21.2994C80.4349 21.3708 78.3164 21.7279 76.4596 20.4663C73.865 18.7048 73.8412 15.1818 73.8412 14.0868C73.8412 12.9681 73.8412 11.8731 74.4839 10.7781C75.9598 8.30249 79.6018 7.80261 82.125 8.3501C82.7915 8.49292 85.6718 9.15943 86.7905 11.6588C87.5523 13.3251 87.1476 14.9438 86.981 15.6103Z" fill="#4E02C6"/>
<path d="M123.067 96.8773C123.067 96.8773 122.639 96.1631 121.996 95.5204C120.973 94.4969 114.617 93.4019 105.571 92.3069C83.3386 89.5932 44.8953 86.8558 29.637 85.3323C27.4232 85.1181 25.7093 84.9277 24.5905 84.7611C22.2578 84.4278 15.1166 82.9043 11.665 86.6416C10.6176 87.7842 10.0464 89.2362 9.23702 97.1391C8.47529 104.471 8.11823 108.113 8.42768 109.255C10.3796 116.063 24.4239 116.039 45.1809 118.682C45.8474 118.777 46.4902 118.848 47.1805 118.944C47.1805 118.944 63.9622 121.181 82.2198 122.681C94.9549 123.728 108.404 124.442 117.402 123.776C117.688 123.752 118.283 123.704 118.973 123.371C121.353 122.157 121.568 118.801 122.258 114.087C123.734 103.78 125.495 100.614 123.067 96.8773Z" fill="#ECD3EF"/>
<path d="M82.2199 122.681C81.6962 128.751 77.9828 135.035 72.3412 137.487C68.7945 139.034 65.2715 138.725 63.2958 138.582C57.8209 138.129 54.036 135.773 52.822 134.964C50.9415 133.726 48.0612 131.798 46.3236 128.108C44.5145 124.299 44.8715 120.586 45.2048 118.682C45.8713 118.777 46.514 118.848 47.2043 118.943C47.1805 118.943 63.9623 121.181 82.2199 122.681Z" fill="#FA0018"/>
<path d="M11.546 22.0125C11.8079 24.7738 15.2118 24.9166 20.1868 29.368C26.0426 34.6286 26.6615 35.2713 26.6615 35.2713C27.5423 36.1521 28.7801 37.4137 30.2083 37.2471C30.851 37.1756 31.1843 36.8424 32.4221 35.6998C35.9688 32.4387 36.6592 32.0102 36.802 30.9152C36.9448 29.8678 36.4925 29.0347 36.1593 28.4158C33.4456 23.3932 29.7798 18.6324 28.8277 17.3708C24.6382 11.8245 24.4239 9.94394 22.5196 9.82492C21.1152 9.72971 19.5679 11.1103 16.4972 13.8716C13.8788 16.2282 13.0219 17.704 12.5458 18.6562C11.8555 20.1558 11.4508 20.989 11.546 22.0125Z" fill="#FA0018"/>
<path d="M141.373 42.1046C140.254 44.366 137.231 43.5091 130.28 45.58C127.686 46.3655 125.067 47.0083 122.449 47.7462C120.735 48.2223 119.116 48.6745 117.973 47.8414C117.426 47.4367 117.331 47.0082 116.736 45.1515C115.236 40.5574 114.641 39.629 115.188 38.415C115.569 37.5581 116.283 37.1058 116.831 36.7726C122.972 32.9401 126.019 31.0358 127.685 30.1789C134.374 26.7511 135.255 25.7513 136.707 26.3941C137.945 26.9653 138.659 28.7982 140.064 32.5117C141.206 35.511 141.444 37.4391 141.516 38.415C141.658 40.367 141.73 41.3429 141.373 42.1046Z" fill="#FA0018"/>
<path d="M2.92929 72.0973C4.33372 73.5732 6.6427 72.4068 13.046 71.7879C14.379 71.6689 17.8782 71.3594 21.0679 71.1214C24.2814 70.8833 26.1143 70.7643 26.876 69.4789C27.2569 68.8362 26.9951 68.5268 26.9236 66.2892C26.8046 62.3615 27.5187 60.9333 26.4714 59.8383C25.9477 59.2908 25.305 59.148 24.7337 59.0528C16.926 57.4579 14.1647 57.0771 11.7129 56.5296C7.73768 55.6488 7.16639 54.9109 5.78576 55.506C3.31015 56.601 2.52462 60.1716 2.04854 62.3615C1.45344 65.1466 1.7629 67.3842 1.97713 68.8362C2.28658 70.6453 2.4056 71.5499 2.92929 72.0973Z" fill="#FA0018"/>
<path d="M139.493 88.1159C138.16 89.068 136.827 88.4491 130.019 86.6876C129.947 86.6638 126.615 85.8069 122.282 84.3072C120.116 83.5693 118.974 83.0932 118.283 81.9268C117.736 81.0223 117.831 79.8083 118.022 77.4517C118.283 74.2858 118.474 72.0958 119.878 71.4293C120.283 71.2389 120.592 71.2627 121.235 71.2627C123.139 71.3103 125.02 71.3103 126.924 71.3341C130.78 71.4055 132.709 71.5007 134.47 71.5007C138.779 71.4531 139.493 71.0008 140.469 71.7387C141.992 72.8813 142.063 75.1427 142.182 78.4277C142.302 81.6888 141.587 83.8788 141.349 84.5929C140.659 86.5448 140.326 87.497 139.493 88.1159Z" fill="#FA0018"/>
<path d="M63.296 30.75C56.7737 29.6074 50.6323 37.2961 49.2278 39.0576C48.7518 39.6527 45.8953 43.3185 44.6099 48.841C44.0386 51.2928 43.4673 53.935 44.9669 55.9822C46.0857 57.4818 48.1091 57.8389 48.6565 57.9579C48.7994 57.9817 51.0369 58.434 52.7032 57.696C56.488 56.0298 53.6792 50.0312 57.9639 44.6515C59.1779 43.128 62.5342 39.7479 66.3429 36.7962C67.0808 36.2249 68.271 35.3442 68.1996 34.2254C68.1758 32.5591 65.4621 31.1309 63.296 30.75Z" fill="white"/>
</svg>
