<svg width="144" height="144" viewBox="0 0 144 144" fill="none" xmlns="http://www.w3.org/2000/svg">
<path d="M129.776 38.0567C129.657 38.1995 127.015 41.9606 124.373 45.793C123.254 47.3879 122.254 48.8637 121.373 50.1491C121.326 49.6016 121.207 49.0779 121.016 48.5304C120.802 47.9115 120.54 47.3403 120.207 46.7928C119.517 45.674 118.564 44.6504 117.303 43.6268C119.064 41.056 121.587 37.414 125.444 32.201C132.037 23.2745 135.203 19.6563 133.894 16.0381C133.823 15.8477 133.751 15.6572 133.656 15.4668C134.251 16.2999 135.06 17.871 135.894 19.5135C136.917 21.4892 137.417 22.489 137.631 23.1555C138.536 26.0119 136.322 28.7732 129.776 38.0567Z" fill="#04B25F"/>
<path d="M133.894 16.0384C133.822 15.8479 133.751 15.6575 133.656 15.4671C133.632 15.3956 133.584 15.348 133.561 15.3004C133.37 14.991 133.132 14.7053 132.823 14.4197C131.799 13.4675 129.919 12.4916 126.181 10.5873C109.376 2.04164 107.971 2.01784 106.567 2.3511C103.139 3.16043 101.83 5.61223 94.6174 16.205C90.8564 21.7275 87.619 26.3455 85.2148 29.7256C87.3572 30.0827 89.6662 30.6778 92.3084 31.3443C92.9749 31.5109 94.1413 31.8204 95.6886 32.3202C98.069 33.1058 101.33 34.3674 105.067 36.2955C105.401 36.4621 105.71 36.6287 106.043 36.8192C106.353 36.9858 106.662 37.1524 106.972 37.3191C111.59 39.8423 114.994 41.7228 117.35 43.6509C119.112 41.0801 121.635 37.4381 125.491 32.225C132.037 23.2509 135.179 19.6565 133.894 16.0384Z" fill="#ECD3EF"/>
<path d="M100.854 15.634C100.735 15.6816 99.14 16.1577 98.5211 17.5859C98.4021 17.8478 98.2116 18.3001 98.3307 18.8475C98.4259 19.3712 98.8067 19.8473 100.259 20.6804C102.354 21.8706 103.591 22.6086 104.686 22.0849C105.162 21.8468 105.472 21.466 105.829 20.9899C106.234 20.4662 106.71 19.8711 106.733 19.157C106.781 17.8954 105.353 16.9908 104.686 16.5624C103.996 16.0863 102.544 15.1579 100.854 15.634Z" fill="#FC5832"/>
<path d="M116.327 23.0852C116.208 23.1328 114.613 23.6089 113.994 25.0371C113.875 25.299 113.684 25.7512 113.803 26.2987C113.899 26.8224 114.279 27.2985 115.731 28.1316C117.826 29.3218 119.064 30.0597 120.159 29.5361C120.635 29.298 120.944 28.9171 121.302 28.4411C121.706 27.9174 122.182 27.3223 122.206 26.6082C122.254 25.3466 120.825 24.442 120.159 24.0135C119.469 23.5375 118.017 22.6091 116.327 23.0852Z" fill="#FC5832"/>
<path d="M108.019 89.2588C102.282 97.5188 94.6414 108.992 88.9761 117.943C78.1453 135.01 77.6692 137.605 72.9322 139.818C65.5768 143.222 57.1502 140.199 40.3684 134.248C40.3684 134.248 28.0618 129.892 19.5876 121.132C17.9451 119.442 16.993 117.824 16.3979 116.324C16.0884 115.562 15.1363 112.896 15.541 109.397C15.7314 107.802 15.9694 105.922 16.6597 104.541C16.4693 105.207 16.4217 105.874 16.5407 106.636C17.5881 113.753 26.5146 117.728 37.1311 122.465C48.5094 127.536 59.8401 132.606 69.6949 128.035C74.4319 125.845 74.9079 123.227 85.7387 106.16C91.4041 97.2093 99.0451 85.712 104.782 77.4759C117.922 58.5994 122.92 54.267 120.992 48.5541C120.778 47.9352 120.516 47.3639 120.183 46.8164C122.516 49.7919 124.182 55.2668 124.206 60.3608C124.277 68.5494 119.945 72.12 108.019 89.2588Z" fill="#04B25F"/>
<path d="M121.373 50.1502C121.325 49.6027 121.206 49.079 121.016 48.5315C120.802 47.9126 120.54 47.3413 120.207 46.7939C119.516 45.6751 118.564 44.6515 117.302 43.6279C114.779 41.5808 111.09 39.5575 105.996 36.7962C99.4019 33.2018 94.0699 31.7736 92.2608 31.2975C89.6185 30.631 87.2857 30.0359 85.1672 29.6788C82.0727 29.1551 79.359 29.0837 76.5264 29.9169C71.4561 31.3927 69.1472 34.8443 61.6489 44.9133C58.5068 49.1266 53.4366 55.8632 46.7953 64.3612C46.7953 64.3612 38.4877 71.5737 31.4893 83.4757C23.2056 97.52 17.7307 100.853 16.6595 104.495C16.4691 105.161 16.4215 105.828 16.5405 106.589C17.5878 113.707 26.5143 117.682 37.1309 122.419C48.5091 127.489 59.8398 132.559 69.6946 127.989C74.4316 125.799 74.9077 123.181 85.7385 106.113C91.4038 97.163 99.0449 85.6657 104.782 77.4295C116.684 60.3859 121.92 55.1966 121.373 50.1502Z" fill="#DD00C1"/>
<path d="M112.923 51.5301C111.685 47.8643 107.757 45.7219 100.331 41.699C94.8081 38.6997 90.3329 37.4857 88.8333 37.1049C83.3822 35.7243 79.6212 34.7721 75.6459 35.9385C72.0515 36.9859 69.0522 40.8421 63.1727 48.507C52.0086 63.0988 52.9846 62.0038 50.7232 64.8127C44.4628 72.5965 42.5108 74.1438 37.8929 80.8327C35.3221 84.5223 35.7267 84.7365 32.2514 89.3545C27.5144 95.6387 24.9197 97.186 25.372 100.209C26.2528 106.16 33.7272 109.516 42.6299 113.492C52.1752 117.753 61.673 121.99 69.933 118.157C73.9082 116.324 74.2891 114.134 83.3822 99.8282C88.143 92.33 94.5224 82.6894 99.3546 75.7863C110.328 59.9567 114.542 56.2908 112.923 51.5301ZM93.4513 76.0481C92.5943 77.0717 91.904 77.762 91.6898 77.9524C88.4286 81.1422 85.834 88.0215 81.097 95.6625C78.0977 100.519 78.1215 99.3998 76.3124 102.709C75.1222 104.898 74.0034 107.422 71.2422 109.326C71.2422 109.326 70.5281 109.85 69.7187 110.231C63.0536 113.325 55.3888 109.897 47.7001 106.47C40.5113 103.256 34.4889 100.566 33.7748 95.7578C33.4177 93.306 35.5125 92.0682 39.3211 86.9979C42.13 83.2607 41.7967 83.1179 43.8677 80.1424C47.6049 74.7627 49.1759 73.5011 54.2224 67.2169C54.508 66.8836 54.6747 66.6218 55.0793 66.1457C57.1027 63.6225 58.6499 61.8372 59.0308 61.3611C61.2445 58.7665 62.0777 57.0288 64.2438 54.0533C68.6238 48.0547 70.7661 44.9364 74.3129 43.9128C77.5264 42.9606 80.5733 43.7462 84.9532 44.8412C86.1672 45.1506 89.7854 46.1266 94.2368 48.5546C100.569 52.0061 103.782 53.6724 104.377 56.4813C105.401 61.0992 99.6165 65.2411 96.0935 71.9538C95.8554 72.4775 94.9985 74.1438 93.4513 76.0481Z" fill="#ECD3EF"/>
<path d="M54.0559 78.8572C53.5084 78.9762 52.9133 79.3809 51.8183 81.6423C50.8186 83.737 50.033 85.3319 49.914 87.6647C49.8426 88.8073 50.033 88.3074 50.1521 91.1876C50.2711 94.1393 50.0807 95.0677 50.8424 96.0674C51.4851 96.9244 52.4848 97.3529 52.8895 97.5195C53.9131 97.948 54.2225 97.7337 55.5079 98.1384C56.9124 98.5669 57.0076 98.9715 58.1026 99.3524C59.15 99.7094 59.9831 99.638 61.6494 99.4714C63.3632 99.3286 64.9819 99.1858 66.6482 98.2574C67.1719 97.9718 67.4575 97.7337 69.1476 96.1389C73.1229 92.3778 73.7656 91.5923 74.3369 90.8068C75.5509 89.1405 76.5982 87.6647 76.0746 86.4745C75.9079 86.1174 75.3604 85.6889 74.2416 84.8558C72.98 83.9036 72.3611 83.4276 71.8851 83.4276C71.2662 83.4276 70.7901 83.9036 69.1952 86.1888C67.3623 88.8073 67.6718 88.6882 67.1243 89.2595C66.9814 89.4024 64.3392 92.1398 60.9829 91.5209C60.483 91.4257 59.1261 91.1638 58.0788 89.9975C56.96 88.7358 56.5553 86.7839 57.079 85.2605C57.4599 84.1655 58.1026 83.9751 59.1261 81.8089C59.6498 80.6663 59.6498 80.3807 59.5308 80.1426C59.2214 79.5237 58.293 79.738 55.8412 79.1905C54.651 78.9048 54.5082 78.7382 54.0559 78.8572Z" fill="#04B25F"/>
</svg>
