<svg width="144" height="144" viewBox="0 0 144 144" fill="none" xmlns="http://www.w3.org/2000/svg">
<path d="M140.55 99.329C135.956 109.589 116.984 108.47 93.8468 110.35C32.3851 115.373 8.10509 123.538 2.01128 112.136C1.36858 110.945 1.91607 105.518 3.03485 94.6873C3.29669 92.2355 3.51093 90.0693 3.79658 87.6175C4.20124 84.1898 4.70113 79.8812 5.58187 74.5016C6.29599 70.1692 6.48642 69.836 6.89109 66.7177C7.36716 63.1471 7.5576 60.362 7.65281 58.5053C8.53356 43.366 7.41477 36.3677 10.3189 32.5114C10.6521 32.0591 11.0568 31.6545 11.509 31.2974C12.6992 30.3453 13.8418 30.012 15.8652 29.5121C32.9088 25.3226 48.1909 25.5845 71.2807 23.1089L71.3997 23.0851C73.1612 22.8946 89.2289 21.1808 111.295 19.5145C124.768 18.4909 128.458 18.3719 130.767 19.324C131.243 19.5145 131.576 19.7287 132.076 20.0144C132.719 20.419 133.314 20.8951 133.861 21.4426C136.646 24.3467 138.217 29.9644 139.765 44.6276C140.431 50.9357 140.812 56.1487 141.05 60.2906C141.455 67.408 141.55 72.8115 141.574 74.4063C141.764 89.0696 141.859 96.4012 140.55 99.329Z" fill="#FFF200"/>
<path d="M133.885 21.466C123.887 32.4396 113.294 43.7703 102.083 55.4342C94.9654 62.8373 85.2534 72.6683 73.6132 71.5971C69.4476 71.2162 66.9243 69.5976 58.9976 64.6702C28.5286 45.746 33.0275 49.1976 26.9337 44.9129C22.0063 41.4613 16.4362 37.3432 10.3662 32.5349C10.6995 32.0826 11.1041 31.6779 11.5564 31.3209C12.7466 30.3687 13.8892 30.0354 15.9125 29.5356C32.9561 25.3461 48.2383 25.6079 71.3281 23.1323L71.4471 23.1085C73.2086 22.9181 89.2762 21.2042 111.342 19.5379C124.815 18.5143 128.505 18.3953 130.814 19.3475C131.29 19.5379 131.623 19.7521 132.123 20.0378C132.742 20.4425 133.337 20.8947 133.885 21.466Z" fill="#FF7300"/>
<path d="M112.129 82.2378C112.081 82.2378 112.034 82.2378 111.962 82.2378C111.153 82.2378 109.296 82.1902 107.439 81.0714C107.273 80.9762 107.106 80.8571 106.963 80.7619C106.725 80.8809 106.392 81.0476 105.964 81.1904C105.964 81.1904 105.726 81.2618 105.369 81.357C105.369 81.357 104.702 81.4998 104.059 81.5236C103.179 81.5474 99.608 81.0238 99.3462 79.3099C99.1795 78.2387 100.346 76.9295 101.108 77.0247C101.56 77.0723 101.512 77.596 102.417 78.3577C102.774 78.6434 103.702 79.4289 104.845 79.3099C105.083 79.2861 105.273 79.2385 105.392 79.1909C104.654 78.4291 103.512 76.9771 103.107 74.9062C103.036 74.5253 102.179 70.0502 104.94 68.003C106.416 66.908 108.154 67.0509 108.296 67.0747C108.653 67.1223 110.01 67.2889 111.058 68.3363C112.772 70.0264 112.367 72.6686 112.224 73.6445C111.748 76.8343 109.391 78.8814 108.868 79.3337C108.82 79.3813 108.796 79.4051 108.773 79.4289C109.51 79.9288 110.724 80.5477 112.295 80.7143C116.461 81.0952 119.341 77.6674 119.651 77.2866C119.103 76.7867 118.246 75.8821 117.747 74.5015C116.58 71.2404 118.127 67.1937 120.841 65.6464C121.341 65.3608 122.484 64.7657 123.674 65.0751C125.554 65.5988 126.078 67.7888 125.959 69.4789C125.745 72.1925 124.602 74.8823 122.722 77.0961C124.15 77.9769 125.316 78.1435 126.197 78.0245C127.935 77.8102 128.911 76.5724 129.768 77.0485C130.267 77.3342 130.505 78.0959 130.363 78.6434C130.148 79.4289 129.172 79.7145 128.554 79.905C127.578 80.1906 126.697 80.143 125.745 80.0002C124.674 79.8336 123.079 79.4765 121.27 78.5958C118.627 80.9285 115.319 82.2378 112.129 82.2378ZM108.296 68.86C107.368 68.86 106.749 69.4551 106.535 69.6455C105.535 70.5738 105.178 72.2877 105.535 74.5015C105.654 75.2394 106.035 76.8105 107.106 78.0959C107.201 78.0245 107.32 77.9293 107.463 77.7864C107.773 77.5008 109.32 76.0249 109.963 73.2875C110.296 71.8354 110.653 70.312 109.796 69.4789C109.225 68.86 108.368 68.86 108.296 68.86ZM122.745 67.3603C122.626 67.3127 121.865 67.0271 121.174 67.3603C119.627 68.0982 119.46 71.3594 120.103 73.6445C120.389 74.6443 120.793 75.406 121.055 75.8345C122.293 74.8585 123.007 73.835 123.388 73.1685C124.007 72.0973 124.697 70.8833 124.364 69.4789C124.269 69.0504 123.888 67.7888 122.745 67.3603Z" fill="white"/>
<path d="M98.4172 92.4962C97.8221 91.8773 97.8459 90.6395 98.3458 89.854C98.9409 88.9494 100.131 88.8066 102.583 88.64C106.987 88.3543 109.7 88.3782 112.676 88.1163C113.318 88.0687 114.271 87.9497 116.151 87.7116C126.458 86.4024 129.91 85.4979 130.981 87.1165C131.314 87.6164 131.433 88.3781 131.148 88.9018C130.6 89.9254 128.672 89.854 128.006 89.8302C125.244 89.7588 121.102 90.4015 112.771 91.6393C108.772 92.2344 104.678 92.044 100.726 92.8295C100.322 92.9009 99.0599 93.1627 98.4172 92.4962Z" fill="#4E02C6"/>
<path d="M105.677 97.6398C105.391 97.2351 105.368 96.6162 105.606 96.1878C106.01 95.4022 107.082 95.2356 107.629 95.1404C111.2 94.5929 115.889 94.2358 117.317 94.093C119.507 93.9026 120.674 93.7836 122.34 93.4979C125.244 92.9742 126.863 92.4029 127.815 93.3075C128.219 93.6883 128.529 94.4025 128.338 94.95C127.981 95.9735 126.053 95.9973 122.387 96.3544C121.316 96.4734 118.96 96.7114 116.627 97.0685C115.294 97.2827 112.937 97.5684 108.176 98.1159C107.439 98.1873 106.201 98.3301 105.677 97.6398Z" fill="#4E02C6"/>
</svg>
