<svg width="143" height="143" viewBox="0 0 143 143" fill="none" xmlns="http://www.w3.org/2000/svg">
<path d="M140.968 56.9878C140.682 62.677 140.063 70.1277 139.111 81.1252C139.063 81.5775 139.04 82.0536 138.992 82.5535C138.944 83.2438 138.873 83.9341 138.802 84.6483C138.611 86.7906 138.445 88.8378 138.254 90.7183C138.135 91.9085 138.04 93.0511 137.945 94.1223C137.588 97.8834 134.588 100.835 130.827 101.121C124.162 101.621 115.902 102.192 106.499 102.787C88.67 103.93 79.6006 104.501 72.2214 104.43C59.986 104.311 56.344 103.406 36.6103 102.121C26.8506 101.478 18.4001 101.097 11.7588 100.859C7.83109 100.716 4.64133 97.6453 4.33188 93.7415C4.21286 92.337 4.11764 90.9088 4.02242 89.4091C3.8558 87.0287 3.71297 84.5054 3.57015 81.887C3.54634 81.2919 3.49873 80.6968 3.47493 80.1017C3.3083 76.8643 3.21308 73.9364 3.14167 71.4131C3.04645 68.152 2.99885 65.5811 2.97504 63.891C2.83222 51.8461 3.21308 42.7767 3.3083 40.801C3.3321 40.2059 3.35591 39.587 3.40352 38.9681C3.59395 34.8738 3.9034 30.2557 4.33188 25.2093C4.64133 21.472 7.59305 18.4965 11.3303 18.1632C15.5674 17.7824 20.6377 17.4491 26.3983 17.3777C34.9678 17.2587 39.8477 17.7586 47.1794 18.0442C61.0572 18.5679 70.079 17.7824 78.5056 17.3777C90.1459 16.8302 107.213 16.6874 131.565 18.4013C135.064 18.6393 137.968 21.2102 138.611 24.6618C140.635 35.207 141.111 43.9431 141.158 50.3465C141.158 52.3222 141.111 54.4884 140.968 56.9878Z" fill="#04B25F"/>
<path d="M119.734 91.0998C89.693 91.4093 66.6744 90.2905 36.5383 89.6954C22.7081 89.4097 25.1599 89.6002 16.5666 89.3859C14.5433 89.3383 11.7106 89.2669 7.85432 89.3145C6.61651 89.3383 5.33108 89.3621 3.99805 89.4097C4.09326 90.9094 4.21228 92.3377 4.3075 93.7421C4.61696 97.646 7.80671 100.717 11.7344 100.86C18.3758 101.098 26.85 101.502 36.5859 102.121C47.9643 102.859 53.9868 103.478 59.4141 103.883C59.1761 105.144 58.9857 106.263 58.819 107.215C58.2001 111.024 58.1049 112.857 57.4146 116.832C57.1051 118.689 56.7719 120.355 56.4624 121.783C54.9628 121.855 53.2013 122.045 51.3207 122.498C49.3212 122.974 47.7739 123.593 46.8455 123.973C47.0836 125.949 47.3216 127.925 47.5597 129.901C63.9607 129.901 80.3856 129.901 96.7867 129.901C96.9295 127.663 97.0723 125.425 97.2152 123.188C96.2392 122.902 94.4539 122.402 92.1925 121.926C90.1929 121.522 88.4076 121.26 86.7413 121.117C86.5747 120.403 86.3843 119.641 86.2176 118.808C85.4797 115.356 85.1703 113.023 84.4799 108.12C84.3371 107.025 84.1467 105.692 83.9086 104.145C89.5978 103.883 96.7153 103.43 106.499 102.788C115.925 102.193 124.161 101.597 130.827 101.121C134.588 100.836 137.611 97.884 137.944 94.123C138.039 93.0518 138.158 91.9092 138.254 90.719C130.398 90.957 124.042 91.0522 119.734 91.0998Z" fill="#4E02C6"/>
<path d="M75.5541 97.0269C75.6969 98.7646 73.9592 100.407 72.1025 100.455C70.46 100.502 68.8175 99.3121 68.5557 97.6696C68.3891 96.6698 68.7937 95.5986 69.5555 94.8845C70.8409 93.6943 72.5786 94.1704 72.8404 94.2418C73.9592 94.575 75.4351 95.5272 75.5541 97.0269Z" fill="#FFF200"/>
<path d="M21.8041 75.6513C15.9245 75.5322 8.9975 74.104 3.14167 71.4141C3.04645 68.153 2.99885 65.5821 2.97504 63.892C2.83222 51.8471 3.21308 42.7777 3.3083 40.802C3.3321 40.2068 3.35591 39.5879 3.40352 38.969C9.5926 40.5401 13.1632 50.9901 20.9948 51.6329C30.4689 52.4184 33.8967 37.755 44.4419 37.8264C51.9164 37.8978 59.9622 45.3247 60.3193 52.2042C60.8668 63.6302 40.2524 76.0083 21.8041 75.6513Z" fill="#FA0018"/>
<path d="M140.968 56.9876C140.682 62.6768 140.063 70.1275 139.111 81.1251C128.732 81.3869 117.473 78.5066 113.593 70.7226C111.808 67.1282 110.689 60.6773 113.545 55.0119C114.474 53.179 115.95 50.2987 118.877 49.0847C126.209 46.1091 132.446 57.7732 140.968 56.9876Z" fill="#FA0018"/>
<path d="M105.262 40.4916C103.881 47.4424 95.264 52.9173 87.5753 52.227C76.4587 51.251 68.4129 37.516 71.2456 30.0415C72.2692 27.3279 75.0781 24.4952 78.0536 24.4476C82.3145 24.4 82.7906 30.1606 88.5036 32.2315C94.8831 34.5405 99.7154 29.3036 103.334 32.2315C106.333 34.6595 105.333 40.1583 105.262 40.4916Z" fill="white"/>
</svg>
