<svg width="144" height="144" viewBox="0 0 144 144" fill="none" xmlns="http://www.w3.org/2000/svg"><path d="M138.139 47.823a9.833 9.833 0 00-1.881-1.975c-4.356-3.666-9.379-3.666-22.042-3.856-50.155-.762-40.824-1.786-73.483-.5-25.185.952-27.66 1.452-30.731 3.856-5.046 3.975-5.522 8.331-5.308 57.605.024 3.452.143 9.641 4.713 13.878-2.285-1.761-3.333-4.475-4.261-6.522-3.142-6.808-2.975-13.14-2.928-15.282.405-21.138.262-42.3 1.143-63.438.024-.857.119-3.332 1.856-4.975 1.143-1.071 2.524-1.333 3.119-1.452 16.234-2.785 34.849-2.452 34.849-2.452 17.472.334 22.875-1.476 28.54 3.404 2.714 2.357 4.214 5.142 5.07 7.141 7.332.215 17.568.524 34.969.786 12.664.19 17.686.19 22.042 3.856 2.404 2.071 3.69 4.452 4.333 9.926z" fill="#4E02C6"/><path d="M132.449 40.872c-.214.833-.452 1.666-.666 2.5-3.761-1.215-8.855-1.262-17.568-1.382-50.154-.761-40.823-1.785-73.482-.5-25.185.953-27.66 1.453-30.731 3.857-.048.024-.072.071-.12.095.191-3.737.358-7.474.548-11.212 10.64.381 21.305.738 31.945 1.12 19.186.5 38.991 1.451 59.415 2.927 10.402.762 20.638 1.619 30.659 2.595z" fill="#FA0018"/><path d="M138.139 47.824a9.833 9.833 0 00-1.881-1.975 12.91 12.91 0 00-4.475-2.476c-3.761-1.214-8.855-1.262-17.567-1.38-50.155-.763-40.824-1.786-73.483-.5-25.184.951-27.66 1.451-30.73 3.856-.048.023-.072.071-.12.095-4.927 3.951-5.427 8.617-5.189 57.51.024 3.452.143 9.641 4.713 13.878 4.713 4.356 11.735 4.427 15.378 4.427 64.127-.047 60.223-1.095 79.124-1.714 21.066-.714 27.874.524 33.349-4.951 3.594-3.594 3.88-7.355 3.999-32.135.072-23.161-.143-30.493-3.118-34.635z" fill="#ECD3EF"/></svg>