<svg width="144" height="144" viewBox="0 0 144 144" fill="none" xmlns="http://www.w3.org/2000/svg"><path d="M119.021 30.726l-3.095-4.261c-5.165 6.094-10.83 12.95-13.973 16.853a438.949 438.949 0 01-9.402 11.212c-.357-.096-.714-.19-1.071-.262-2.119-.381-3.333.024-16.425 6.189-14.044 6.593-17.686 8.474-19.21 10.973a18.346 18.346 0 00-2.928-2.404c-5.475-3.57-10.95 2.143-12.854 6.903a10.52 10.52 0 00-.524 1.762c-3.88 1.38-9.569 5.046-18.995 8.95-2.214.905-4.07 1.619-5.665 2.19C18.71 81.381 25.59 67.98 31.04 57.362l-2.57-3.69c-1.952 3.762-4.166 8.166-6.76 13.212A1963.55 1963.55 0 018.974 91.378c-1.166.738-2.023 1.595-2.737 2.88-2.19 3.928-1.167 8.237 0 12.855 1.952 7.76 5.165 20.542 16.9 24.994 6.57 2.499 14.807 1.952 21.424-2.381 7.38-4.808 10.07-12.592 10.712-17.615.643-5.094-.833-9.807-3.809-19.28-.214-.667-1.476-4.619-3.808-9.522-1.571-3.31-2.38-4.975-3.095-5.475-.428-.286-.857-.5-1.333-.595a2.45 2.45 0 01.143-.596c.952-2.618 5.95-2.856 8.807-1.428.572.286 1.024.738 1.405 1.262.071-.262.166-.524.262-.786.262-.69.571-1.285 1.07-1.88-.547 2.428-.047 4.88 1.096 7.855.666 1.762 1.57 3.69 2.594 5.927 3.619 7.856 9.141 19.805 21.662 23.566 2.404.714 10.33 2.976 18.567-1.19 1.095-.548 8.855-4.618 11.664-13.568 2.19-6.951.071-12.664-2.618-19.995-2.262-6.19-5.309-14.45-10.331-18.972 4.142-5.26 11.949-15.116 16.52-20.543 1.594-1.857 3.261-3.975 4.951-6.165zm-74.72 58.248c1.88 3.951 2.88 7.117 3.07 7.665 2.38 7.593 3.594 11.402 3.07 15.496-.523 4.047-2.69 10.283-8.616 14.163-5.309 3.476-11.926 3.904-17.21 1.905-9.427-3.571-12.021-13.83-13.593-20.091-.928-3.713-1.761-7.189 0-10.33 1.667-3.024 4.285-3.143 11.474-6.118 9.83-4.047 14.568-7.808 17.686-7.641a2.978 2.978 0 011.643.571c.285.19.595.619.976 1.333.38.714.857 1.714 1.5 3.047zm58.628-11.212c2.167 5.904 3.857 10.498 2.095 16.068-2.261 7.189-8.498 10.45-9.379 10.902-6.617 3.356-12.997 1.547-14.925.952-10.069-3.023-14.496-12.64-17.4-18.924-1.452-3.118-2.571-5.546-2.976-7.712-.095-.524-.166-1.048-.166-1.548a7.083 7.083 0 01.476-2.785c.976-2.57 2.904-3.665 15.877-9.76 10.521-4.95 11.497-5.284 13.187-4.974 7.165 1.309 10.736 11.069 13.211 17.781z" fill="#FFD800"/><path d="M50.775 95.211c-.214-.666-1.476-4.618-3.809-9.521-1.57-3.31-2.38-4.975-3.094-5.475a2.93 2.93 0 00-.595-.334c-1.095-.523-2.357-.452-3.904.024-3.88 1.214-9.64 5.047-19.543 9.117-8.974 3.69-12.188 3.856-14.283 7.617-2.19 3.928-1.166 8.237 0 12.855 1.952 7.76 5.166 20.542 16.901 24.994 6.57 2.499 14.806 1.952 21.424-2.381 7.379-4.808 10.069-12.592 10.712-17.615.642-5.094-.834-9.807-3.81-19.28zm-1.071 19.305c-.524 4.047-2.69 10.283-8.617 14.163-5.309 3.476-11.926 3.904-17.21 1.905-9.427-3.571-12.022-13.83-13.593-20.091-.928-3.713-1.761-7.189 0-10.331 1.667-3.023 4.285-3.142 11.474-6.117 11.711-4.832 16.234-9.236 19.329-7.07.595.405 1.214 1.738 2.5 4.404 1.88 3.951 2.88 7.117 3.07 7.665 2.38 7.569 3.57 11.378 3.047 15.472zm56.772-35.015c-3.07-8.355-7.546-20.495-16.424-22.137-2.119-.381-3.333.024-16.425 6.189-9.76 4.594-14.497 6.903-16.996 8.712-1.619 1.19-2.285 2.166-2.761 3.428-.096.262-.19.523-.262.785-1.119 4.023.714 7.999 3.594 14.211 3.618 7.856 9.14 19.805 21.662 23.566 2.404.714 10.33 2.976 18.567-1.19 1.095-.547 8.855-4.618 11.664-13.568 2.19-6.951.071-12.664-2.619-19.996zm-2.88 17.425c-2.261 7.189-8.498 10.45-9.379 10.902-6.617 3.357-12.997 1.547-14.925.952-10.069-3.023-14.496-12.64-17.4-18.924-1.929-4.19-3.285-7.117-3.143-9.855.024-.738.19-1.476.453-2.213.142-.381.31-.738.547-1.095 1.262-1.928 4.333-3.5 15.33-8.665 10.521-4.951 11.497-5.285 13.187-4.975 7.141 1.31 10.736 11.069 13.188 17.782 2.213 5.927 3.903 10.52 2.142 16.091z" fill="#8D41E5"/><path d="M45.062 47.367c-2.38 1.904-5-7.618-5.951-5.713-.334.666-3.761 7.331-8.046 15.71l-2.57-3.69c6.117-11.83 9.45-17.376 12.282-16.781 3.19.666 6.022 9.093 4.285 10.474zm91.883-20.949c-2.143-2.38-.238-14.282-4.285-11.664-3.047 1.976-8.427 9.26-13.64 15.973l-3.094-4.261c4.618-5.451 8.855-10.26 10.545-11.712 3.571-3.094 9.045-5.95 12.378-1.428 3.333 4.523.238 15.473-1.904 13.092z" fill="#009D6F"/></svg>