<svg width="144" height="143" viewBox="0 0 144 143" fill="none" xmlns="http://www.w3.org/2000/svg"><path d="M135.313 83.025c-5.498 14.02-14.663 28.659-28.231 32.397-10.402 2.88-17.282-1.548-34.397 2.57-6.784 1.643-12.163 3.904-15.734 5.594-1.785-2.213-4.094-4.784-6.594-7.403a145.477 145.477 0 00-1.952-1.999c-1.19-1.19-2.38-2.381-3.57-3.523-.786-.762-1.571-1.476-2.333-2.19-1.785-1.643-3.475-3.118-4.951-4.309 1.737-1.714 4.38-3.237 5.38-8.045 1.523-7.451-1.31-39.848 10.95-50.798 12.258-10.95 35.467-25.827 55.391-13.782 19.924 12.044 32.826 34.206 26.041 51.488z" fill="#FFD800"/><path d="M56.95 123.61c-1.785-2.214-4.094-4.785-6.593-7.403a152.214 152.214 0 00-1.952-2c-1.19-1.19-2.38-2.38-3.57-3.523-.786-.762-1.572-1.476-2.333-2.19-1.786-1.642-3.476-3.118-4.952-4.308-2.594-2.095-4.522-3.309-5.165-3.024-2.69 1.262-3.19 4-1.476 6.618 0 0-4.808-1.071-6.522.714-1.714 1.762.88 6.38.928 6.499-.095-.048-2.904-1.524-4.737.904-1.857 2.476 2.333 5.427 2.333 5.427s-2.047 4.285.69 7.856c2.738 3.594 10.522 13.092 15.64 11.902 5.141-1.191 6.807-3.404 6.807-3.404s1 3.832 4.237 1.833c3.238-2.024-.071-5.071-.071-5.071s8.736 3.833 6.07-3.975c0 0 2.119 2.357 4.118-.595.548-.738-.928-3.142-3.451-6.26z" fill="#009D6F"/><path d="M100.274 102.306c-7.142.5-12.83-1.309-14.544-1.904-5.904-2.119-16.187-.572-35.373 15.829-.643-.666-1.285-1.333-1.952-1.999 4.88-4.404 13.14-11.14 22.97-15.735 7.951-3.713 11.07-3.26 12.188-3.046 3.428.666 5.475 2.666 9.498 2.166 1.666-.215 4.57-.81 5.308-2.643 1-2.523-3.118-4.475-4.76-9.33-2.476-7.38 3.69-12.76 1.023-15.854-2.309-2.666-6.903 1.404-14.449-1.095-5.546-1.833-7.498-5.808-10.045-4.547-3.07 1.524-3.618 6.856-3.785 8.356-.762 6.879-5.475 18.233-21.495 38.205-.785-.762-1.57-1.476-2.333-2.19 5.832-7.451 21.162-28.208 20.995-40.8-.095-6.308 2.167-9.998 5.214-11.521 3.427-1.714 6.046 3.975 13.83 6.26 8.95 2.619 13.663-1.904 16.662 1.214 3.809 4-3.88 11.45-.452 21.114 2.69 7.641 12.783 16.711 1.5 17.52z" fill="#8D41E5"/><path d="M47.5 45.39s-12.354-3.189-15.948-3.641c-3.595-.452-9.45-2.333-9.45-2.333l3.594-15.234 24.78 16.52L47.5 45.39zm11.784-11.973l-8.593-7.974-10.665-8.807 11.688-9.57a239.245 239.245 0 016.618 12.474 285.592 285.592 0 015.236 11.283c-1.428.857-2.856 1.714-4.284 2.594zm16.448-9.236c-.571-3-1.166-6.022-1.785-9.046-.81-4.094-1.667-8.14-2.5-12.163 4.57-.453 9.165-.881 13.735-1.333-1.5 4.142-2.38 7.546-2.88 9.926-.214 1.024-.31 1.619-.667 3.356-.785 3.857-1.5 6.975-1.975 9.07a197.64 197.64 0 00-3.928.19z" fill="#FFD800"/></svg>