<svg width="144" height="144" viewBox="0 0 144 144" fill="none" xmlns="http://www.w3.org/2000/svg"><path d="M93.542 73.128C92.447 77.34 89.947 87.1 81.568 92.552c-13.806 8.974-32.635-.762-38.11-3.57-4.594-2.381-22.113-12.26-27.017-32.065-2.476-10.021-.619-18.114-.167-19.924v-.023c.81-3.238 3.69-14.735 14.306-21.52 4.642-2.975 8.927-3.88 11.45-4.379.81-.167 14.473-2.642 27.517 3.785a36.2 36.2 0 019.236 6.475c6.618 6.355 8.88 13.282 11.879 22.47 2.713 8.284 5.831 17.877 2.88 29.327z" fill="#FF8FF0"/><path d="M83.877 38.089c2.809-3-7.427-15.496-14.306-23.257-13.044-6.427-26.708-3.951-27.517-3.784-1.19.238-2.785.57-4.618 1.166-.215.071-.453.143-.667.238a2.077 2.077 0 01-.357.119c-.642.238-1.31.5-2 .81a2.841 2.841 0 00-.38.19c-.12.047-.238.119-.357.166-.31.167-.643.31-.976.5a1.517 1.517 0 00-.334.19c-.19.096-.38.215-.57.31-.096.048-.191.12-.286.167-.286.166-.572.357-.857.524-10.688 6.784-13.569 18.305-14.354 21.518 1.904-2.452 3.785-5.95 3.785-5.95s-.881 17.138 5.022 15.02c5.904-2.119 5.023-18.258 5.023-18.258.333 1.642 3.428 16.044 8.165 16.306.404.023 1.69-.024 2.69-.857 1.547-1.333 1.356-3.809 1.214-5.642-.12-1.547-.548-4.165-2.238-7.189a83.484 83.484 0 007.855 11.117c7.594 9.117 18.067 17.734 23.566 19.852 1.5.595 2.642.69 3.237.167a1.27 1.27 0 00.405-.667c.976-3.904-3.785-10.235-8.26-15.139 7.356 5.903 16.377 10.14 15.949 4.785-.453-5.76-11.188-15.211-15.877-19.067 4.308 3.332 13.877 10.069 17.043 6.665z" fill="#BB54F7"/><path d="M73.88 92.528c-.572-.81-2.786-4.784-4.595-8.093a30.705 30.705 0 002.928-4.047c3.023-5.046 1.404-12.806-.833-19.043-5.499-2.118-15.949-10.76-23.566-19.852a85.775 85.775 0 01-7.855-11.117c1.69 3.023 2.118 5.642 2.237 7.189.143 1.833.333 4.309-1.214 5.642-1 .856-2.285.88-2.69.856-4.737-.238-7.831-14.639-8.165-16.305 0 0 .881 16.163-5.022 18.257-5.904 2.119-5.023-15.02-5.023-15.02s-1.88 3.5-3.785 5.951v.024c-.452 1.833-2.332 9.902.167 19.924 4.904 19.805 22.4 29.683 27.017 32.064 1.976 1.023 5.737 2.951 10.355 4.57.024 0 .048.024.072.024.357.119.714.238 1.095.38 6.165 2.024 13.663 3.333 20.614 1.31-.595-.952-1.262-2.047-1.738-2.714z" fill="#FFFF76"/><path d="M34.032 78.008c1.714-1.476 3.523-3.118 5.332-4.975a98.028 98.028 0 003.166-3.404l1.904 1.714 1.215-3.357a114.738 114.738 0 016.379-1.833c1.785-.452 3.5-.857 5.19-1.214.094 1.429.094 4.785-2.024 7.975-1.857 2.809-4.356 3.975-6.522 4.999-1.786.833-4.57 2.118-8.355 1.88a15.066 15.066 0 01-6.285-1.785z" fill="#FF8FF0"/><path d="M23.844 53.918c-.31.143-.62.286-.953.476 2.048.048 3.619 1.88 3.666 3.642.048 1.548-1.095 2.643-1.285 2.81-.214.19-1.095.999-2.357 1.023-1.833.024-3.975-1.69-3.856-3.975.024-.31.071-.62.167-.905-.381.405-.738.81-1 1.262-.333.523-.643 1.07-.952 1.595-.262-.786-.5-1.595-.714-2.428.761-1.024 1.952-2.214 3.784-3.476 5-3.428 9.57-2.5 9.57-2.5v1.524c0-.024-4.238.143-6.07.952zm13.33-4.141l-1.333-.715s1.357-4.45 6.736-7.236c5.38-2.785 8.117-1.523 8.117-1.523l1.5 1.523s-2.5.024-4.808.167c-.524.023-1.048.142-1.595.285.31.048.595.143.88.262 2.095.952 2.571 3.666 1.69 5.26-.594 1.096-1.76 1.5-2.023 1.596-.238.095-1.737.595-3.07-.19-1.5-.881-2.38-3.119-1.452-4.952-.31.214-.596.429-.881.619-1.595 1.238-3.761 4.904-3.761 4.904z" fill="#BB54F7"/><path d="M44.934 61.846l-7.689 4.594s-6.831-20.97-11.092-23.66c-2.666-1.69-7.618-.096-10.926 1.308a52.79 52.79 0 01.19-2.356c8.427-3.737 13.092.595 14.473 2.5 1.5 2.07 8.188 19.876 8.188 19.876s1.833-1.215 2.428-1.714c.62-.5 3.476-2.071 3.476-2.071l.952 1.523z" fill="#BB54F7"/><path d="M110.014 118.856c-2.286-3.523-7.094-10.831-11.355-17.306-2.047-3.118-3.975-6.046-5.427-8.26 4.832-5.927 6.832-12.64 7.831-16.043 4.166-14.092.429-26.137-2.475-35.444-3.19-10.284-6.046-19.448-14.497-27.422C74.165 4.977 56.407-2.83 37.864 3.263 21.32 8.691 11.275 22.854 7.966 35.947c-2.547 10.093-.785 18.377 0 21.876C13.726 83.46 37.602 95.36 40.958 96.98c4.547 2.19 21.924 10.521 37.54 6.046 1.19 2.524 3.522 6.618 6.402 11.188 1.833 2.88 3.88 5.975 6 8.95 6.783 9.546 14.186 22.186 21.565 18.496 7.403-3.69 2.167-15.711-2.451-22.804zM81.568 92.553a22.256 22.256 0 01-5.951 2.713c-6.95 2.024-14.473.69-20.614-1.309a16.71 16.71 0 01-1.167-.405c-4.618-1.618-8.379-3.546-10.354-4.57-4.38-2.261-20.377-11.283-26.185-29.136-.262-.785-.5-1.595-.714-2.428a3.806 3.806 0 01-.119-.5 43.433 43.433 0 01-1.19-12.806c.048-.857.119-1.643.19-2.357.262-2.38.667-4.07.834-4.785v-.023c.809-3.238 3.69-14.735 14.306-21.52a29.36 29.36 0 016.831-3.213c1.833-.595 3.428-.928 4.618-1.166.81-.167 14.473-2.642 27.518 3.785a36.2 36.2 0 019.236 6.474c6.617 6.356 8.879 13.283 11.878 22.471 2.713 8.308 5.808 17.9 2.88 29.35-1.119 4.238-3.618 13.974-11.997 19.425zm28.993 44.418c-1.952 1.214-5.951-1-7.355-4.047-.286-.619-1.31-2.833-.119-4.856.761-1.285 2.237-2.214 3.689-2.166 2.809.071 4.618 3.666 4.975 6.26.048.5.5 3.761-1.19 4.809z" fill="#00FF9D"/></svg>