<svg width="144" height="144" viewBox="0 0 144 144" fill="none" xmlns="http://www.w3.org/2000/svg"><path d="M141.775 77.89c-1.643 14.21-6.57 24.089-7.88 26.636-2.642 5.094-7.664 14.592-17.71 22.257-16.639 12.687-35.896 11.783-45.322 11.354-4.642-.214-20.9-1.404-38.277-11.354-6.403-3.666-14.068-8.046-20.567-16.901C1.736 95.838 1.712 80.484 1.69 71.867c0-6.189.19-24.327 12.14-41.942 2.642-3.904 7.521-10.95 16.448-16.901C44.56 3.502 59.224 3.454 68.65 3.431c6.998-.024 25.494.167 44.323 11.878 6.403 3.975 16.52 10.26 23.304 22.852 8.307 15.353 6.546 30.612 5.499 39.729z" fill="#FFB900"/><path d="M38.941 100.788s5.047-14.282 16.592-20.661c11.545-6.356 21.876-7.713 30.493-2.119 8.617 5.618 8.188 19.757 8.188 19.757l-6.141 1.095s.19-10.735-3.19-13.092c-3.38-2.356-13.14-7.284-18.52-4.26-5.38 3.022-18.233 9.14-22.066 20.828l-5.356-1.548z" fill="#FF739E"/><path d="M47.178 54.728c-.096 3.833-2.976 8.427-7.618 8.808-3.951.333-7.522-2.452-8.545-5.737-1.786-5.713 4.427-12.164 9.164-11.783 2.428.19 4.237 2.166 4.666 2.619.285.285 2.428 2.666 2.333 6.093zm57.319-.928c-.19 3.69-3.166 7.712-7.689 8.022-4.546.31-8.26-3.285-8.783-7.213-.715-5.522 5.117-9.998 9.474-9.522 2.499.286 4.237 2.167 4.665 2.619.405.428 2.5 2.785 2.333 6.094z" fill="#02C961"/><path d="M28.944 60.014c-6.142 4.26-10.498 8.545-13.402 11.759-4.546 5.07-6.356 8.474-7.189 12.02-.38 1.62-.738 3.238-.404 5.285.809 4.975 5.165 9.117 9.926 10.426 4.142 1.143 8.665.167 11.378-1.737 7.046-4.975 7.284-20.305-.31-37.753zm-4.642-17.877s9.83-4.856 14.639-8.093c4.808-3.238 15.33-7.832 15.33-7.832l-4.047-6.665s-6.356 3.69-11.283 6.38c-4.928 2.69-17.734 10.259-17.734 10.259l3.095 5.95zm92.931-2.048a848.037 848.037 0 00-13.949-7.118 903.773 903.773 0 00-15.33-7.522c1.357-2.333 2.69-4.642 4.047-6.974 0 0 6.355 3.69 11.283 6.38 4.927 2.689 17.734 10.259 17.734 10.259-1.238 1.666-2.523 3.332-3.785 4.975z" fill="#3700ED"/></svg>