<svg width="144" height="144" viewBox="0 0 144 144" fill="none" xmlns="http://www.w3.org/2000/svg"><path d="M140.829 80.532c-.381 5.523-2.166 26.208-18.805 42.133-19.852 18.972-45.99 16.972-56.415 16.187-10.521-.809-31.35-2.381-46.656-19.043C5.075 104.717 4.123 86.34 3.72 78.866c-.357-6.641-1.571-29.779 15.234-49.274C37.353 8.24 63.61 7.169 71.322 7.216c5.284.024 32.445.81 52.368 23.328 3.023 3.404 19.091 22.28 17.139 49.988z" fill="#FFD110"/><path d="M108.885 71.559c-2.262 17.543-12.926 32.325-28.041 38.014-13.212 4.975-31.445 3.619-40.086-5.951-3.261-3.618-6.165-9.521-7.046-11.425a60.006 60.006 0 01-4.76-15.044 142.989 142.989 0 0018.447 1.07c2.19-.023 4.713-.07 19.876-1.213 10.998-.833 16.52-1.238 19.686-1.619a212.676 212.676 0 0021.924-3.832z" fill="#2E1544"/><path d="M23.904 55.991s3.523 7.427 14.687 8.212c11.164.786 19.377-3.332 22.305-8.212l-5.666-.976s-7.046 5.19-11.95 4.642c-4.903-.548-13.306-2.69-14.091-5.618l-5.285 1.952zm90.146 0s-3.523 7.427-14.687 8.213c-11.164.785-19.376-3.333-22.304-8.213l5.665-.976c1.761 1.405 5.998 4.333 11.95 4.642 1.5.072 4.594.214 8.14-1.333a16.874 16.874 0 005.951-4.308c1.762.666 3.523 1.309 5.285 1.975z" fill="#02B795"/><path d="M20.382 48.016s15.354-6.45 20.567-9.164c5.213-2.714 11.64-5.951 11.64-5.951l-3.237-5.214c-.357.286-.881.715-1.571 1.19-2.547 1.762-4.785 2.548-5.38 2.786-2.761 1.023-11.355 5.022-23.757 10.902l1.738 5.451zm95.906-3.117s-15.354-6.451-20.567-9.165a1169.191 1169.191 0 00-11.64-5.95l3.214-5.214c.357.286.88.714 1.57 1.19 2.548 1.762 4.785 2.547 5.38 2.786 2.762 1.023 11.355 5.022 23.757 10.902l-1.714 5.45zM26.285 62.965C15.36 65.13 7.837 70.939 7.575 76.533c-.047 1.166.143 3.88 1.857 6.427.333.476 3 4.475 6.475 4.475 5.641 0 9.022-10.45 9.45-11.83 1.738-5.332 1.357-10.022.928-12.64zm85.242.023c.738.167 16.972 3.975 18.71 13.569.19 1.047.809 4.522-1.333 7.188-1.857 2.31-5.046 3.095-7.546 2.642-5.499-.975-7.95-7.95-8.926-10.759-.786-2.19-1.976-6.665-.905-12.64z" fill="#2E1544"/></svg>