<svg width="144" height="144" viewBox="0 0 144 144" fill="none" xmlns="http://www.w3.org/2000/svg"><path d="M84.03 79.699a32.078 32.078 0 00-2.071-5.285c-6.951-13.71-24.97-21.423-33.683-16.306-4.951 2.905-6.594 7.475-6.594 7.475-1.547 4.332.096 7.879-2.594 10.878-1.286 1.428-2.81 1.928-3.952 2.31-5.403 1.785-8.76-1.524-14.568-1.215 0 0-4.903.19-9.045 3.38C5.5 85.578 3.5 96.195 5.715 106.526 2.5 95.386 4.286 83.269 10.832 78.223c4.118-3.19 9.046-3.38 9.046-3.38 5.808-.31 9.164 2.999 14.568 1.214 1.143-.381 2.69-.881 3.951-2.31 2.69-2.999 1.048-6.545 2.595-10.878 0 0 1.643-4.57 6.594-7.474 8.712-5.118 26.731 2.594 33.682 16.306 1.238 2.475 2.166 5.189 2.761 7.998z" fill="#DB0032"/><path d="M84.03 79.698a32.077 32.077 0 00-2.071-5.285c-6.951-13.71-24.97-21.423-33.683-16.305-4.951 2.904-6.594 7.474-6.594 7.474-1.547 4.332.096 7.88-2.594 10.879-1.286 1.428-2.809 1.928-3.952 2.308-5.403 1.786-8.76-1.523-14.568-1.214 0 0-4.903.19-9.045 3.38C5.5 85.578 3.5 96.195 5.715 106.526c1.19 5.618 3.642 11.164 7.331 15.615 1.762 2.119 10.427 11.997 22.685 11.164 2.238-.143 7.57-.476 11.736-4.261 6.712-6.093 3.07-14.496 8.855-17.948 4.166-2.475 7.284 1.119 15.14-1.499.975-.334 5.236-1.81 8.307-4.737 5.927-5.642 6.903-16.187 4.26-25.161z" fill="#F9F3EF"/><path d="M61.606 79.936c-.452-.476-1.856-1.976-4.023-3.118-1.594-.834-3.594-1.452-5.927-1.357-5.427.238-9.926 4.308-11.211 8.736-.643 2.19-.381 4.047-.167 5.499.286 2.047.857 6.093 4.309 8.974 3.737 3.142 8.236 2.737 9.212 2.642 4.546-.524 7.403-3.38 8.593-4.856.69-.857 2.5-3.166 2.856-6.594.024-.238.048-.476.048-.714.238-5.022-2.904-8.379-3.69-9.212z" fill="#007B66"/><path d="M121.806 53.228c-4.784 3.214-11.544 7.57-19.804 12.474-4.523 2.69-7.499 3.951-10.617 6.117-2.928 2.023-22.09 13.64-28.827 17.71.024-.19.024-.38.048-.571.167-3.904-2.309-6.546-2.904-7.212-.357-.381-1.452-1.548-3.166-2.428 9.403-6.023 17.33-10.903 23.233-14.45 8.593-5.165 14.353-7.974 23.827-13.996 4.19-2.666 7.784-5.07 10.617-7.022.714 1.5 2.404 3.142 3.404 4.38 1.738 2.19 4.189 4.998 4.189 4.998z" fill="#007B66"/><path d="M59.678 81.769a12.04 12.04 0 00-3.165-2.452c-1.238-.643-2.81-1.143-4.642-1.047-4.261.19-7.76 3.38-8.784 6.831-.5 1.714-.286 3.166-.119 4.309.214 1.618.667 4.76 3.38 7.022 2.928 2.452 6.451 2.142 7.213 2.07 3.57-.404 5.784-2.641 6.736-3.808.524-.666 1.952-2.475 2.238-5.165.024-.19.024-.381.048-.572.166-3.88-2.286-6.522-2.905-7.188z" fill="#003163"/><path d="M39.421 107.907s-.095-.119-5.45-7.522c-2.905-3.999-3.738-7.093-4.476-6.95-1.69.309-.31 3.95-1.238 5.141-.928 1.19-3.404 2.119-1.69 6.141.572 1.357 2.69 7.07 6.284 7.261 2.19.119 3.595-1.881 5.38-1 .857.428 1.452 1.309 1.952 1.071.38-.167.428-.809.428-1.047.096-1.524-.975-2.809-1.19-3.095z" fill="#DB0032"/><path d="M136.279 33.542c-1.762-3.261-2.452-3.714-2.809-3.928-2.19-1.262-5.618-.857-7.355.952-1.286 1.333-1.167 2.238-2.666 5.76-1.952 4.595-6.094 3.024-8.689 4.738-1.095.714-1.047 1.714-.524 2.809.715 1.5 2.405 3.142 3.404 4.38 1.714 2.166 4.19 4.975 4.19 4.975 3.761 2.808 3.142.214 5.737-2.81 1.904-2.213 4.213-.356 7.165-1.975 2.761-1.5 4.594-4.975 4.499-8.022-.048-1.5-1.024-3.285-2.952-6.88z" fill="#003163"/><path d="M117.665 38.613c-.357.595-1 .5-1.166 1.071-.167.571.381 1 .119 1.428-.167.262-.548.405-.738.286-.286-.19.095-.786-.167-1.524-.238-.714-.785-.666-1.214-1.333-.452-.714-.595-1.975.095-2.618.619-.571 1.976-.357 2.666.452.572.643.762 1.619.405 2.238zm5.903-4.117c.095.642-.286 1-.024 1.57.19.405.5.43.547.762.072.477-.452 1.095-.857 1.048-.404-.024-.381-.667-.999-1.19-.762-.62-1.405-.143-2.024-.643-.714-.571-.952-2.047-.238-2.833.524-.571 1.452-.5 2-.333.738.238 1.476.857 1.595 1.619zm4.165-6.786c.072.667-.5.93-.309 1.667.095.429.357.667.238.976a.58.58 0 01-.453.357c-.357.048-.595-.31-.976-.619-.833-.69-1.309-.357-1.832-.857-.667-.619-.929-2.07-.238-2.832.523-.572 1.452-.5 1.999-.334.714.262 1.5.881 1.571 1.643zm-2.118 27.637c-.072-.666.714-1.023.547-1.547-.166-.5-.976-.476-1.047-.952-.048-.31.214-.714.5-.738.357-.048.452.619 1.047.857.619.238.976-.286 1.548-.143.999.214 1.975 2.309 1.142 3.38-.619.762-1.857.571-1.928.571-.833-.166-1.738-.737-1.809-1.428zm5.309-3.522c-.19-.69.286-.929.095-1.738-.19-.738-.714-1.024-.547-1.428.095-.262.428-.429.69-.405.5.048.5.786 1.143 1.238.666.476 1.142 0 1.785.405.762.476 1.214 1.904.571 2.785-.452.619-1.38.666-1.928.571-.809-.167-1.619-.69-1.809-1.428zm7.022-4.69c-.119-.571.309-.762.166-1.357-.19-.69-.88-.785-.857-1.31 0-.356.31-.713.596-.713.333-.024.428.476.904.857.809.666 1.595.071 2.357.595.761.523 1.166 1.952.571 2.785-.452.619-1.381.666-1.928.571-.809-.143-1.666-.69-1.809-1.428z" fill="#DB0032"/></svg>