<svg width="144" height="144" viewBox="0 0 144 144" fill="none" xmlns="http://www.w3.org/2000/svg"><path d="M105.159 72.575c-4.118-9.117-7.26-16.092-12.259-23.424 0 0-7.784-11.378-10.45-20.114-2.023 2.143-4.213 8.284-12.092 24.352-3.618 7.355-4.904 11.283-6.998 13.758-2.405 2.857-8.665 6.808-15.64 10.688-.737-1.928-1.095-3.166-.833-3.332 0 0 .12-.072.381-.238.238-.143.643-.381 1.285-.786.834-.5.977-.619 1.048-.833.19-.548-.286-1.19-.833-1.928-.381-.5-.62-.857-.952-1.071-1.524-1.024-3.833 1.118-8.046 3.499-.214.119-.738.404-.81.904-.047.31.096.595.596 1.238.857 1.071 1.261 1.643 1.642 1.714 1 .19 1.5-1.19 2.428-1.119 1.166.072 1.952 2.333 2.166 3.023a450.495 450.495 0 01-9.33 4.904c-.43-1.024-.882-2.071-1.31-3.095-.214-.476-.714-1.69-.19-2.428.57-.785 1.785-.309 2.308-.976.69-.88-.69-2.808-1.737-4.427-1.119-1.666-8.189 2.785-9.498 3.356-1.88.81.024 4.547 1.31 5.023 1.07.405 1.999-.928 3.38-.548 1.285.358 1.928 1.88 2.213 2.619.262.643.5 1.261.738 1.88-3.88 1.952-7.284 3.642-9.57 4.785-.356-.952-.57-1.619-.618-1.857-.19-1.404.785-1.595 1.785-1.809 1-.19.19-2.594-1-4.38-1.19-1.785-7.974 3.785-8.974 4.38-1 .595 1.595 4.19 2.19 4.594 1.048.714 1.928-2.094 3.19-2 .762.048 1.333.905 1.785 1.881a7.753 7.753 0 00-.428.238c-6.19 3.357-9.284 5.047-9.903 5.309-5.617 2.523-9.521 3.404-9.902 6.046-.19 1.309.5 2.88.714 3.38 0 0 .929 2.119 2.666 3.38 1.619 1.19 4.69.286 8.998-1.904-.024 1.785.405 3.642 1.666 4.856 2.547 2.452 7.642 1.452 13.735-1.048.286 1.095.524 2.238.69 3.357.072.523.262 1.999 1.238 2.452.715.309 1.738.047 2.214-.572.928-1.166-.19-3.427-.738-4.594a89.6 89.6 0 00-.833-1.761c2.737-1.238 5.594-2.714 8.474-4.237.262.785.405 1.237.405 1.237.571 1.786 1.642 5.118 3.19 5.166.619.024 1.07-.5 1.166-.595 1.38-1.548-.024-5.023-1.047-7.403l-.143-.334c.81-.452 1.619-.88 2.428-1.333 1.976-1.095 3.927-2.142 5.76-3.213a380.628 380.628 0 011.62 4.713c.356 1.047 1.166 3.356 2.498 3.475.453.048.81-.19.929-.261.976-.738-.19-4.714-2.047-9.665 7.165-4.332 12.283-8.593 12.068-13.544-.071-1.738-.833-4.404-2.594-5.999a79.51 79.51 0 002.404-1.404 5.141 5.141 0 012.166-.714c1.333-.12 2.38.428 2.833.595 2.904 1.047 4.522 3.213 11.188 6.165 8.212 3.666 22.185 6.665 28.588 3.832-2.428-2.404-4.832-8.355-7.308-13.853zm-84.67 35.42c-.857-.833-1.19-2.024-1.238-3.261 2.095-1.214 4.38-2.595 6.855-4.095 1.024 2.405 2.048 4.833 2.904 7.284-3.76 1.333-6.855 1.667-8.521.072zm10.735-.952c-1.023-2.333-2.19-4.975-3.26-7.523 2.808-1.69 5.831-3.522 9.045-5.38a366.518 366.518 0 013.023 8.57c-3.023 1.643-6.023 3.19-8.808 4.333zm12.545-6.332c-.143.071-.262.143-.405.214a521.923 521.923 0 01-3.404-8.45c5.166-2.904 4.832-2.405 8.165-4.523.167-.12.357-.214.524-.333 1 2.856 2.023 5.689 3.023 8.545-2.357 1.476-5.07 2.976-7.903 4.547zm10.712-6.499c-1.072-2.69-2.262-5.499-3.38-8.117a227.76 227.76 0 016.617-3.832c1.238 1.214 1.785 3.166 1.833 4.427.095 2.714-1.904 5.142-5.07 7.522z" fill="#2A1D43"/><path d="M114.157 17.826l-6.642-2.547-2.118 13.212s-4.928-2-6.38 1.213c-1.452 3.214 10.236 8.736 10.784 2.048.547-6.69.214-13.45.214-13.45l4.142 4.476v-4.952z" fill="#02B795"/><path d="M126.273 34.918c-1.762 1.81-3.499 3.642-5.261 5.451l-4.665 5.26 9.64 10.094s-6.593 5.736-2.404 6.736c4.19 1 6.261-2.428 6.546-6.855.286-4.428-9.997-10.14-9.997-10.14 2.189-2.286 4.403-4.571 6.593-6.856 3.547 1.88 7.07 3.784 10.617 5.665-.476.452-1.905 1.88-2.047 4.094-.072 1.333.261 3.69 1.761 4.261.905.357 1.857-.095 1.976-.143 2.285-1.142 3.285-5.784 1.88-9.212-1.333-3.285-4.546-4.737-8.022-6.332a28.804 28.804 0 00-6.617-2.023z" fill="#FACD37"/><path d="M111.039 68.528c-8.974-18.781-21.495-45.99-26.517-45.656-1.31.095-1.976.786-1.976.786-.786.833-1 2.356-.262 4.88l.143.5c2.69 8.735 10.45 20.114 10.45 20.114 5.023 7.331 8.165 14.306 12.259 23.423 2.476 5.498 4.88 11.45 7.308 13.877.785.786 1.595 1.215 2.38 1.12a2.02 2.02 0 001.095-.453c2.904-2.404-2.19-12.95-4.88-18.59z" fill="#DCB8FD"/></svg>