<svg width="143" height="143" viewBox="0 0 143 143" fill="none" xmlns="http://www.w3.org/2000/svg">
<g clip-path="url(#clip0_552_2453)">
<path d="M70.1045 64.6875C66.5308 66.4019 61.2911 68.9614 54.9647 72.1005C34.078 82.5076 29.0797 85.6466 27.0755 86.9264C15.4128 94.4359 9.49694 98.3476 6.01985 105.905C4.88497 108.368 0.804223 117.206 4.54692 126.671C8.7484 137.272 19.6384 140.652 22.3428 141.497C24.0572 142.029 34.8024 145.192 45.4751 139.421C51.8498 135.992 55.1579 131.018 56.4618 129.038C60.5908 122.687 61.3876 116.53 61.7981 113.608C63.3918 102.066 66.2894 85.719 70.1045 64.6875Z" fill="#007A96"/>
<path d="M66.1924 0C62.5704 2.14903 57.0167 5.23978 49.9659 8.30638C37.772 13.5944 34.0776 13.2081 23.7429 18.303C14.6638 22.7942 7.32333 26.5611 4.30502 34.5294C2.37331 39.6485 3.12185 44.2121 3.36331 45.6609C4.66722 53.1222 9.95529 60.0522 17.1509 62.7083C20.7729 64.0364 23.7188 63.8673 28.2583 63.5776C32.8944 63.2878 39.921 62.8773 45.6196 58.4827C49.314 55.6575 50.8835 52.0839 53.926 45.0814C56.9201 38.1514 58.4655 32.477 61.4114 20.3555C62.7394 14.8018 64.3814 7.92003 66.1924 0Z" fill="#007A96"/>
<path d="M138.945 3.35742C128.055 12.4848 118.783 18.618 112.143 22.6263C111.877 22.7953 99.949 29.5322 91.5702 39.7461C89.3487 42.4505 88.0689 44.5995 87.1514 47.8593C85.2438 54.5479 87.3445 60.2947 87.9482 61.7677C88.6243 63.4821 91.546 70.1223 98.9348 73.4787C107.99 77.5836 116.61 73.4787 117.842 72.8509C127.21 68.1423 130.398 57.9284 133.15 49.1391C134.044 46.3139 134.961 42.692 136.603 28.3731C137.786 17.9177 138.511 9.29745 138.945 3.35742Z" fill="#007A96"/>
<path d="M25.5552 23.0115C22.1505 20.9591 15.4136 26.0781 12.0573 30.0623C9.3046 33.3703 8.43533 36.4369 8.19386 37.2096C7.85581 38.2962 7.66264 39.5035 7.56605 41.1213C7.32459 45.8299 7.10727 47.4718 11.3329 51.7216C15.5585 55.9472 22.1505 51.7216 20.9915 47.0131C19.8083 42.3045 16.2829 35.1089 19.591 31.8733C22.4161 29.0964 26.9798 28.8549 27.2454 26.0057C27.3661 24.8225 26.5452 23.591 25.5552 23.0115Z" fill="white"/>
<path d="M24.8303 96.3679C19.1559 96.054 14.4473 102.863 12.8778 105.109C10.9461 107.886 10.1976 110.252 9.83536 111.315C9.83536 111.315 9.15926 113.512 9.03852 115.685C8.84535 118.921 9.93194 126.72 14.6646 128C17.5381 128.772 20.2666 126.792 20.9669 126.237C23.2125 124.45 24.4198 121.577 24.2749 118.993C24.0818 115.975 22.3915 115.637 22.0535 111.967C21.9327 110.518 21.7154 108.151 23.0918 106.196C24.5888 104.095 26.424 104.602 27.8727 102.26C28.0418 101.994 29.4906 99.5794 28.5006 97.9133C27.6313 96.4645 25.4098 96.3921 24.8303 96.3679Z" fill="white"/>
<path d="M99.5627 39.8426C96.9791 39.9875 95.2405 43.368 93.7676 46.2173C93.0674 47.5937 92.2222 49.2839 91.7876 51.7227C91.5944 52.8093 91.3288 55.079 91.8842 57.8559C92.3671 60.1981 92.8017 62.4679 94.7818 63.9649C95.144 64.2547 96.4962 65.1964 98.3554 65.1964C98.5486 65.1964 101.76 65.1481 102.629 63.144C103.136 61.9849 102.629 60.7776 102.219 59.8359C101.181 57.4213 99.3937 57.3488 98.5969 55.4412C97.9691 53.9442 98.4037 52.4712 98.8384 50.9742C99.8525 47.5454 101.977 46.5554 102.557 43.1024C102.653 42.4988 102.726 41.7261 102.291 41.05C101.736 40.1083 100.456 39.7944 99.5627 39.8426Z" fill="white"/>
</g>
<defs>
<clipPath id="clip0_552_2453">
<rect width="142.82" height="142.82" fill="white"/>
</clipPath>
</defs>
</svg>
