<svg width="143" height="143" viewBox="0 0 143 143" fill="none" xmlns="http://www.w3.org/2000/svg"><g clip-path="url(#clip0_552_2408)"><path d="M23.07 72.246c1.402.314 3.069 1.885 4.712 3.48-.894.628-1.812 1.377-2.803 2.222-2.03-3.382-3.286-6.016-1.909-5.702zm20.007-2.634c-2.416.653-4.47 1.208-6.282 1.764.894-4.59 1.643-9.568 2.9-10.269 1.328-.725 2.246 4.325 3.382 8.505zm15.705-10.775c1.33 1.86 1.716 5.171 2.03 7.49-2.851.29-5.51.605-7.853.967.338-.749.628-1.474.797-2.126.846-3.19 2.827-6.935 4.277-6.862.362.024.604.338.75.531zm40.811 6.113c-5.823-.12-12.661-.048-19.572.193-5.291.194-10.607.484-15.488.87 2.706-3.262 6.307-8.215 7.539-9.35.096-.097.29-.242.507-.242.822 0 .894 2.078 2.32 4.446.894 1.474 1.329 2.223 2.03 2.295 3.068.363 5.75-9.737 10.703-10.245 4.495-.459 8.41 7.636 11.961 12.033zm11.356.603a93.304 93.304 0 00-4.953-.386c1.039-2.344 1.571-5.46 2.73-5.388 1.16.048 1.257 3.189 2.223 5.774zm14.86 8.024c-2.078-2.296-4.543-4.301-7.297-5.775 4.591-2.344 9.641-7.587 11.139-6.476.918.725.338 3.89-3.842 12.25z" fill="#2BB22B"/><path d="M132.961 88.87c-5.726-.363-8.601 9.52-17.542 9.786-7.297.217-4.107-1.813-7.973-8.191-3.866-6.38-18.678-3.649-24.84 1.812-6.16 5.46-20.948 5.001-22.784-1.595-1.837-6.596-10.946-6.161-18.678-3.648-7.756 2.512-8.191 6.596-15.947 5.243-5.848-1.04-5.074-3.866-9.327-4.905a63.831 63.831 0 015.002-5.558 78.228 78.228 0 014.131-3.866c.991-.845 1.91-1.57 2.803-2.222.145-.097.29-.218.435-.315 2.876-2.005 5.413-3.068 8.554-4.035 1.836-.556 3.866-1.087 6.282-1.764 1.087-.29 2.271-.628 3.552-.99 1.667-.484 3.818-.918 6.33-1.305 2.344-.362 5.002-.677 7.853-.967 1.208-.12 2.44-.217 3.721-.338 4.881-.386 10.197-.676 15.489-.87 6.91-.241 13.748-.29 19.571-.193 2.32.048 4.494.12 6.403.218 1.885.096 3.552.217 4.953.386.29.024.556.073.822.097 2.392.314 4.639 1.087 6.717 2.174 2.755 1.45 5.219 3.48 7.297 5.775 4.494 4.905 7.176 11.018 7.176 15.27z" fill="#FFB000"/><path d="M140.935 96.167c-.798-1.522-3.649-7.007-7.974-7.297-5.726-.362-8.602 9.52-17.542 9.786-7.297.217-4.107-1.812-7.973-8.191-3.866-6.38-18.678-3.649-24.84 1.812-6.16 5.46-20.948 5.002-22.785-1.595-1.836-6.596-10.945-6.161-18.677-3.648-7.756 2.513-8.191 6.596-15.947 5.243-5.848-1.039-5.075-3.866-9.327-4.905-1.377-.338-3.31-.483-6.162-.314C-1.914 87.734.14 111.897.14 111.897c9.713.676 19.45 1.377 29.164 2.054 52.989 4.011 74.106 5.195 81.331 5.219 1.256 0 6.476 0 13.434.676 5.389.532 9.786 1.257 12.758 1.813.604-.822 9.931-14.281 4.108-25.492z" fill="#374993"/><path d="M50.422 30.253c-.169.797-.628 2.947-2.488 4.784-2.706 2.658-6.258 2.537-6.838 2.488-3.721-.193-7.346-2.682-8.578-6.403-.242-.749-1.111-3.697.435-6.62 1.909-3.624 6.258-4.784 9.447-4.446 2.755.29 6.331 1.836 7.708 5.098.919 2.199.484 4.325.314 5.099z" fill="#FFB000"/><path d="M97.999 68.019h-1.716s-1.981-10.294-2.175-12.082c-.096-.942-.604-4.228-1.039-7.08.604-.12 1.209-.217 1.813-.337.652 3.817 1.546 8.843 1.787 9.81.411 1.57 1.33 9.689 1.33 9.689z" fill="#374993"/><path d="M112.616 35.834a32.996 32.996 0 00-1.57-.919c-2.803-1.594-5.896-3.117-9.085-4.252l-1.305-.435c-2.03-.628-4.083-1.112-6.137-1.33a20.82 20.82 0 00-3.866-.047 11.88 11.88 0 00-1.62.241c-3.478.7-6.281 2.489-8.65 5.074a26.581 26.581 0 00-2.126 2.658c-3.237 4.567-5.702 10.632-8.287 17.01 0 0 2.44-.604 6.379-1.498l1.232-.29c2.61-.58 5.75-1.256 9.23-1.957a32.884 32.884 0 001.522-.314c1.208-.241 2.416-.483 3.673-.725.362-.072.7-.145 1.087-.193.604-.12 1.208-.217 1.812-.338 1.257-.242 2.562-.483 3.89-.725.556-.097 1.136-.217 1.716-.314 3.165-.58 6.427-1.184 9.423-1.716.508-.096 1.015-.193 1.523-.266 6.596-1.183 11.67-2.102 11.67-2.102s-4.349-3.842-10.511-7.563z" fill="#BC2B55"/><path d="M80.36 34.143c-.363 2.754-.967 7.08-1.596 9.23-.555 1.957-.966 5.823-1.232 8.674-.435.097-.846.193-1.232.29.29-2.102.628-4.833.918-7.273.29-2.513.7-5.702 1.015-8.24.676-.99 1.377-1.86 2.126-2.681zm10.269-5.291c-.798 4.639-1.208 8.287-1.402 10.97-.12 1.497-.29 4.3-.749 8.311-.072.58-.12 1.112-.193 1.643a33.98 33.98 0 00-1.522.314c.29-2.44.628-5.509.918-8.312.41-4.107 1.015-9.737 1.329-12.685.531-.12 1.087-.193 1.619-.241zm11.308 1.811a70.583 70.583 0 00-.991 9.181c-.048 1.45-.073 4.084-.483 7.66-.58.097-1.136.217-1.716.314.218-1.933.435-4.06.653-6.016.362-3.625.869-8.433 1.208-11.55a8.62 8.62 0 011.329.41zm10.679 5.17c-.338 2.682-.676 5.364-.99 8.046-.073.532-.121 1.063-.194 1.595-.507.096-1.014.193-1.522.266 0-.097.024-.194.024-.266.339-3.262.774-7.49 1.112-10.583.531.314 1.063.628 1.57.942z" fill="#FFB000"/></g><defs><clipPath id="clip0_552_2408"><path fill="#fff" d="M0 0h142.82v142.82H0z"/></clipPath></defs></svg>