<svg width="143" height="143" viewBox="0 0 143 143" fill="none" xmlns="http://www.w3.org/2000/svg">
<g clip-path="url(#clip0_552_2355)">
<path d="M47.7557 25.6676C47.4593 24.8771 45.5571 20.2823 40.4436 18.2319C35.3794 16.231 30.9081 18.1825 29.6235 18.8248C26.1403 20.554 24.4111 23.3208 23.917 24.136C20.6562 29.4719 20.2609 38.3651 24.1394 42.8117C26.8567 45.949 31.8221 47.0854 82.3404 34.8326C82.3404 34.8326 87.034 33.6962 99.361 29.2496C111.49 24.8771 112.898 23.5184 113.516 21.9127C115.986 15.4899 107.291 1.6066 97.5082 3.1135C92.0982 3.92871 87.4046 9.28933 85.9471 16.2557C85.5518 15.391 84.8848 14.1312 83.7485 12.896C81.1299 10.0057 77.8938 9.14111 75.6458 8.57293C74.4106 8.25179 65.4433 6.1273 56.7971 11.1421C55.142 12.1055 52.9434 13.4148 51.0166 16.0333C48.1757 19.7882 47.8051 23.8396 47.7557 25.6676Z" fill="#067BBB"/>
<path d="M39.3068 109.412C39.208 108.795 36.6882 95.0349 26.634 91.8729C22.7061 90.6377 18.8524 91.3788 16.9997 91.7741C2.47412 94.8867 -2.1948 104.743 0.917815 123.419C4.03043 142.095 128.535 141.576 138.911 134.313C149.286 127.05 137.873 90.2178 119.197 94.3679C100.522 98.5181 98.4465 115.119 98.4465 115.119C98.4218 112.846 98.0513 102.125 89.6274 94.3679C84.2174 89.3779 78.1651 88.118 75.6206 87.6239C65.2205 85.5983 57.019 89.6002 54.8699 90.7366C43.7534 96.6159 40.0479 107.115 39.3068 109.412Z" fill="#067BBB"/>
<path d="M19.2727 64.6737C17.7658 60.9929 14.6285 58.5719 11.3429 58.5472C7.61271 58.4978 5.21649 61.4869 4.72242 62.1045C1.65921 65.9088 0.992221 72.6034 3.7837 76.6795C6.45165 80.5332 10.5771 79.5698 39.4553 80.8049C39.4553 80.8049 44.1983 81.0026 54.0549 80.0885C61.9847 79.3474 63.4916 78.631 64.6527 77.4947C68.7781 73.468 68.284 64.3525 64.1586 61.2646C63.3681 60.6717 61.7871 59.8071 59.8108 59.7577C57.6369 59.6836 56.0559 60.5729 55.0431 61.1411C50.8435 63.562 49.2131 68.058 48.719 69.6143C48.719 69.6143 48.2991 64.6243 44.2477 60.9188C43.7537 60.4741 41.6045 58.5472 38.146 57.6332C32.3407 56.1016 27.4248 58.5967 25.7202 59.4613C22.83 60.9435 20.7302 62.895 19.2727 64.6737Z" fill="#067BBB"/>
<path d="M92.8882 54.1005C92.8141 50.1726 90.8131 46.7389 87.7005 45.4296C83.8221 43.7992 79.9684 46.2695 78.4368 47.2329C77.4239 47.8752 75.3489 49.1845 74.1137 51.7536C71.9645 56.2496 74.0149 60.968 74.4348 61.9067C74.4348 61.9067 74.756 62.796 75.2748 63.4877C77.6216 66.6003 84.0938 67.6873 108.624 75.3206C108.624 75.3206 113.244 76.7534 123.249 78.4332C128.486 79.2978 131.228 79.9401 134.415 78.6555C135.329 78.285 138.762 76.8028 140.541 72.9985C140.813 72.4056 142.814 67.959 140.467 63.6112C138.911 60.7456 136.341 59.5599 135.403 59.1646C134.662 58.8435 131.821 57.633 128.486 58.4729C122.656 59.9551 120.778 66.4027 120.704 66.6991C120.778 65.8592 120.803 64.6488 120.704 63.216C120.605 61.8079 120.432 59.4611 119.444 57.2131C117.962 53.7793 115.22 51.9513 114.207 51.2843C108.995 47.8752 103.264 48.8881 101.386 49.308C97.1125 50.3456 94.2469 52.7418 92.8882 54.1005Z" fill="#067BBB"/>
</g>
<defs>
<clipPath id="clip0_552_2355">
<rect width="142.82" height="142.82" fill="white"/>
</clipPath>
</defs>
</svg>
