<svg width="143" height="143" viewBox="0 0 143 143" fill="none" xmlns="http://www.w3.org/2000/svg"><g clip-path="url(#clip0_552_2284)"><path d="M107.466 72.555c-9.971-1.592-18.799 5.992-21.335 14.223-2.66 8.628 1.094 19.494 6.813 21.11 2.487.697 3.954-.746 11.936-4.923.024-.025.049-.025.074-.05a186.367 186.367 0 015.844-2.934c9.075-4.326 11.313-4.376 12.358-7.161 2.337-6.29-4.65-18.475-15.69-20.265z" fill="#EACB86"/><path d="M118.805 142.327c-6.938-.049-7.833-14.148-9.872-27.028-.845-5.297-2.412-9.375-3.954-12.334a187.961 187.961 0 015.844-2.934c.224.597.447 1.219.721 1.915 3.108 8.23 9.15 21.832 13.701 29.117 4.55 7.261.497 11.314-6.44 11.264z" fill="#AA4704"/><path d="M128.85 27.078c-.895-6.714-20.241-13.975-26.78-7.013-5.918 6.291-.324 23.076 6.664 24.493 2.909.572 5.918-1.517 9.598-4.725.223-.198.472-.422.721-.621.348-.324.721-.647 1.094-.97l1.144-1.044c.696-.647 1.367-1.244 1.989-1.816 3.73-3.456 5.918-5.843 5.57-8.304z" fill="#E090C7"/><path d="M142.451 60.82c-.821 1.815-3.133 3.606-5.371 3.506-3.258-.124-5.297-4.227-8.653-10.07a243.57 243.57 0 00-9.35-15.044c.348-.323.721-.646 1.094-.97l1.144-1.044c.696-.647 1.368-1.243 1.989-1.815 7.46 5.992 22.106 18.823 19.147 25.437z" fill="#EACB86"/><path d="M66.836 91.255c-4.128-2.288-7.883-2.362-8.678-2.362-6.963-.025-11.613 4.227-13.154 5.818-1.865 1.94-2.91 3.009-2.86 4.526.05 2.014 1.89 3.257 6.366 5.594 1.989 1.045 4.5 2.288 7.609 3.904 2.486 1.293 4.5 2.387 6.191 3.307 5.495 2.959 7.46 3.879 9.797 2.885 3.73-1.592 4.725-6.465 4.849-7.211 1.293-7.161-5.048-13.651-10.12-16.461z" fill="#E090C7"/><path d="M61.414 120.099c.498 7.137-6.067 13.328-14.869 12.806-8.827-.522-12.98-6.341-13.95-9.822-.944-3.481-1.193-8.603 5.869-11.96 4.053-1.915 7.658-4.476 10.02-6.291 1.99 1.044 4.501 2.288 7.61 3.904 2.486 1.293 4.5 2.387 6.19 3.307a23.122 23.122 0 00-.87 8.056z" fill="#EACB86"/><path d="M90.333 33.89C81.108 12.506 55.099-1.468 31.427.123 18.845.97.942 6.638.022 14.993c-.05.547-.224 2.71 2.387 6.614 5.769 8.628 15.242 11.015 24.144 14.024 2.81.945 5.57 1.99 8.305 3.108 4.7 1.89 9.325 4.003 13.925 6.167 7.708 3.63 15.342 7.434 23.125 10.866 12.035 5.271 16.237 7.236 19.295 5.072 5.47-3.854 3.059-17.828-.87-26.954z" fill="#AA4704"/><path d="M36.127 76.608c-.1 2.66-.1 10.692-5.496 15.715-2.884 2.686-6.166 3.456-7.434 3.73-7.162 1.591-15.964-1.318-19.594-7.858-1.617-2.909-2.288-6.49-1.642-10.567 2.09-12.756 14.72-17.307 24.816-27.303 4.028-4.003 6.54-8.106 8.081-11.587 4.7 1.89 9.325 4.004 13.925 6.167C38.936 59.625 36.4 69.77 36.126 76.608z" fill="#EACB86"/></g><defs><clipPath id="clip0_552_2284"><path fill="#fff" d="M0 0h142.82v142.82H0z"/></clipPath></defs></svg>