<svg width="143" height="143" viewBox="0 0 143 143" fill="none" xmlns="http://www.w3.org/2000/svg">
<g clip-path="url(#clip0_552_2231)">
<path d="M70.9451 106.496C70.9208 108.42 70.9452 110.295 70.9939 112.073C71.0913 115.361 71.3592 118.381 71.7732 121.036C72.0898 123.081 72.5038 124.908 73.0153 126.394C73.1127 126.686 73.2101 126.954 73.3319 127.222C65.0026 130.461 49.781 134.138 36.6782 125.054C26.23 117.796 23.0152 106.544 22.041 100.846C22.5768 100.748 23.137 100.602 23.7215 100.456C25.061 100.091 26.5466 99.5791 28.1297 98.9215C31.3201 97.6063 34.9246 95.7797 38.6752 93.5878C39.8686 92.9059 41.062 92.1752 42.2797 91.4203C46.0791 89.0335 49.9514 86.3788 53.629 83.6268C53.9212 83.4076 54.2135 83.1884 54.5301 82.9448C55.0416 82.5552 55.7478 82.0194 56.6246 81.3374C58.4025 79.9736 60.8623 78.0252 63.6631 75.6872C64.6617 74.8591 65.7333 73.958 66.8049 73.0325C69.8492 70.4265 73.1127 67.4796 76.3275 64.3379C75.2316 69.1601 74.3548 73.8362 73.6972 77.8791C73.478 79.2186 73.2832 80.485 73.1127 81.654C72.5769 85.2342 72.2359 88.0106 72.0655 89.4475C71.9437 90.4948 71.8219 91.542 71.7245 92.5893C71.5784 94.0993 71.4322 95.6336 71.3348 97.1436C71.1156 100.334 70.9939 103.476 70.9451 106.496Z" fill="#791F14"/>
<path d="M117.706 26.7837C117.633 27.1491 117.657 27.5144 117.73 27.8553C116.634 27.6118 115.612 27.3439 114.418 27.7092C113.2 28.0989 112.348 29.1461 110.57 30.7779C110.497 30.851 110.424 30.8997 110.375 30.9727C111.496 32.6532 112.421 34.5772 113.054 36.7691C113.785 39.3994 113.955 41.8836 113.785 44.1486C111.983 41.2017 109.693 38.133 106.82 35.2592C106.479 34.9182 106.113 34.5529 105.748 34.2119C103.873 32.4584 101.778 30.8022 99.3914 29.2923C96.3958 27.3926 93.3758 25.9557 90.3802 24.8841C89.8931 24.7136 89.406 24.5431 88.9189 24.397C84.462 22.9844 80.0781 22.3999 76.084 22.2781C78.2759 21.1335 80.8819 20.1836 83.9018 19.6965C84.876 19.5504 86.4591 19.3556 88.4318 19.3799C88.3344 18.8928 88.237 18.4301 88.1152 17.9674C87.0923 14.0706 87.3115 12.9259 83.6339 11.6595C83.0981 11.4647 82.5867 11.3429 82.0752 11.2455C83.2686 10.3687 84.0723 9.05355 83.8044 7.78711C85.3875 8.15243 86.9949 8.71259 87.7499 9.46758C89.5765 11.2942 90.5019 16.8227 90.3802 18.8928C90.3802 19.0633 90.3558 19.2581 90.3558 19.5017C91.6222 19.6235 92.9861 19.8427 94.423 20.208C95.6164 20.5002 103.58 22.6922 108.938 29.0974C110.473 27.076 113.322 24.2509 115.392 23.7881C116.44 23.5446 118.071 23.9342 119.606 24.47C118.656 24.9815 117.901 25.8095 117.706 26.7837Z" fill="#791F14"/>
<path d="M73.7216 77.9052C73.5024 79.2447 73.3075 80.5111 73.137 81.6801C71.1887 80.8034 69.289 79.8292 67.9251 78.855C66.6344 77.9295 65.1487 76.8092 63.6631 75.7132C64.6616 74.8852 65.7332 73.9841 66.8048 73.0586C68.6801 74.5442 70.4093 75.9081 71.554 76.7118C72.2116 77.1502 72.9422 77.5398 73.7216 77.9052Z" fill="#EE5F9D"/>
<path d="M71.7488 92.615C71.6027 94.125 71.4566 95.6593 71.3592 97.1693C69.5326 95.4401 67.6572 93.8571 66.0985 92.9073C63.2734 91.2024 57.6231 86.7943 53.6533 83.6038C53.9456 83.3846 54.2378 83.1654 54.5544 82.9219C55.0659 82.5322 55.7722 81.9964 56.6489 81.3145C58.8652 82.9706 61.5442 84.9433 64.7103 87.0865C67.3893 88.9375 69.7274 90.8128 71.7488 92.615Z" fill="#EE5F9D"/>
<path d="M70.9934 112.074C67.6325 109.249 63.7357 106.082 61.422 104.719C57.9393 102.624 45.007 96.5598 38.6748 93.6129C39.8682 92.9309 41.0616 92.2003 42.2793 91.4453C49.0742 93.7346 58.9622 97.607 64.1498 101.26C66.6096 102.989 68.8989 104.816 70.9204 106.521C70.9204 108.396 70.9447 110.271 70.9934 112.074Z" fill="#EE5F9D"/>
<path d="M73.0399 126.394C69.5328 124.981 52.1923 117.845 42.8158 112.098C34.316 106.886 26.4008 102.064 23.7461 100.456C25.0856 100.091 26.5712 99.5795 28.1543 98.9219C34.2429 101.893 48.6853 108.956 54.6765 112.22C59.7666 114.996 67.2678 118.771 71.7978 121.012C72.1144 123.082 72.5285 124.884 73.0399 126.394Z" fill="#EE5F9D"/>
<path d="M58.2076 24.8593C57.1847 25.1759 56.5028 25.4438 56.2105 25.5656C55.8696 25.6873 55.553 25.8335 55.212 25.9796C54.8223 24.0556 54.3596 22.2046 53.8968 21.3522C52.7278 19.2334 48.685 17.1145 45.7867 14.9713C42.8885 12.8524 39.2354 11.4886 39.2354 11.4886L40.9645 8.00586C40.9645 8.00586 48.8798 11.0989 54.6762 17.2606C56.9168 19.6961 57.8667 22.4238 58.2076 24.8593Z" fill="#791F14"/>
<path d="M31.6858 46.3658C30.9065 47.4617 30.1271 48.6551 29.3478 49.8972C28.5684 49.2152 27.6917 48.4846 26.7418 47.7296C24.4038 45.8787 23.1617 44.9045 21.3838 44.1008C19.7277 43.3458 16.5129 42.2498 11.7881 42.8343C12.2508 41.4218 12.7379 40.0092 13.2007 38.5723C16.1232 38.7184 22.5528 39.4247 28.7876 43.9303C29.8592 44.734 30.8334 45.562 31.6858 46.3658Z" fill="#820002"/>
<path d="M18.2416 74.0808C17.925 75.0793 17.6328 76.0779 17.3405 77.1008C16.2933 76.7355 14.8807 76.3458 13.3463 76.1753C8.20752 75.6395 3.96981 77.8558 1.94837 79.1222C1.2908 78.2211 0.657575 77.3443 0 76.4432C1.94837 75.3716 5.23625 73.886 9.57138 73.4232C13.6386 73.0335 16.8047 73.7155 18.2416 74.0808Z" fill="#791F14"/>
<path d="M142.84 67.6277L140.673 70.8425C140.673 70.8425 137.701 68.3096 134.438 66.824C131.174 65.3383 127.326 62.8541 124.915 62.8785C123.99 62.8785 122.285 63.3412 120.531 63.9014C120.458 62.4401 120.312 61.3198 120.215 60.6622C122.407 59.8829 125.086 59.4932 128.057 60.2238C136.265 62.2209 142.84 67.6277 142.84 67.6277Z" fill="#791F14"/>
<path d="M129.762 106.789C128.763 107.885 127.765 109.005 126.742 110.101C124.94 105.693 122.407 103.428 120.945 102.332C119.387 101.188 117.925 100.579 115.173 99.434C113.98 98.9469 112.835 98.5085 111.764 98.1432C112.47 96.8768 113.128 95.6103 113.712 94.3926C114.905 94.7579 116.148 95.2206 117.438 95.8051C124.428 99.0443 128.203 104.305 129.762 106.789Z" fill="#791F14"/>
<path d="M120.507 63.8769C120.434 62.4156 120.288 61.2953 120.191 60.6377C120.117 60.1506 120.069 59.8827 120.069 59.8827C119.63 57.8613 118.12 51.3099 113.785 44.1739C110.668 39.0351 106.089 33.604 99.3917 29.3176C91.452 24.2275 83.2202 22.5227 76.0843 22.3278C68.0716 22.1086 61.4471 23.8135 58.208 24.8851C57.1851 25.2017 56.5031 25.4696 56.2109 25.5913C55.8699 25.7131 55.5533 25.8592 55.2123 26.0054C48.7827 28.6844 44.6424 32.2158 41.2328 35.1384C41.2328 35.1384 36.922 38.8646 31.6857 46.3659C30.9064 47.4618 30.127 48.6552 29.3477 49.8973C25.4753 56.0347 21.3837 64.0717 18.2663 74.0815C17.9497 75.08 17.6575 76.0785 17.3652 77.1014C17.3165 77.2719 17.2678 77.4424 17.2191 77.6372C15.6117 83.5067 15.4168 90.2529 15.4168 90.2529C15.2464 95.9276 15.1733 98.7771 16.4397 100.044C17.5113 101.139 19.4841 101.334 22.09 100.847C29.8835 99.3616 43.2055 91.5924 54.5791 82.9465C57.5017 80.7059 67.2922 73.2777 76.4009 64.3639C73.8193 75.6158 72.5528 86.137 72.1388 89.4736C70.3853 104.086 70.4827 120.039 73.3809 127.223C74.2333 129.318 75.3293 130.682 76.6688 131.023C78.398 131.461 80.8091 129.951 85.6313 126.931C85.6313 126.931 86.9464 126.103 88.8461 124.69C90.1125 123.765 91.6225 122.572 93.2056 121.183C93.9849 120.501 94.7886 119.771 95.5923 118.991C95.5923 118.991 95.5923 118.991 95.6167 118.967C102.899 111.856 108.111 104.793 111.813 98.1438C112.519 96.8774 113.176 95.611 113.761 94.3932C120.288 80.9251 120.799 69.5758 120.507 63.8769Z" fill="#DDD9C9"/>
<path d="M99.8782 136.405C100 134.042 99.8782 129.244 96.8826 125.031C95.5918 123.205 94.0331 121.889 93.1807 121.183C93.96 120.501 94.7637 119.771 95.5674 118.991C95.5674 118.991 95.5674 118.991 95.5918 118.967C95.811 119.162 96.0058 119.381 96.225 119.576C97.1992 120.574 99.4642 123.058 101.145 126.931C102.874 130.925 103.19 134.529 103.215 136.746C102.094 136.673 100.999 136.526 99.8782 136.405Z" fill="#791F14"/>
<path d="M44.9586 66.5315C47.5159 69.6733 44.1549 76.3952 41.0862 80.0727C37.3113 84.627 29.8344 89.498 26.0594 86.9407C22.6741 84.6514 23.283 77.1258 26.0594 72.3279C29.8587 65.7765 37.36 65.0215 37.9932 64.9728C39.9416 64.8023 43.3269 64.5101 44.9586 66.5315Z" fill="#067BBB"/>
<path d="M89.6011 88.4496C85.5583 88.3035 82.2217 95.0497 81.1501 99.7014C79.8106 105.473 80.4194 114.363 84.7546 115.824C88.6026 117.139 94.2529 112.122 96.3961 107.008C99.3186 100.018 95.3975 93.5884 95.0566 93.0526C94.0337 91.4209 92.2071 88.547 89.6011 88.4496Z" fill="#067BBB"/>
<path d="M83.8043 7.8118C83.439 5.96084 80.9792 4.59698 78.909 5.10843C76.3518 5.7173 74.8905 9.05388 75.9377 10.9048C76.7902 12.3905 79.0308 12.3661 79.1526 12.3661C80.1511 12.3418 81.1983 11.9277 82.0508 11.2945C83.2685 10.3934 84.0722 9.10259 83.8043 7.8118Z" fill="#EE5F9D"/>
<path d="M122.602 24.0566C121.603 23.8131 120.531 24.0079 119.63 24.4707C118.656 24.9821 117.901 25.8102 117.706 26.76C117.633 27.1253 117.658 27.4906 117.731 27.8316C118.145 29.6339 120.337 31.2169 122.334 31.29C122.455 31.29 124.696 31.3143 125.548 29.8287C126.62 28.0264 125.159 24.6899 122.602 24.0566Z" fill="#EE5F9D"/>
</g>
<defs>
<clipPath id="clip0_552_2231">
<rect width="142.82" height="142.82" fill="white"/>
</clipPath>
</defs>
</svg>
