<svg width="143" height="143" viewBox="0 0 143 143" fill="none" xmlns="http://www.w3.org/2000/svg">
<g clip-path="url(#clip0_552_2299)">
<path d="M139.952 55.5329C138.588 59.7468 136.42 67.2732 133.74 76.1637C133.546 76.797 133.351 77.4546 133.156 78.1123C130.623 86.4669 127.7 95.8202 124.631 104.613C124.436 105.149 124.241 105.709 124.071 106.245C122.073 111.847 120.027 117.206 118.006 121.858C117.786 122.37 117.567 122.857 117.348 123.344C113.451 131.991 109.602 137.959 106.314 138.275C105.949 138.3 105.705 138.251 105.608 138.227C101.978 137.277 102.539 124.708 103.269 110.849C103.294 110.24 103.342 109.655 103.367 109.046C103.464 107.073 103.586 105.076 103.683 103.103C103.927 98.1098 104.073 93.5793 104.171 89.4629C104.195 88.8052 104.195 88.1476 104.219 87.5143C104.463 75.1163 104.268 66.6643 104.609 60.7211C104.658 59.6737 104.755 58.675 104.853 57.7738C105.413 52.5857 106.752 49.7602 109.895 47.8116C111.478 46.8373 113.232 46.2527 115.278 45.9117C119.223 45.2784 124.168 45.5951 130.671 46.0335C131.256 46.0822 131.816 46.1066 132.352 46.1796C136.176 46.5694 138.758 47.3732 139.952 49.3948C141.243 51.6601 140.293 54.5099 139.952 55.5329Z" fill="#FFB000"/>
<path d="M132.279 46.1548C131.743 46.1061 131.183 46.0574 130.599 46.0087C124.095 45.5703 119.126 45.2293 115.205 45.8869C113.451 43.2807 110.382 38.3117 108.847 33.5377C106.631 26.5958 111.795 34.2197 114.718 36.6311C117.64 39.0425 115.716 17.8271 117.738 14.9773C119.76 12.1275 120.393 30.5904 122.025 34.3415C123.657 38.0925 127.018 23.9408 131.11 20.2385C135.202 16.5362 135.616 18.436 134.057 23.3075C132.474 28.179 131.987 30.1276 130.672 34.4145C129.356 38.7015 128.821 39.8706 130.258 39.7001C131.67 39.5296 139.465 26.7663 142.436 27.5701C144.848 28.179 135.811 41.2103 132.279 46.1548Z" fill="#2BB22B"/>
<path d="M123.17 61.5496C123.462 62.2803 117.519 60.6727 113.597 60.7458C110.674 60.7945 106.485 60.7214 104.561 60.6971C104.609 59.6497 104.707 58.651 104.804 57.7498C106.095 57.6767 108.555 57.7498 112.672 58.651C119.516 60.1125 122.877 60.8188 123.17 61.5496Z" fill="#BC2B55"/>
<path d="M133.741 76.1631C133.546 76.7964 133.351 77.454 133.156 78.1117C131.524 77.7219 129.576 77.2348 128.723 76.9912C127.164 76.5284 118.858 75.1888 117.835 74.4337C116.812 73.6786 122.244 74.2875 127.213 75.0426C130.111 75.4811 132.377 75.8951 133.741 76.1631Z" fill="#BC2B55"/>
<path d="M117.08 91.6066C113.695 92.0451 108.506 89.3901 106.314 89.4145C105.511 89.4145 104.755 89.4388 104.146 89.4388C104.171 88.7812 104.171 88.1235 104.195 87.4902C106.363 87.7825 110.601 88.4158 112.647 89.3901C115.448 90.7054 120.466 91.1682 117.08 91.6066Z" fill="#BC2B55"/>
<path d="M124.631 104.613C124.436 105.149 124.241 105.709 124.071 106.245C122.804 105.928 120.563 105.319 119.224 104.735C117.299 103.907 112.988 103.736 116.252 103.493C118.469 103.322 122.366 104.102 124.631 104.613Z" fill="#BC2B55"/>
<path d="M108.214 110.799C106.436 110.677 104.414 110.774 103.245 110.847C103.269 110.238 103.318 109.654 103.343 109.045C105.242 109.24 108.409 109.873 110.187 110.36C112.72 111.067 110.942 110.994 108.214 110.799Z" fill="#BC2B55"/>
<path d="M117.982 121.833C117.762 122.345 117.543 122.832 117.324 123.319C116.325 123.124 115.18 122.881 114.011 122.637C110.723 121.882 108.774 119.69 112.355 120.956C114.377 121.638 116.496 121.809 117.982 121.833Z" fill="#BC2B55"/>
<path d="M100.956 19.2401C101.175 16.439 97.6189 13.3456 94.2576 12.4687C90.3847 11.4457 86.8042 13.3456 85.2453 14.1981C81.5186 16.1954 81.2507 18.1927 79.229 18.0222C77.0125 17.8274 76.1356 15.6108 72.1654 14.1494C71.7026 13.9789 71.1911 13.8814 70.5578 13.8327C67.3426 13.6135 64.8338 15.4647 64.4684 15.7326C62.4467 17.2671 63.0069 18.2658 61.6186 19.0696C57.9406 21.213 52.6307 14.9532 48.3925 17.1697C47.199 17.803 46.2734 18.9234 45.8593 19.6298C44.3248 22.2361 44.0325 23.527 43.9838 24.3552C43.9594 25.0128 44.1543 25.232 43.9838 25.6948C43.594 26.7665 42.3275 26.9614 41.1339 27.6434C39.4289 28.6177 39.4046 29.7625 38.2598 30.883C35.7997 33.2943 32.9011 31.1022 29.1988 32.7828C25.2042 34.5853 22.4761 39.7978 23.694 42.9155C24.1324 43.9873 24.7901 44.9129 26.4707 45.8141C34.0946 49.9305 30.2705 47.1537 37.5534 49.2485C44.8363 51.3189 42.4005 57.2134 49.3424 52.3662C50.0975 51.8547 50.7308 51.3432 51.291 50.8317C53.6293 48.737 54.5062 46.8127 55.4318 45.2539C56.333 43.7437 57.3073 42.5745 59.743 41.9656C60.0597 41.8925 60.3763 41.8195 60.6686 41.7707C61.6186 41.6002 62.4224 41.5272 63.1531 41.5272C64.6145 41.5515 65.8081 41.8438 67.2451 42.0387C68.6579 42.2335 70.2898 42.3553 72.6769 41.99C72.7499 41.99 72.823 41.9656 72.9204 41.9656C79.4482 40.9426 80.7148 37.5082 86.2196 33.3918C86.2683 33.3674 86.2927 33.3187 86.3414 33.2943C87.1452 32.6854 88.0464 32.247 88.9964 31.9303C92.9666 30.5176 97.5215 31.0291 98.4714 29.1779C99.0073 28.1306 97.692 27.6191 97.7163 25.7435C97.7407 23.5757 100.761 21.9925 100.956 19.2401Z" fill="#173D30"/>
<path d="M93.4538 76.7718C90.604 78.355 88.0709 79.1345 86.3171 79.5242C83.6378 80.1331 81.7379 80.1331 81.2751 80.1331C79.838 80.1088 78.6445 79.9626 77.7676 79.7921C77.5241 78.7447 77.1831 77.2102 76.7446 75.3591C75.137 68.5877 74.3332 65.202 73.7974 64.4225C71.0937 60.6228 67.6349 63.0829 59.5726 58.187C55.4318 55.6782 53.191 53.145 52.5089 52.3169C52.0705 51.8054 51.6808 51.2939 51.3154 50.8067C53.6537 48.712 54.5306 46.7877 55.4562 45.2289C56.7959 47.5428 58.4522 50.0516 59.7188 51.1234C60.0598 51.4157 60.4008 51.6592 60.7418 51.9028C61.3507 51.0747 62.1545 49.735 62.4468 48.103C62.7634 46.3493 61.6186 43.5969 60.7174 41.7457C61.6674 41.5752 62.4711 41.5022 63.2019 41.5022C63.4698 42.0868 63.7621 42.7688 64.1275 43.5482C65.4184 46.3493 65.5402 47.5428 64.639 49.6619C64.1518 50.8067 63.3724 52.0977 62.7634 53.0476C64.7851 53.9976 66.5876 54.2898 67.3914 54.3873C70.9719 54.8988 75.3319 54.2168 75.5998 52.8528C75.6729 52.4387 75.3806 52.0246 75.0152 51.4644C74.3089 50.3927 73.3833 49.9542 72.7744 49.5889C71.8731 49.0286 71.1911 48.1761 69.8271 46.4711C68.731 45.0827 67.8785 43.4751 67.2939 42.038C68.7067 42.2329 70.3386 42.3547 72.7256 41.9893C72.8718 42.5495 73.0179 43.1341 73.1641 43.7187C74.041 47.6159 79.9842 50.6606 80.3495 46.8121C80.6905 42.9636 84.198 41.5509 85.903 37.3614C86.4876 35.9 86.512 34.5359 86.2684 33.3911C86.3171 33.3668 86.3415 33.3181 86.3902 33.2937C87.194 32.6848 88.0952 32.2463 89.0451 31.9297C89.8002 35.7051 90.2387 40.5766 88.4362 43.7431C85.148 49.5889 86.6581 56.1167 88.4362 62.1573C90.1899 68.1736 93.4538 76.7718 93.4538 76.7718Z" fill="#2BB22B"/>
<path d="M91.8943 128.265C86.8036 137.667 76.5491 139.81 73.4801 140.468C68.4868 141.515 64.0294 141.101 59.8886 140.273C45.9318 137.423 22.4268 126.267 10.1019 101.739C6.32654 94.2372 4.42666 87.0761 3.96387 80.938C4.74331 80.597 5.52275 80.1342 6.1804 79.5497C6.61883 79.1599 8.10464 77.7716 8.68922 75.5307C9.51737 72.3398 8.08028 69.1734 9.29815 68.4914C9.34687 68.467 9.34687 68.4426 9.37122 68.467C10.1507 68.4914 10.2237 79.8907 14.8029 81.4983C19.5039 83.1789 15.5337 77.5036 16.3862 72.9731C17.2387 68.4426 16.6054 64.2775 18.5783 64.789C20.5513 65.3005 25.1549 78.6241 28.5406 77.3331C31.9262 76.0422 26.7868 71.463 26.4702 67.444C26.1535 63.425 26.933 64.1314 28.6136 65.1057C30.2943 66.08 31.8288 75.4332 36.5298 74.191C37.0657 74.0449 37.5772 73.8744 38.0643 73.7039C40.0616 76.7729 42.6922 79.8663 46.6625 82.5456C56.1376 88.976 59.7425 83.934 74.6492 91.8745C82.0295 95.7961 89.9214 100.156 93.1366 109.168C93.5994 110.532 96.6197 119.52 91.8943 128.265Z" fill="#374993"/>
<path d="M40.7928 70.2455C37.8212 70.5135 31.4639 53.9017 20.1864 56.4836C18.0916 56.9707 16.7276 56.7271 15.8751 56.0208C12.5381 53.2927 16.2161 43.2575 14.6085 42.7216C14.3893 42.6485 14.3406 42.819 12.8061 43.2088C11.5638 43.5254 11.2472 43.501 11.0036 43.5985C9.15243 44.3292 12.5381 52.1723 10.4434 58.6027C8.66528 64.0587 4.86552 62.6704 3.42843 68.2726C2.40541 72.3159 4.13479 76.8464 0.846536 79.745C0.115812 80.3783 -0.103406 80.9141 0.0427393 81.3038C0.237599 81.8641 2.11312 81.7423 4.01301 80.9141C4.79245 80.5731 5.57188 80.1103 6.22954 79.5257C6.66797 79.136 8.15378 77.7476 8.73836 75.5068C9.56651 72.3159 8.12942 69.1495 9.34729 68.4674C9.39601 68.4431 9.39601 68.4187 9.42036 68.4431C10.1998 68.4674 10.2729 79.8667 14.8521 81.4743C19.5531 83.155 15.5828 77.4797 16.4353 72.9492C17.2878 68.4187 16.6545 64.2536 18.6275 64.7651C20.6004 65.2766 25.204 78.6002 28.5897 77.3092C31.9754 76.0183 26.836 71.4391 26.5193 67.4201C26.2027 63.4011 26.9821 64.1075 28.6628 65.0818C30.3434 66.0561 31.8779 75.4093 36.5789 74.1671C37.1148 74.0209 37.6263 73.8504 38.1135 73.6799C41.7184 72.2672 43.4234 70.002 40.7928 70.2455Z" fill="#2BB22B"/>
<path d="M64.127 97.2089C66.5384 94.6514 73.8457 97.7691 77.4749 99.8395C83.272 103.152 86.6333 107.829 87.1936 111.263C87.291 111.921 87.5589 113.601 86.5846 114.917C86.0244 115.647 84.977 116.427 84.0514 116.183C83.3694 116.013 83.0041 115.331 82.8823 115.112C81.7375 113.066 77.4506 106.66 74.6251 104.199C69.9972 100.132 63.786 101.715 63.3963 99.0844C63.2745 98.1588 63.9565 97.3794 64.127 97.2089Z" fill="white"/>
<path d="M34.8985 13.0296C33.9486 9.57086 31.3667 7.69534 30.6847 7.23255C26.3247 4.21222 20.9417 5.38138 18.4329 6.20953C17.6778 6.45311 17.1663 6.67233 17.0445 6.7454C14.56 7.86584 12.4653 9.61958 10.882 11.6656C7.91043 15.4654 6.64384 20.1907 7.54507 23.5277C8.30015 26.3044 10.127 28.0338 10.127 28.0338C10.3949 28.2774 11.7102 29.4709 14.0972 30.1773C20.5276 32.0284 26.8605 28.0095 27.7861 27.4005C29.4424 26.3288 32.341 24.3802 33.9729 20.6048C34.5819 19.2651 35.8241 16.4397 34.8985 13.0296Z" fill="#BC2B55"/>
<path d="M18.4329 6.20988C17.6779 6.45346 17.1664 6.67268 17.0446 6.74575C14.5601 7.86619 12.4654 9.61993 10.8821 11.666C8.3246 9.83915 6.03499 8.03669 6.27857 7.62262C6.32728 7.52519 6.52214 7.52519 6.86315 7.54954C8.76303 7.67133 9.83476 8.96228 10.4681 8.57256C10.5655 8.52384 10.7116 8.3777 10.7847 8.18284C10.8821 7.89055 10.7603 7.62262 10.7116 7.54954C10.3706 6.74575 9.22582 2.41012 10.3219 1.65504C10.3706 1.63068 10.4193 1.58197 10.5411 1.55761C11.6859 1.38711 13.1961 6.35603 14.3165 5.89324C15.51 5.40609 16.6061 0.242305 17.2881 1.09482C17.6535 1.58197 18.0919 4.09078 18.4329 6.20988Z" fill="#2BB22B"/>
</g>
<defs>
<clipPath id="clip0_552_2299">
<rect width="142.82" height="142.82" fill="white"/>
</clipPath>
</defs>
</svg>
