<svg width="143" height="143" viewBox="0 0 143 143" fill="none" xmlns="http://www.w3.org/2000/svg">
<g clip-path="url(#clip0_552_2426)">
<path d="M62.2508 58.6444C61.8316 57.8554 111.12 35.6644 108.334 22.1772C108.285 21.9553 107.964 19.5883 106.041 18.6267C102.737 16.9747 95.266 22.1279 71.4231 37.6616C40.0105 58.1266 1.10239 88.0597 0.0914665 104.506C-0.919455 120.952 6.08302 143.389 39.5174 133.699C72.9271 123.984 137.774 72.6247 136.295 67.1263C134.791 61.6278 122.832 70.8248 107.866 77.2108C92.899 83.5969 113.364 59.3841 126.309 53.5405C139.278 47.6968 152.247 34.5549 133.287 39.3876C114.326 44.2203 91.8881 61.9977 77.4146 63.3045C77.0201 63.3291 74.875 63.5511 74.7024 63.0086C73.9873 60.6662 111.441 48.8557 110.356 44.4175C110.331 44.3436 110.257 44.097 109.912 43.8258C103.92 39.2643 62.6453 59.3841 62.2508 58.6444Z" fill="#E5AE00"/>
<path d="M49.6269 103.568C50.046 104.973 51.624 110.792 49.257 117.425C45.953 126.646 37.5944 130.271 35.6959 131.109C33.822 131.923 31.0604 133.082 27.3619 133.082C18.7075 133.107 12.8145 126.819 11.4584 125.364C5.98464 119.521 1.57111 109.214 5.4422 100.56C7.14351 96.738 9.90505 94.5189 11.8283 92.9902C13.6775 91.5108 20.7046 85.8891 30.2468 87.0726C39.3944 88.1822 47.0872 95.086 49.6269 103.568Z" fill="#FF0098"/>
<path d="M20.3591 125.364C20.3838 125.734 20.2112 126.153 19.8907 126.4C19.1756 126.942 17.6962 126.523 17.0798 125.562C16.488 124.649 16.5867 123.244 17.2031 122.923C17.6469 122.677 18.3373 123.071 18.5839 123.194C18.929 123.392 19.1263 123.589 19.4961 124.033C20.0633 124.625 20.3591 124.945 20.3591 125.364Z" fill="#DFAC2C"/>
<path d="M19.1268 117.277C19.0282 117.918 17.8446 118.46 16.957 118.214C15.4036 117.819 14.7379 115.082 15.4529 114.417C15.6995 114.17 16.094 114.219 16.2666 114.244C16.7104 114.293 17.031 114.54 18.1159 115.773C19.1268 116.956 19.1514 117.104 19.1268 117.277Z" fill="#DFAC2C"/>
<path d="M30.0246 120.754C29.9013 121.346 28.9151 121.691 28.1507 121.519C27.5343 121.371 27.1891 120.927 27.1151 120.804C26.548 120.039 26.5234 118.856 26.9425 118.609C27.2384 118.437 27.4603 118.93 28.7918 119.448C29.2356 119.62 29.6054 119.694 29.852 120.089C29.9013 120.138 30.0986 120.434 30.0246 120.754Z" fill="#DFAC2C"/>
<path d="M38.1116 125.242C38.1609 125.711 37.8404 126.13 37.4706 126.352C36.8788 126.722 36.1144 126.475 35.6953 126.081C35.3254 125.735 35.2515 125.267 35.1775 124.922C35.1035 124.527 35.0295 123.96 35.3254 123.714C35.6953 123.418 36.435 123.788 36.8541 124.01C37.4706 124.355 38.0623 124.675 38.1116 125.242Z" fill="#DFAC2C"/>
<path d="M30.0244 129.039C29.8764 129.705 28.8408 130.124 28.0272 129.927C27.0162 129.68 26.3259 128.472 26.6217 127.905C26.7697 127.634 27.0902 127.584 27.4847 127.486C27.682 127.436 28.9148 127.19 29.6299 128.003C29.7285 128.102 30.123 128.546 30.0244 129.039Z" fill="#DFAC2C"/>
<path d="M21.592 23.0399C26.1782 18.4538 21.7893 6.6433 24.2056 6.02688C24.3536 5.97757 24.4769 6.00222 24.6494 6.05154C28.0027 6.71726 25.0933 17.8127 30.2218 22.2509C34.7833 26.2206 43.9063 23.4098 44.4487 25.9494C44.4734 26.0727 44.498 26.1467 44.4734 26.27C44.1775 27.848 38.2106 26.4426 33.7724 29.6233C32.6875 30.3876 32.0464 31.1766 31.6766 31.6451C25.8823 38.7955 30.715 51.4197 27.6576 52.5046C27.3863 52.6032 27.1398 52.5786 27.0658 52.5539C23.6385 51.9868 27.3863 36.9956 20.7044 32.3108C18.5593 30.8068 13.0608 28.7849 9.41166 28.9575C8.86921 28.9822 6.65012 29.1301 6.30492 28.2671C6.15698 27.8973 6.40355 27.4535 6.50218 27.3055C7.85829 24.9632 17.6716 26.9357 21.592 23.0399Z" fill="#FF73C6"/>
<path d="M116.717 105.294C119.849 102.162 117.186 94.5187 118.887 94.1242C118.986 94.0996 119.06 94.1242 119.183 94.1242C121.599 94.5434 120.07 101.718 123.646 104.751C126.703 107.365 132.349 105.935 132.695 107.71C132.719 107.809 132.719 107.858 132.719 107.932C132.522 108.992 128.454 108.055 125.421 110.225C124.681 110.743 124.237 111.285 123.991 111.606C120.046 116.463 123.325 125.093 121.254 125.833C121.18 125.857 121.032 125.907 120.859 125.857C119.208 125.586 120.366 119.89 117.531 114.639C116.619 112.937 115.682 111.236 113.758 110.348C110.8 108.992 107.076 110.373 106.707 109.313C106.682 109.263 106.608 109.041 106.83 108.647C107.767 107.044 114.104 107.907 116.717 105.294Z" fill="#004031"/>
</g>
<defs>
<clipPath id="clip0_552_2426">
<rect width="142.82" height="142.82" fill="white"/>
</clipPath>
</defs>
</svg>
