<svg width="143" height="143" viewBox="0 0 143 143" fill="none" xmlns="http://www.w3.org/2000/svg">
<g clip-path="url(#clip0_552_2362)">
<path d="M42.1872 101.05C42.1126 101.099 42.0379 101.149 41.9633 101.199C34.1774 106.373 19.0533 109.408 14.5261 107.044C9.99878 104.656 11.4913 99.9053 13.4564 90.403C15.3967 80.9007 19.725 74.6321 26.6402 68.5875C33.5555 62.5428 48.0328 61.4483 48.0328 61.4483C46.0428 61.1996 44.1523 60.7767 42.3613 60.1797C37.9584 60.6772 25.3965 62.6175 18.7548 68.4134C10.6207 75.5276 5.52126 82.9155 3.23275 94.1093C0.944239 105.303 -0.84677 110.9 4.50138 113.711C9.84953 116.522 27.6601 112.94 36.8142 106.845C38.4062 105.776 39.9236 104.681 41.3912 103.537C45.1473 100.577 48.4557 97.2436 51.2417 93.4626C48.5552 96.2984 45.5205 98.8108 42.1872 101.05Z" fill="#FF73C6"/>
<path d="M13.3573 34.3354C9.80011 22.8928 4.45196 7.12197 15.397 4.06233C26.3421 1.00269 45.1725 12.7189 52.5356 25.1813C58.4558 35.206 60.1225 40.1313 60.5454 41.6735C59.5255 39.385 57.9086 36.1761 55.3465 31.8478C49.0779 21.251 33.0832 11.3259 23.8048 13.9129C14.5015 16.4999 19.0537 29.9076 22.0884 39.6338C24.4764 47.3202 30.6703 55.4295 39.9985 59.3348C25.8943 56.0016 16.6159 44.8575 13.3573 34.3354Z" fill="#FF73C6"/>
<path d="M93.7538 101.77C91.7389 91.2979 85.6942 81.3727 83.7042 78.3131C82.759 77.542 81.9381 76.8206 81.2665 76.1738C81.2665 76.1738 88.2812 86.1985 90.3459 96.9197C90.6941 98.7604 92.2364 107.566 88.4802 117.392C86.4902 122.591 84.749 127.193 81.0426 128.237C74.0278 130.252 64.8489 118.064 59.65 107.939C57.5356 103.81 57.2122 97.9644 57.5107 92.7407C57.8838 86.3726 59.1525 80.9498 59.2022 80.726C58.3813 82.8404 57.4112 84.8055 56.2918 86.6462C55.7943 89.4323 55.2222 93.3874 55.0232 97.6659C54.7496 103.611 55.1973 110.103 57.5853 114.755C63.7046 126.695 74.5253 141.048 82.7838 138.66C87.137 137.416 89.2016 132.018 91.5399 125.874C95.9925 114.307 94.1766 103.934 93.7538 101.77Z" fill="#FF73C6"/>
<path d="M62.261 46.3494C62.261 46.3494 62.062 45.0808 60.7188 42.046C61.3406 36.5237 63.4301 25.7031 71.6389 16.0515C79.798 6.39997 95.3698 -3.59983 102.907 1.2757C110.593 6.22585 107.832 25.5041 100.892 37.9167C98.0066 43.0659 94.4743 46.8967 91.3649 49.6081C93.1062 47.6927 94.8723 45.4042 96.3897 42.6679C102.285 32.1457 104.623 15.753 98.1061 11.5491C91.7131 7.41985 78.5045 15.9023 71.5394 24.0862C64.4749 32.3945 62.7585 41.6978 62.261 46.3494Z" fill="#FF73C6"/>
<path d="M141.265 78.7117C140.519 85.826 123.977 91.3234 110.619 90.2786C103.903 89.7563 98.1567 87.5921 93.5299 85.03C91.2165 83.7365 89.1767 82.3684 87.4355 81.0251C88.2812 81.5972 89.2016 82.1445 90.1717 82.6669C94.102 84.8559 98.9775 86.6718 104.674 87.1195C116.017 88.015 130.071 83.3385 130.718 77.2938C130.942 75.1546 129.375 73.4382 126.191 70.1298C122.932 66.7219 116.49 59.9559 105.271 56.4734C97.2612 53.9858 90.1717 54.2097 85.5947 54.7819C86.5649 54.0605 87.6842 53.165 88.8782 52.0953C94.301 51.4983 102.336 51.374 111.365 54.16C124.574 58.2395 132.161 66.1995 135.992 70.2293C139.673 74.1844 141.539 76.1745 141.265 78.7117Z" fill="#FF73C6"/>
<path d="M126.166 70.1309C122.907 66.723 116.465 59.957 105.246 56.4745C97.2363 53.9869 90.1469 54.2108 85.5698 54.783C86.54 54.0616 87.6593 53.1661 88.8534 52.0964C89.6742 51.3502 90.52 50.5044 91.3657 49.5841C93.107 47.6687 94.8731 45.3802 96.3905 42.6439C102.286 32.1217 104.624 15.729 98.1069 11.5251C91.714 7.42073 78.5053 15.9031 71.5403 24.0871C64.4757 32.3953 62.7594 41.6986 62.2619 46.3503C62.2619 46.3503 62.0628 45.0817 60.7196 42.0469C60.6698 41.9225 60.6201 41.823 60.5703 41.6986C59.5505 39.4101 57.9336 36.2012 55.3714 31.873C49.1029 21.2762 33.1082 11.351 23.8298 13.938C14.5265 16.525 19.0786 29.9327 22.1134 39.6589C24.5014 47.3453 30.6953 55.4546 40.0235 59.36C40.7946 59.6834 41.5657 59.9819 42.3618 60.2306C44.1528 60.8027 46.0433 61.2505 48.0333 61.4992C48.0333 61.4992 33.556 62.5689 26.6407 68.6384C19.7254 74.683 15.3971 80.9516 13.4569 90.4539C11.5166 99.9562 9.99922 104.707 14.5265 107.095C19.0538 109.483 34.1778 106.449 41.9638 101.25C42.0384 101.2 42.113 101.15 42.1876 101.1C45.5458 98.8368 48.5557 96.3493 51.1924 93.5135C53.1327 91.424 54.8491 89.1604 56.3416 86.6729C57.4361 84.8321 58.4062 82.8421 59.252 80.7526C59.2022 80.9765 57.9087 86.3992 57.5605 92.7673C57.262 97.991 57.5853 103.837 59.6997 107.966C64.8986 118.115 74.0775 130.279 81.0923 128.264C84.7987 127.194 86.54 122.617 88.53 117.419C92.2861 107.593 90.7439 98.787 90.3956 96.9463C88.331 86.25 81.3162 76.2004 81.3162 76.2004C81.9878 76.8472 82.8087 77.5686 83.754 78.3397C84.8236 79.2103 86.0425 80.1307 87.4355 81.0511C87.4355 81.0511 87.4355 81.0511 87.4603 81.076C88.3061 81.6481 89.2265 82.1953 90.1966 82.7177C94.1269 84.9067 99.0024 86.7226 104.699 87.1704C116.042 88.0659 130.096 83.3893 130.743 77.3447C130.917 75.1805 129.325 73.4642 126.166 70.1309Z" fill="#FF0098"/>
<path d="M86.4398 39.4597C85.3453 40.1064 85.594 42.196 85.6189 42.395C85.6935 42.9173 85.8676 43.5641 86.1661 44.1611C84.8229 46.3252 82.4349 49.7331 79.823 51.7729C78.5046 52.7928 76.9624 53.7878 75.4698 54.7081C74.7733 54.1111 73.8032 53.2903 72.5595 52.5191C74.3753 50.2057 77.1116 46.5988 77.7335 44.8825C78.43 42.9422 79.6489 37.7682 80.2459 35.1314C80.818 35.1563 81.3404 35.0568 81.7135 34.7832C82.5841 34.1613 82.5593 32.818 82.5344 32.5195C82.5095 31.3007 81.813 29.7086 80.5941 29.4101C78.9275 29.0121 76.7882 31.1265 77.1116 32.8927C77.2111 33.415 77.5096 33.8628 77.9325 34.211C77.1862 37.4199 75.7186 43.589 74.8977 45.0317C74.1266 46.3501 71.6391 49.3849 70.0968 51.2256C69.6242 51.0266 69.1267 50.8525 68.6043 50.7281C68.6789 49.8077 68.8282 48.9371 69.2013 48.365C69.7486 47.4944 70.4699 46.1262 71.0421 45.0068C72.9575 44.8078 74.4997 42.6935 74.1515 41.2507C73.7535 39.6587 71.1167 39.2607 70.1217 39.2358C69.0023 39.1861 68.5297 39.5343 68.4302 39.6089C67.3606 40.4049 67.5844 42.0467 67.6093 42.1711C67.6839 42.6935 67.9078 43.2158 68.2312 43.6636C67.6342 44.6586 66.9377 45.977 66.6143 47.0466C66.3904 47.8426 66.1666 49.1112 65.9924 50.355C65.8183 50.355 65.6691 50.355 65.4949 50.355C64.8233 50.355 64.1765 50.4296 63.5298 50.554C63.1318 49.758 62.6592 48.8874 62.1617 48.0167C61.3657 46.6486 60.0473 44.3601 58.1568 42.0218C56.7389 40.2806 54.4255 37.8677 50.9181 35.5294C51.0425 35.2558 51.142 34.9573 51.142 34.6339C51.1171 33.2409 49.6246 32.0469 48.1321 31.9972C46.366 31.9474 44.8735 33.5643 44.8735 35.1563C44.8735 36.0518 45.3461 37.1961 46.3411 37.6189C47.2615 38.0169 48.157 37.5941 48.754 37.3204C48.8535 37.2707 48.9778 37.2209 49.152 37.1214C51.142 38.6388 53.6046 40.8776 55.8931 43.987C57.9578 46.773 59.2761 49.5092 60.1468 51.748C59.3756 52.146 58.6543 52.6186 57.9578 53.1659C56.7389 50.4296 54.9727 46.8725 53.8534 46.4496C52.734 46.0018 50.744 44.8576 49.351 44.0118C49.3758 43.8128 49.4007 43.6885 49.4007 43.6387C49.4256 43.4148 49.5251 41.3502 48.2565 40.7034C47.361 40.2308 46.3162 40.7283 45.8685 40.9522C44.5998 41.5492 42.6098 43.2656 43.2317 45.1063C43.7292 46.574 45.6943 47.4695 47.2863 46.9222C47.5848 46.8227 47.8336 46.6735 48.0575 46.4993C49.3261 47.1212 50.9181 48.0167 51.9131 49.0366C52.9579 50.1062 54.5001 52.9669 55.6693 55.3051C53.0325 58.2404 51.2912 62.1209 51.1917 65.8522C51.1669 66.8721 51.0425 70.7277 53.729 73.9117C57.5846 78.4888 64.0522 77.9664 65.4949 77.842C72.8082 77.2201 79.823 71.5983 80.5444 65.6283C80.818 63.3896 80.1712 61.2752 80.0966 61.0513C79.624 59.509 78.8777 58.2902 78.0817 57.2952C82.7831 53.6136 85.9174 49.36 87.9572 45.8526C88.1313 45.9023 88.2805 45.9521 88.4795 45.9521C90.171 46.0765 91.6884 44.4596 91.763 43.0168C91.8625 40.6039 87.9572 38.5393 86.4398 39.4597Z" fill="#E5AE00"/>
<path d="M55.0721 97.6427C55.2711 93.3642 55.8432 89.4091 56.3407 86.623C54.8731 89.1106 53.1318 91.3742 51.1916 93.4637C48.4055 97.2447 45.0972 100.553 41.341 103.538C40.6196 105.802 40.0475 107.966 39.6744 110.031C38.555 116.349 38.3311 122.841 38.4555 128.363C36.2167 124.881 33.9033 122.095 30.197 120.329C29.1273 119.831 22.5603 116.846 16.6649 119.931C15.844 120.354 13.3316 121.722 11.6899 124.732C11.4162 125.229 9.67498 128.538 10.3964 131.622C11.9386 138.164 23.7792 140.776 31.1422 140.826C34.2019 140.851 36.9381 140.453 39.2764 139.881C39.5003 141.746 39.6744 142.841 39.6744 142.841H51.1667C51.1667 142.841 46.8882 123.264 48.2314 114.707C48.7787 111.2 51.7637 104.434 55.0721 97.6427Z" fill="#004031"/>
</g>
<defs>
<clipPath id="clip0_552_2362">
<rect width="142.82" height="142.82" fill="white"/>
</clipPath>
</defs>
</svg>
