<svg width="143" height="143" viewBox="0 0 143 143" fill="none" xmlns="http://www.w3.org/2000/svg">
<g clip-path="url(#clip0_552_2474)">
<path d="M134.797 135.054C133.166 137.525 131.609 138.835 130.571 139.576C126.32 142.666 121.624 142.814 119.103 142.839C109.216 142.987 90.6797 138.143 73.5022 123.66C67.521 118.618 64.2091 114.515 62.4296 109.226C61.5646 106.705 61.095 104.06 60.9961 101.366C61.1197 101.44 61.5398 101.712 62.0342 101.687C64.0114 101.613 65.2966 96.9172 68.1142 88.7363C70.2645 82.5079 70.7341 81.717 71.3025 81.717C73.3539 81.717 72.9338 91.8752 80.2991 99.0427C80.7687 99.4876 84.1547 102.8 85.5635 101.959C86.3297 101.49 86.2555 99.9819 85.4646 95.5331C83.8581 86.4377 82.3999 81.1486 82.3999 81.1486C80.5956 74.673 79.8295 72.9924 80.5462 72.4734C81.436 71.8307 83.438 73.9069 92.0637 79.6656C92.0637 79.6656 93.0771 80.3577 99.8986 83.6696C101.555 84.4852 103.581 85.4244 105.212 84.6088C105.41 84.5099 106.152 84.1145 106.473 83.3235C107.017 81.9642 105.954 80.3824 105.287 79.4185C101.752 74.3023 99.9975 71.7566 97.6989 69.6063C94.733 66.7887 93.2501 66.0226 93.522 65.1328C93.7938 64.243 95.4992 64.243 101.06 63.5757C105.188 63.0814 107.659 62.6859 109.785 62.241C117.323 60.6592 117.694 59.1516 117.743 58.7809C117.818 58.2618 117.521 57.8417 117.422 57.6934C117.743 57.7675 118.065 57.8417 118.361 57.9158C132.227 61.6232 137.269 82.2113 138.9 88.8351C140.111 93.803 139.938 101.465 139.543 116.789C139.394 121.114 139.098 128.553 134.797 135.054Z" fill="#BC2B55"/>
<path d="M99.528 109.101C99.5527 109.423 99.7504 112.067 98.5888 112.562C97.526 113.006 95.6723 111.524 94.9803 109.868C93.9422 107.396 95.1533 104.059 96.4633 103.886C97.7238 103.713 99.355 106.58 99.528 109.101Z" fill="#FFB000"/>
<path d="M125.035 84.0387C125.01 84.2118 124.862 85.0027 124.293 85.2498C122.958 85.8677 119.918 83.322 119.128 80.2572C118.93 79.4911 118.683 78.4777 119.103 78.1564C120.19 77.3655 125.554 81.0976 125.035 84.0387Z" fill="#FFB000"/>
<path d="M124.688 109.793C124.589 110.51 124.119 111.672 123.477 111.721C121.944 111.845 119.72 105.789 120.709 105.097C121.302 104.677 122.933 106.185 123.057 106.308C123.551 106.778 124.96 108.088 124.688 109.793Z" fill="#FFB000"/>
<path d="M134.871 128.256C134.723 128.479 134.278 129.22 133.709 129.171C132.894 129.121 132.424 127.342 132.202 126.402C131.782 124.746 131.534 122.25 132.276 121.954C132.498 121.855 132.77 122.052 133.19 122.324C134.179 122.992 134.624 123.956 134.822 124.4C135.044 124.895 135.81 126.773 134.871 128.256Z" fill="#FFB000"/>
<path d="M136.477 96.7929C136.379 96.9659 136.033 97.5097 135.637 97.485C135.019 97.4355 134.698 96.1256 134.525 95.4336C134.204 94.1978 134.031 92.3441 134.574 92.1464C134.747 92.0722 134.945 92.2205 135.266 92.4183C136.008 92.9126 136.329 93.6293 136.477 93.9506C136.601 94.2967 137.17 95.7054 136.477 96.7929Z" fill="#FFB000"/>
<path d="M70.9567 105.69C70.9072 105.987 70.4624 108.236 69.449 108.359C68.2627 108.508 66.4584 105.665 66.8786 103.293C66.9527 102.897 67.1504 101.711 68.0649 101.315C68.8805 100.969 69.7209 101.464 69.8197 101.513C71.1544 102.354 71.1791 104.504 70.9567 105.69Z" fill="#FFB000"/>
<path d="M123.427 65.3547C123.526 65.9973 123.378 66.9365 122.859 67.1342C122.093 67.4308 120.511 66.022 120.363 64.4649C120.338 64.3414 120.239 63.2539 120.758 63.0067C121.475 62.6607 123.23 63.8223 123.427 65.3547Z" fill="#FFB000"/>
<path d="M101.134 67.7773C100.418 68.148 98.2674 66.4921 98.1438 64.5148C98.1438 64.416 98.1191 64.1935 98.1438 63.9217C98.7123 63.8475 99.3549 63.7981 100.047 63.6992C100.739 64.3418 101.357 65.3799 101.431 66.4674C101.48 66.8134 101.505 67.5796 101.134 67.7773Z" fill="#FFB000"/>
<path d="M92.8303 129.738C93.0527 130.233 93.5718 131.37 93.2257 131.666C92.6078 132.21 89.1971 130.356 89.3207 128.453C89.3454 127.959 89.6172 127.341 90.0868 127.193C90.9766 126.896 92.2371 128.478 92.8303 129.738Z" fill="#FFB000"/>
<path d="M98.1437 63.9208C98.7122 63.8467 99.3548 63.7972 100.047 63.6984C100.343 63.6737 100.665 63.6242 100.986 63.5995C105.114 63.1052 107.585 62.7098 109.711 62.2649C117.249 60.6831 117.62 59.1754 117.669 58.8047C117.743 58.2856 117.447 57.8655 117.348 57.7172C115.469 54.8502 104.372 53.8862 92.8546 57.3217C88.8259 58.5328 82.301 61.0044 75.6525 66.17C72.7854 68.4191 68.3366 71.9287 64.6045 78.0829C64.6045 78.0829 60.2299 85.3246 59.6614 96.7433C59.5131 99.7833 60.1804 100.945 60.9713 101.439C61.0949 101.513 61.5151 101.785 62.0094 101.761C63.9866 101.686 65.2719 96.9904 68.0895 88.8095C70.2397 82.5812 70.7093 81.7903 71.2778 81.7903C73.3292 81.7903 72.909 91.9484 80.2743 99.116C80.7439 99.5609 84.1299 102.873 85.5387 102.032C86.3049 101.563 86.2308 100.055 85.4399 95.6064C84.8714 92.3686 84.3277 89.6252 83.8334 87.4255C83.5368 86.0167 83.2649 84.855 83.0425 83.9158C82.6223 82.161 82.3751 81.2465 82.3751 81.2465C80.5709 74.771 79.8047 73.0904 80.5215 72.5713C81.4112 71.9287 83.4132 74.0048 92.039 79.7636C92.039 79.7636 93.0523 80.4556 99.8738 83.7675C101.53 84.5832 103.556 85.5224 105.188 84.7067C105.385 84.6079 106.127 84.2124 106.448 83.4215C106.992 82.0621 105.929 80.4803 105.262 79.5164C101.728 74.4003 99.9727 71.8546 97.6742 69.7043C94.7083 66.8867 93.2253 66.1205 93.4972 65.2308C93.6949 64.4151 94.8318 64.2916 98.1437 63.9208Z" fill="#2BB22B"/>
<path d="M85.0192 87.5498C84.8462 87.6981 84.3766 87.624 83.8329 87.3768C83.5363 85.968 83.2644 84.8064 83.042 83.8672C83.6599 84.2132 84.3272 85.1524 84.6979 85.9186C84.8709 86.3388 85.3158 87.278 85.0192 87.5498Z" fill="#FFB000"/>
<path d="M115.989 133.149C116.013 133.273 116.236 134.533 115.593 134.954C114.778 135.522 112.825 134.484 111.935 132.952C111.416 132.037 111.021 130.505 111.614 130.06C112.504 129.393 115.593 130.925 115.989 133.149Z" fill="#FFB000"/>
<path d="M102.642 91.0093C102.666 91.6272 102.469 92.7147 101.9 92.8877C101.085 93.1348 99.6016 91.4789 99.2803 89.6994C99.1567 89.0567 99.0826 87.6727 99.651 87.4255C100.467 87.1042 102.617 88.9332 102.642 91.0093Z" fill="#FFB000"/>
<path d="M81.5093 32.1598C80.4713 35.7683 74.762 37.9433 69.893 39.5992C67.9157 40.2665 65.6419 41.008 63.0961 41.7742C62.0581 41.5765 60.9953 41.527 59.9572 41.5518C59.8089 40.4643 59.4877 39.4262 58.9439 38.5364C56.7195 34.9032 51.1337 33.8899 46.9815 34.9032C46.8579 34.9279 46.7591 34.9527 46.6355 35.0021C47.5747 32.0362 47.55 28.9715 46.1659 26.747C43.9415 23.1138 38.3557 22.1005 34.2035 23.1386C33.3879 23.3363 32.5475 23.6329 31.7319 24.0283C32.2015 21.6062 31.9544 19.2335 30.8421 17.4292C30.2737 16.5147 29.5075 15.7733 28.593 15.1801C28.0987 9.94037 28.8402 4.75007 29.3098 1.53703C29.3839 1.06743 29.5075 0.276528 30.0265 0.0540862C32.3004 -0.885111 38.7265 10.7313 40.5307 9.76736C41.2227 9.39662 40.9014 7.27107 42.4585 3.539C42.6315 3.14355 42.8293 2.67395 43.1011 2.67395C43.9415 2.64924 44.7324 6.92505 46.24 10.2864C48.1184 14.4881 53.4817 5.88699 60.1797 3.56372C66.9024 1.24044 58.6967 8.82816 58.0294 14.7599C57.3621 20.667 75.3551 12.6344 77.5054 14.0432C77.6537 14.142 77.6784 14.2162 77.7278 14.315C79.2108 17.1079 66.7788 24.4485 68.064 27.5132C68.5336 28.6254 70.6839 28.8232 74.2676 29.1692C78.1233 29.5399 80.669 28.9467 81.4352 30.3061C81.8306 30.9982 81.6082 31.7643 81.5093 32.1598Z" fill="#2BB22B"/>
<path d="M69.3496 45.5566C68.0644 43.4805 65.6917 42.2447 63.0965 41.7751C62.0585 41.5774 60.9957 41.528 59.9576 41.5527C59.8093 40.4652 59.488 39.4271 58.9443 38.5373C56.7199 34.9041 51.1341 33.8908 46.9819 34.9041C46.8583 34.9289 46.7595 34.9536 46.6359 35.003C47.5751 32.0371 47.5504 28.9724 46.1663 26.748C43.9419 23.1147 38.3561 22.1014 34.2039 23.1395C33.3883 23.3372 32.5479 23.6338 31.7323 24.0292C32.2019 21.6071 31.9547 19.2344 30.8425 17.4301C30.2741 16.5157 29.5079 15.7742 28.5934 15.181C25.8994 13.4262 21.9943 13.0555 18.8801 13.8216C14.0606 15.008 8.62312 19.531 9.24101 25.6358C9.38931 27.0445 9.83419 28.3298 10.4768 29.4667C7.46148 31.617 5.13821 34.9783 5.55837 39.1058C5.78081 41.3055 6.74473 43.2333 8.12881 44.7904C4.56974 46.8418 1.57914 50.5492 2.04874 55.171C2.41948 59.0514 5.13821 62.0914 8.35125 63.6485C6.2257 65.7493 4.8169 68.5669 5.16292 71.8294C5.78081 77.9095 11.9597 81.864 16.977 81.4685C19.8441 81.2461 22.3651 79.5901 24.2682 77.3163C26.5667 79.17 29.5079 80.1339 32.1278 79.9362C36.626 79.5901 40.3087 75.7098 42.014 71.3845C43.2498 71.7553 44.535 71.9283 45.7214 71.8294C50.3185 71.4587 54.1 67.4053 55.7313 62.9318C57.0165 63.3272 58.3017 63.5002 59.5375 63.4014C67.4465 62.7587 72.9087 51.3154 69.3496 45.5566Z" fill="#EE5F9D"/>
<path d="M41.8409 98.9415C38.9986 97.9529 41.1983 94.4186 41.6185 93.1086C42.0387 91.7987 34.4509 94.9623 32.7456 95.1847C31.0155 95.4072 30.8672 90.6865 29.5078 88.0172C28.5686 86.1388 27.5553 91.4032 27.0362 94.7646C25.7016 94.641 24.2681 94.6657 22.7604 94.9129C22.7604 94.9129 21.7965 95.0612 20.8326 95.333C10.8722 98.0023 6.39862 105.442 6.39862 105.442C2.09808 112.609 2.64183 122.718 8.30172 129.737C14.4807 137.399 23.7738 137.646 25.7263 137.646C27.5553 137.646 37.8617 137.399 43.9171 128.798C48.8602 121.779 47.5008 114.092 47.229 112.609C46.6605 109.693 45.5236 107.246 44.2136 105.244C46.3392 104.157 48.4647 102.921 49.0332 102.056C50.2443 100.177 44.6832 99.9549 41.8409 98.9415Z" fill="#374993"/>
<path d="M24.3665 101.14C24.6878 101.981 24.3665 102.821 24.2429 103.068C23.5015 104.749 21.3018 105.194 20.066 105.441C18.3359 105.787 14.4061 106.182 13.8871 104.823C13.2444 103.118 17.8169 98.6441 21.5489 99.3115C21.8702 99.3856 23.8228 99.7069 24.3665 101.14Z" fill="white"/>
</g>
<defs>
<clipPath id="clip0_552_2474">
<rect width="142.82" height="142.82" fill="white"/>
</clipPath>
</defs>
</svg>
