<svg width="143" height="143" viewBox="0 0 143 143" fill="none" xmlns="http://www.w3.org/2000/svg"><g clip-path="url(#clip0_552_2207)"><path d="M136.679 99.84a43.64 43.64 0 01-3.476 7.562c-13.713 23.437-49.38 34.207-84.827 29.369-18.064-2.48-29.37-13.42-36.469-26.039C3.641 96.072 1.088 79.15.213 70.665c-1.629-15.803 6.394-35.86 13.372-41.744 6.953-5.884 21.954-10.965 21.954-10.965s.803-.802 0-4.547c-.802-3.744 0-8.29 0-8.29s33.722-.268 35.861 0c2.14.267 33.454 0 33.454 0l-1.872 12.837s14.709 8.023 28.105 18.21c13.348 10.138 15.487 35.034 5.592 63.674z" fill="#067BBB"/><path d="M133.202 107.402c-13.712 23.437-49.378 34.207-84.826 29.369-18.064-2.48-29.37-13.42-36.469-26.039 4.328-1.069 10.284-2.115 13.42-.778 5.277 2.262 6.273 9.555 6.273 9.555s5.276-5.276 7.78-7.293c2.505-2.018 18.332-3.015 20.082 2.261 1.751 5.275 2.505 6.54 2.505 6.54s1.75-6.54 5.276-8.801c3.525-2.262 7.78 3.014 7.78 3.014s2.017-4.011 7.78-6.029c5.786-2.018 9.554 6.029 9.554 6.029s2.505-3.768 9.045-6.272c6.54-2.505 11.062 7.78 11.062 7.78s.754-4.766 5.276-8.291c2.65-2.066 9.919-1.702 15.462-1.045z" fill="#820002"/><path d="M86.838 116.737s-7.537-11.305-4.011-22.61c3.525-11.306 13.566-14.564 1.507-29.395 0 0 14.077 2.772 13.323 10.552-.753 7.78-7.293 14.077-9.287 21.59-1.994 7.512-3.793 1.288-1.532 19.863zm-44.468.001s-6.54-9.555-5.518-20.083c.997-10.551 7.78-18.331 5.519-28.13-2.261-9.797-13.567-12.569-2.504-25.625 0 0-3.258 5.787 1.507 10.041 4.765 4.255 11.548 11.816 9.555 18.575-1.994 6.76-5.033 10.795-6.273 18.332-1.24 7.537-5.543 17.602-2.285 26.89z" fill="#00614D"/><path d="M111.175 75.188s-1.045 1.337-3.136 3.21a1.34 1.34 0 00-.194.17c-.487.413-.997.874-1.581 1.312-.146.122-.291.219-.437.34-5.203 3.988-14.199 8.923-27.182 9.264-21.978.583-23.048-6.468-23.048-6.468s-7.731 2.505-12.254 5.422c-4.522 2.918-22.148 5.568-17.699-.972 4.425-6.516 16.265-8.729 16.265-8.729s-23.072-3.768-18.015-9.02c5.008-5.202 16.386-.34 16.63-.243-.22-.218-11.67-11.816-11.452-16.313.219-4.547 10.333-.195 17.31 7.318 6.978 7.512 10.066 16.07 10.066 16.07s10.284-7.61 20.738-11.67c-1.337-.73-2.163-1.483-2.31-1.92-.17-.487-.072-.924-.072-.924s.097-.438.51-.778c.584-.535 2.286-.34 4.23.559 0 0-1.725-2.042-1.53-3.769.218-1.726 4.862 1.24 4.862 1.24s-.851-3.5 1.191-5.251a.754.754 0 01.316-.146c.68-.17 1.629.39 4.984 5.616 1.021 1.58 1.532 2.456 1.775 3.088 11.208 1.75 20.033 12.594 20.033 12.594z" fill="#EE5F9D"/><path d="M89.78 76.866s-10.478-9.58-11.11-6.953c-.657 2.601 2.09 4.96 2.09 4.96s-5.519.316-4.668 1.847c.851 1.532 3.453 2.164 3.453 2.164-2.116.413-3.599 1.24-3.769 2.018-.121.535.049.924.049.924s.17.413.608.705c.923.632 6.32.608 11.305-3.623a19.788 19.788 0 002.042-2.042z" fill="#DDD9C9"/><path d="M100.332 74.482c-.194 1.337-1.459 2.286-2.796 2.237-1.288-.049-2.431-1.045-2.577-2.261-.194-1.605 1.337-3.185 2.99-2.99 1.41.145 2.602 1.507 2.383 3.014z" fill="#000"/><path d="M97.828 72.489c.243.534-.487 1.604-1.264 1.531-.414-.048-.851-.413-.876-.85-.048-.56.56-.973 1.07-1.07.389-.049.924.048 1.07.389z" fill="#DDD9C9"/><path d="M54.94 126.025s-6.273-18.575 0-28.373c6.273-9.798 17.821-9.798 14.32-19.84-3.5-10.04-9.798-9.287-6.272-16.823 3.525-7.537 8.047-9.288 8.047-9.288s-5.519 7.294-4.522 11.549c.997 4.254 8.534 5.032 8.29 16.58-.243 11.55-7.78 10.796-12.57 19.33-4.789 8.533-8.314 7.779-7.293 26.865zm52.248-5.008s-2.771-19.839 5.519-24.872c8.291-5.033 12.57-7.026 9.555-16.07-3.015-9.045-11.816-16.582-4.279-39.678 0 0-.243 7.78.754 14.32.996 6.54 12.059 14.806 8.533 28.64-3.525 13.81-9.554 13.81-13.055 20.349-3.526 6.516-7.027 17.311-7.027 17.311zm-85.409-5.883s-3.526-5.033-2.772-11.816 8.29-12.57 1.264-24.361c0 0 6.03.243 7.027 6.273 1.02 6.03-9.02 16.338-5.52 29.904z" fill="#00614D"/><path d="M107.844 78.567c-.486.413-.996.875-1.58 1.313-1.677-.438-2.917-1.216-2.917-1.216l.972-.924s.413.487 2.553.803c.267.048.608.048.972.024z" fill="#000"/></g><defs><clipPath id="clip0_552_2207"><path fill="#fff" d="M0 0h142.82v142.82H0z"/></clipPath></defs></svg>