<svg width="143" height="143" viewBox="0 0 143 143" fill="none" xmlns="http://www.w3.org/2000/svg"><g clip-path="url(#clip0_552_2384)"><path d="M129.951 65.916s-1.917 8.493-3.956 16.623c-2.693.8-6.576 2.475-8.299 5.605-2.766 5.023 2.597 6.382 0 9.78-2.184 2.839-3.251 6.867-.922 9.852-6.382 12.497-16.719 28.658-26.45 30.357-14.293 2.499-39.385-7.013-50.183-11.284-5.436-2.135-14.681-8.615-22.86-15.239-.46-2.767-1.504-5.679-3.663-7.377-4.926-3.883-1.02-14.342-3.18-18.831-1.6-3.325-7.158-.97-9.9.461 1.286-7.086 4.635-16.016 7.984-22.738 5.265-10.507 8.784-16.258 8.784-16.258-.995-9.537 13.54-34.119 20.578-40.889 7.037-6.77 5.508 5.509 6.77 11.77 1.262 6.26 5.023 24.824 5.023 24.824 4.368.46 8.372 1.043 11.964 1.674.655 4.222 2.063 10.29 5.096 13.492 4.974 5.218 9.294 1.675 14.268 0 4.975-1.674 10.192 2.742 12.862-2.16.34-.63.606-1.31.8-2.014 1.796.728 3.446 1.432 4.927 2.087 0 0 28.61-29.095 39.893-29.362 11.284-.243-9.536 39.627-9.536 39.627z" fill="#EACB86"/><path d="M55.162 67.396c-.704 5.411-6.455 10.022-12.449 9.294a11.11 11.11 0 01-2.16-.485c-3.834-1.287-7.085-4.635-7.522-8.979-.437-4.538 2.402-8.396 5.581-10.216 2.694-1.553 5.387-1.48 6.6-1.359.874.097 3.252.437 5.533 2.111.486.364.995.777 1.456 1.286.389.389 3.543 3.834 2.96 8.348z" fill="#51A8A3"/><path d="M49.096 69.895c-1.65 2.596-3.883 3.931-5.218 4.732a19.355 19.355 0 01-3.3 1.577c.218-3.373.8-7.522 2.33-10.264 1.771-3.155 5.29-6.213 7.862-8.178.17.776.34 1.917.388 3.3.024 1.771.122 5.387-2.062 8.833z" fill="#000"/><path d="M105.223 83.12c-.703 5.412-6.454 10.023-12.448 9.295a11.117 11.117 0 01-2.16-.486c-3.834-1.286-7.086-4.635-7.523-8.978-.436-4.538 2.403-8.396 5.582-10.216 2.693-1.553 5.387-1.48 6.6-1.36.874.098 3.252.437 5.533 2.112.485.364.995.776 1.456 1.286.388.364 3.543 3.834 2.96 8.348z" fill="#51A8A3"/><path d="M99.133 85.596c-1.65 2.597-3.883 3.931-5.218 4.732a19.336 19.336 0 01-3.3 1.577c.219-3.373.801-7.522 2.33-10.264 1.771-3.155 5.29-6.213 7.862-8.178.17.776.34 1.917.388 3.3.049 1.796.146 5.411-2.062 8.833z" fill="#000"/><path d="M79.574 112.119c-.364.534-4.1 5.8-10.337 5.8-5.97-.024-11.163-4.853-11.721-9.464-.146-1.286.097-2.329 2.208-7.377 5-1.359 16.162-7.595 15.846-11.38-.364-4.466-6.77-4.102-13.007-5.63-6.236-1.53-12.133.994-11.308 4.925.631 3.01 4.101 8.615 5.703 11.09-1.675 3.179-3.664 5.97-6.94 7.135-5.436 1.941-12.522-1.311-15.628-6.771-1.068-1.868-1.626-4.222-1.359-7.231l-3.543-.728s.558 9.488 3.543 11.721c2.985 2.232 16.671 11.72 21.597 5.144 2.548 6.528 7.644 11.332 13.395 11.963 4.66.51 9.319-1.771 10.483-2.378a20.163 20.163 0 004.393-3.057c-1.117-1.262-2.233-2.5-3.325-3.762z" fill="#E090C7"/><path d="M46.718 93.629s-14.366-14.002-15.75-15.41c-1.382-1.383-6.915-5.678-6.915-5.678l-1.723 2.208 23.538 20.238.85-1.358zm-2.598 2.79S27.16 85.693 25.51 84.625c-1.65-1.067-7.96-4.125-7.96-4.125l-1.238 2.524 27.252 14.9.558-1.505zm-.193 3.374s-19.17-5.897-21.04-6.504c-1.868-.606-8.76-1.892-8.76-1.892l-.533 2.766 30.187 7.231.146-1.601zm24.072 2.789s22.544-3.373 24.825-3.931c2.28-.534 7.595-1.893 7.595-1.893l.243 3.518s-21.015 2.961-25.043 3.446a79.407 79.407 0 01-7.499.534l-.12-1.674zm-.073 4.538s22.786-.195 25.116-.413c2.33-.218 7.765-.801 7.765-.801l-.243 3.519s-21.233-.024-25.285-.097a82.524 82.524 0 01-7.499-.534l.146-1.674zm-.534 4.005s21.622 7.231 23.879 7.765c2.28.558 7.62 1.772 7.62 1.772l-1.384 3.251s-20.068-6.891-23.878-8.299c-3.786-1.407-6.916-2.936-6.916-2.936l.68-1.553zM36.865 47.691l22.083 2.815-.752 4.029-7.353-1.335-14.754-1.31.776-4.199zM91.877 60.82l20.53 8.59-1.772 3.69-6.722-3.228-13.904-5.193 1.868-3.859z" fill="#AA4704"/><path d="M46.038 62.228c.097 1.99-1.65 3.373-3.154 3.688-.316.073-1.65.316-2.864-.558-.922-.655-1.504-1.723-1.504-2.815.024-1.965 2.014-3.858 4.173-3.664 1.65.194 3.276 1.529 3.35 3.349zm51.469 14.948c.097 1.844-1.36 3.178-2.743 3.615-.218.073-2.014.583-3.397-.606-1.286-1.117-1.14-2.767-1.14-2.936.17-1.796 1.844-3.568 3.93-3.398 1.724.146 3.252 1.553 3.35 3.325z" fill="#fff"/><path d="M23.737 41.869s2.354-11.114 6.504-18.588c4.15-7.474 6.14-14.948 8.299-13.371 2.184 1.577-1.044 14.268 0 19.704 1.043 5.436.776 12.23.776 12.23-1.795.753-4.295 1.53-5.557.413-1.48-1.31-.485-4.61-1.14-4.78-.728-.17-2.16 4.149-2.84 3.98-.752-.17.462-5.558-.679-6.019-.655-.243-2.111 1.068-5.363 6.43zm98.861 22.518s7.11-8.833 10.289-16.769c2.912-7.255 6.964-13.103 5.63-14.584-.146-.17-.316-.218-.51-.29-2.305-.923-5.193 2.159-9.391 5.726-2.96 2.524-.509.146-7.474 5.824a479.223 479.223 0 00-9.706 8.178c1.456-.34 3.324-.583 4.101.364 1.019 1.213-.17 3.81.388 4.028.412.17.995-1.213 2.718-1.917.436-.17 1.359-.558 1.698-.218.704.728-2.062 3.834-1.286 4.707.413.461 1.602.097 2.257-.194 2.014-.946 2.596-3.154 2.863-3.082.219.073.097 1.48-1.577 8.227z" fill="#E090C7"/><path d="M94.668 53.564a9.69 9.69 0 01-.8 2.014c-2.694 4.927-7.911.486-12.862 2.16-4.974 1.675-9.294 5.218-14.269 0-3.033-3.203-4.464-9.27-5.095-13.492a185.82 185.82 0 018.93 1.796c5.144 1.165 8.954 2.28 10.143 2.645a148.882 148.882 0 0113.953 4.877zm-77.386 58.071C9.202 105.083 2.14 98.385.757 95.522-.238 93.41-.19 89.94.538 85.888c2.743-1.432 8.275-3.785 9.901-.461 2.16 4.465-1.747 14.924 3.18 18.831 2.159 1.698 3.178 4.635 3.663 7.377zM125.996 82.54c-1.165 4.682-2.402 9.22-3.3 11.962-.801 2.403-2.912 7.45-5.897 13.298-2.354-3.009-1.262-7.013.922-9.852 2.597-3.397-2.766-4.756 0-9.78 1.699-3.13 5.581-4.804 8.275-5.629z" fill="#AA4704"/></g><defs><clipPath id="clip0_552_2384"><path fill="#fff" d="M0 0h142.82v142.82H0z"/></clipPath></defs></svg>