<svg width="144" height="144" viewBox="0 0 144 144" fill="none" xmlns="http://www.w3.org/2000/svg">
<path d="M80.4623 1.58377C75.6998 1.32183 72.2232 3.70305 64.2938 10.0133C43.0295 26.9676 29.9327 39.2071 29.9327 39.2071C6.33484 61.281 1.45333 63.8289 1.90576 70.282C2.12007 73.3776 3.28687 73.1871 18.5505 92.3321C29.0755 105.5 28.7898 105.977 34.719 112.263C41.6483 119.621 47.4347 124.336 54.1498 129.813C64.4843 138.242 69.6515 142.457 72.8423 142.79C78.9859 143.457 82.1767 139.766 107.251 116.716C107.251 116.716 110.799 113.454 131.968 91.332C138.207 84.8074 142.541 80.1403 142.207 73.9729C141.945 69.4486 139.159 65.5196 135.421 60.2332C132.135 55.5661 127.468 50.7798 127.063 50.3512C126.158 49.4225 125.467 48.7558 125.229 48.5415C118.728 42.1836 107.537 27.8486 104.251 23.7291C92.7017 9.22749 86.9154 1.96476 80.4623 1.58377Z" fill="#006666"/>
</svg>
