<svg width="144" height="144" viewBox="0 0 144 144" fill="none" xmlns="http://www.w3.org/2000/svg">
<path d="M52.5149 33.659C55.9676 49.0179 43.1567 61.1383 41.9899 62.186C40.3945 63.6386 28.2979 74.7113 16.5822 70.4727C2.8426 65.4721 2.50923 43.9697 2.4616 40.7074C2.39017 35.7545 2.24729 26.6582 8.74803 20.4432C13.6533 15.7522 19.8921 15.1093 23.583 14.7045C27.0358 14.3473 35.6796 13.4186 43.3472 19.1812C50.086 24.277 52.0148 31.5159 52.5149 33.659Z" fill="#66CC66"/>
<path d="M80.613 124.241C77.6841 134.861 61.9204 139.719 52.3955 134.433C46.9187 131.385 45.1566 125.86 44.8947 125.003C41.8943 115.026 49.038 102.358 58.7058 100.667C64.7064 99.6191 69.6832 103.096 71.3977 104.31C76.9697 108.191 82.8037 116.311 80.613 124.241Z" fill="#66CC66"/>
<path d="M118.593 13.8708C120.641 19.2047 117.736 26.0864 112.807 29.0868C108.854 31.468 104.687 30.6822 100.901 29.944C93.9477 28.5867 83.3274 23.8481 82.875 16.4425C82.7083 13.7755 83.9227 11.7515 84.2561 11.2276C88.4232 4.48876 99.8769 5.727 102.449 6.01274C107.783 6.56042 116.141 7.46529 118.593 13.8708Z" fill="#6666CC"/>
<path d="M134.429 36.7533C135.524 42.0873 131.738 48.5642 126.38 48.9214C120.999 49.2785 115.951 43.3493 116.784 37.6106C117.475 32.8005 122.213 28.6095 127.119 29.3239C131.048 29.8954 133.762 33.4434 134.429 36.7533Z" fill="#66CC66"/>
<path d="M72.7079 19.0138C75.6368 22.538 73.0413 30.658 68.1121 31.5867C65.1118 32.1582 61.278 30.0389 60.2541 26.5385C59.0635 22.419 62.3258 18.2995 66.0643 17.347C68.2074 16.8231 71.1363 17.1327 72.7079 19.0138Z" fill="#6666CC"/>
<path d="M138.311 64.6152C141.906 71.9493 138.549 82.4267 133.596 83.6411C130.453 84.4031 127.143 81.379 126.309 80.617C122.88 77.4738 122.356 73.3304 122.094 71.0445C121.714 67.5917 121.618 58.6859 126.309 56.9238C130.31 55.4237 136.001 59.9003 138.311 64.6152Z" fill="#6666CC"/>
<path d="M140.406 117.764C139.977 119.24 136.81 129.765 126.19 135.218C117.832 139.505 103.902 141.124 96.4245 132.671C89.9 125.336 92.1859 114.859 92.4955 113.525C94.3052 105.739 99.7106 101.453 105.854 96.595C112.76 91.142 118.403 86.6415 125.523 87.8559C134.214 89.3323 138.62 98.1428 139.263 99.4525C143.311 107.525 141.096 115.288 140.406 117.764Z" fill="#66CC66"/>
<path d="M114.14 61.3758C115.831 79.7826 100.925 98.4276 85.3514 98.6895C71.0641 98.9276 60.42 83.6164 58.896 81.4733C57.2292 79.0682 54.6336 75.2821 53.3478 69.6386C52.9192 67.7336 49.8236 53.1129 60.1819 41.564C67.7065 33.1583 79.2555 29.8246 89.5661 32.0867C104.115 35.3014 112.997 48.9458 114.14 61.3758Z" fill="#6666CC"/>
<path d="M43.6089 85.9735C47.2998 102.047 38.7512 124.192 24.321 127.288C23.059 127.55 19.1061 128.359 15.0342 126.502C4.55688 121.74 -0.372248 102.475 7.08097 89.5692C14.0579 77.4964 31.5837 71.591 39.1798 77.2345C42.0373 79.3776 42.8469 82.6637 43.6089 85.9735Z" fill="#6666CC"/>
</svg>
