<svg width="144" height="144" viewBox="0 0 144 144" fill="none" xmlns="http://www.w3.org/2000/svg">
<path d="M75.2175 108.753C75.3365 113.039 76.932 128.684 76.932 128.684L64.9068 130.851C64.621 127.66 64.2877 123.969 64.2401 122.397C64.1448 119.397 62.5018 98.371 61.0968 85.7981C59.6919 73.2491 55.0009 67.2961 51.4053 64.1052C47.7858 60.9144 32.2126 60.2476 25.9024 66.2959C19.5922 72.3442 17.9015 76.1542 16.8776 87.4174C15.8536 98.6805 17.5681 114.873 18.592 128.803C18.9254 133.446 19.2112 136.732 19.4017 139.066L11.7341 140.447C11.7341 140.447 11.2817 137.852 9.80534 117.897C8.32898 97.9424 5.87632 74.7969 7.35268 58.676C8.82904 42.5552 11.2341 37.0784 20.2827 28.4107C29.3314 19.7431 51.6434 20.6956 56.8106 25.2675C61.9779 29.8394 68.6929 38.3404 70.717 56.3424C72.741 74.3207 75.0984 104.467 75.2175 108.753Z" fill="#006699"/>
<path d="M132.414 87.0125L124.96 86.941C125.746 80.607 126.508 73.7015 126.841 68.2008C127.627 55.6994 128.723 54.9136 127.913 40.1739C127.103 25.4341 114.673 22.3861 106.625 28.1011C98.5764 33.816 95.7904 44.6982 93.7187 51.1037C91.7423 57.152 89.3849 75.6064 88.099 86.5839L80.1934 86.5124C80.1934 86.5124 80.9315 80.1308 82.2174 69.0105C83.5033 57.8902 86.194 36.6258 88.8848 29.9822C91.5756 23.3386 95.0284 12.004 106.244 6.33671C117.459 0.669402 135.223 4.40792 137.033 19.9573C138.843 35.5067 137.295 36.2925 136.747 49.413C136.2 62.5335 132.842 83.2263 132.414 87.0125Z" fill="#9933CC"/>
</svg>
