<svg width="144" height="144" viewBox="0 0 144 144" fill="none" xmlns="http://www.w3.org/2000/svg">
<path d="M17.9412 136.065C17.9412 136.065 19.6081 124.111 20.2748 118.896C20.9178 113.681 22.5608 102.561 22.5608 102.561C22.5608 102.561 21.8226 100.918 17.9412 91.7978C14.0598 82.6777 6.86856 73.8434 6.22563 64.0566C5.5827 54.2698 11.7739 42.1731 19.3938 30.0527C26.7994 18.2419 37.753 -0.474523 46.3968 1.62095C49.0876 2.26388 51.1355 6.31196 55.0645 14.3843C61.97 28.5049 64.5655 40.1253 65.399 44.0781C67.7802 55.4604 68.947 61.1515 67.7326 65.771C65.137 75.5102 57.1361 81.6776 46.3968 89.9643C34.6098 99.0605 29.4902 97.5842 28.3948 104.156C27.7042 108.323 25.966 121.706 25.6326 127.468C25.2754 133.255 24.2515 142.256 24.2515 142.256L17.9412 136.065Z" fill="#66CC66"/>
<path d="M52.9922 133.517C55.7544 128.826 57.9451 124.801 59.5405 121.801C64.4935 112.395 66.0651 108.18 66.9938 105.394C68.1606 101.846 68.7559 100.084 68.9702 97.6316C69.6369 90.3689 66.4937 87.7019 66.1842 83.1062C65.3269 70.0333 88.4724 58.0796 95.3541 54.5315C100.998 51.6264 105.403 50.1263 109.141 48.8642C120.476 45.0781 139.335 40.7919 141.717 45.6972C141.859 46.0068 142.121 46.4592 142.002 47.3879C141.431 51.936 140.835 55.5555 140.359 56.6746C137.383 63.6516 138.621 66.7472 132.501 81.2488C126.239 96.0362 123.119 103.442 118.285 106.847C110.546 112.324 97.8068 116.467 88.0914 112.133C82.6146 109.704 78.4951 104.823 74.6613 106.537C74.1136 106.776 73.4231 107.228 71.1847 111.252C67.9939 116.967 67.7796 118.967 64.684 125.23C63.5172 127.587 63.1124 128.159 60.7788 132.802C59.731 134.898 58.8738 136.636 58.3261 137.779C56.5402 136.374 54.7543 134.945 52.9922 133.517Z" fill="#6666CC"/>
</svg>
