<svg width="144" height="144" viewBox="0 0 144 144" fill="none" xmlns="http://www.w3.org/2000/svg">
<path d="M2.56313 124.049C-1.05633 118.906 2.22976 112.881 13.1596 83.9257C25.661 50.7791 29.6852 36.5632 33.1142 37.2062C34.4953 37.4681 35.0906 39.9684 36.4479 49.6361C40.3769 77.4012 40.1626 89.974 42.4248 90.3074C44.9251 90.6646 49.7113 75.7819 52.4259 63.8996C52.4259 63.8996 61.3317 24.8714 67.761 18.204C67.9038 18.0373 68.2134 17.7754 68.5944 17.7754C71.4995 17.7754 73.3568 33.4915 76.2619 50.2076C80.0243 71.8053 82.977 88.712 86.9536 88.8072C90.5969 88.9025 97.7644 54.2795 101.17 42.7306C105.027 29.6101 107.099 29.3481 107.646 29.3957C109.051 29.491 109.932 32.2056 110.218 33.1105C116.552 52.4698 125.863 70.829 131.197 90.4741C139.793 122.097 144.96 126.359 141.079 131.121C135.84 137.575 124.815 131.741 88.9062 129.336C73.976 128.335 59.1409 128.216 47.6158 128.121C14.2787 127.859 6.53977 129.693 2.56313 124.049Z" fill="#C10065"/>
<path d="M2.56313 124.049C-1.05633 118.906 2.22976 112.881 13.1596 83.9257C25.661 50.7791 29.6852 36.5632 33.1142 37.2062C34.4953 37.4681 35.0906 39.9684 36.4479 49.6361C40.3769 77.4012 40.1626 89.974 42.4248 90.3074C44.9251 90.6646 49.7113 75.7819 52.4259 63.8996C52.4259 63.8996 61.3317 24.8714 67.761 18.204C67.9038 18.0373 68.2134 17.7754 68.5944 17.7754C71.4995 17.7754 73.3568 33.4915 76.2619 50.2076C80.0243 71.8053 82.977 88.712 86.9536 88.8072C90.5969 88.9025 97.7644 54.2795 101.17 42.7306C105.027 29.6101 107.099 29.3481 107.646 29.3957C109.051 29.491 109.932 32.2056 110.218 33.1105C116.552 52.4698 125.863 70.829 131.197 90.4741C139.793 122.097 144.96 126.359 141.079 131.121C135.84 137.575 124.815 131.741 88.9062 129.336C73.976 128.335 59.1409 128.216 47.6158 128.121C14.2787 127.859 6.53977 129.693 2.56313 124.049Z" fill="#C10065"/>
</svg>
