<svg width="144" height="144" viewBox="0 0 144 144" fill="none" xmlns="http://www.w3.org/2000/svg">
<path d="M132.149 2.48778C130.244 1.03523 127.292 1.79722 124.434 2.77353C112.6 6.8216 100.313 11.0126 96.2406 23.3711C95.5501 25.4428 94.6452 29.1813 95.1453 34.2056C92.645 36.1344 89.8351 38.9681 87.0253 41.9922C87.5015 37.1345 87.0015 31.4196 83.6201 26.8239C81.9057 24.4903 79.9292 23.1092 75.9526 20.3231C73.0237 18.2753 67.0945 14.5129 58.6411 12.3222C53.6644 11.0364 48.4495 9.67907 46.5922 12.0127C45.2349 13.7271 46.2826 16.6322 47.497 19.6564C53.7596 35.3963 56.879 43.2543 63.6179 47.469C66.0467 48.993 70.7854 51.4219 77.929 51.9457C71.333 58.9703 63.6417 69.4953 55.5455 79.6393C55.9027 74.4245 55.2598 67.6856 50.9022 62.5184C48.5686 59.78 45.8778 58.3036 42.2345 56.2796C34.4479 51.9934 27.8043 51.3266 23.4229 50.9218C18.3747 50.4694 15.041 50.2074 13.5408 52.2077C12.1835 54.0174 12.8503 56.8511 14.6124 61.1611C19.4939 73.1624 23.0181 81.8063 32.7573 86.0686C35.3052 87.1878 40.5439 88.9737 47.9733 88.0212L48.7353 87.926C47.7113 89.1166 46.7112 90.2834 45.6873 91.4026C40.02 97.689 36.4482 105.714 30.5665 111.786C28.7806 113.619 24.9469 117.406 25.8755 120.834C26.2565 122.287 27.1852 122.454 30.2808 125.525C34.7099 129.907 35.1623 131.86 37.0196 131.979C39.8771 132.169 42.306 127.788 42.9965 126.549C45.5206 122.073 48.3304 117.81 51.2832 113.619V113.762C51.3784 117.096 52.1166 126.216 58.9269 133.526C65.3086 140.36 72.8094 141.122 86.7872 142.551C90.0494 142.885 92.9069 142.956 94.4071 141.194C96.3597 138.884 94.8833 134.765 92.8117 129.24C89.6684 120.834 87.8111 115.834 82.4772 111.833C78.1433 108.571 73.8095 107.714 69.8567 106.928C64.7847 105.928 60.2127 105.976 56.5218 106.38C60.4271 101.094 64.3799 95.8316 67.9755 90.331C71.3569 85.2114 74.4286 81.3538 77.2385 78.0677C77.4052 78.8059 77.5957 79.5679 77.7623 80.3061C79.8816 87.4497 83.6678 91.474 85.6918 93.3076C93.4546 100.332 102.527 99.8321 116.791 99.0463C119.553 98.9034 122.601 98.5701 124.053 96.4031C124.815 95.284 125.458 93.1885 122.767 86.5211C119.553 78.4964 116.767 71.5194 109.718 68.2809C106.456 66.7807 103.622 66.7807 98.0742 66.8284C94.9071 66.8522 90.7876 67.0903 85.9776 67.9237C87.0729 66.5426 88.1207 65.0901 89.1208 63.5185C94.3118 55.3509 99.5029 49.8979 103.432 45.6593C108.504 45.8974 115.386 45.1593 121.482 40.8969C124.458 38.8252 126.387 36.4916 127.339 35.2534C131.411 29.8718 132.054 24.6808 133.197 14.5129C134.221 4.82138 133.078 3.20215 132.149 2.48778Z" fill="#500D59"/>
</svg>
