<svg width="144" height="144" viewBox="0 0 144 144" fill="none" xmlns="http://www.w3.org/2000/svg">
<path d="M18.869 142.314C18.869 142.314 22.298 140.028 29.4893 132.217C36.6806 124.431 41.824 119.502 49.6106 116.287C57.3972 113.072 70.6368 94.2845 81.9476 86.7122C99.8305 74.7346 99.902 72.3296 113.665 59.8996C126.095 48.6841 135.477 38.8258 141.383 32.3965C140.216 23.967 134.239 18.0616 128.048 17.8711C124.571 17.752 121.023 19.4665 118.761 21.9668C115.809 25.2767 115.618 29.3247 115.451 34.111C115.166 42.5643 117.571 47.9935 116.594 48.3983C115.547 48.8269 113.784 41.969 107.046 36.6827C104.117 34.3729 99.1638 31.063 92.0678 30.182C89.3532 29.8486 86.1623 30.2534 82.0904 32.0155C69.3985 37.54 67.2316 42.4453 67.2316 49.8985C67.2316 57.3517 81.8047 72.4249 81.8047 72.4249C81.8047 72.4249 61.0643 52.5417 51.4441 54.4943C49.2296 54.9467 45.0863 53.9466 40.9668 56.2564C37.5378 58.1613 35.7995 60.9712 34.9899 62.257C29.3226 71.52 32.5849 83.5928 34.0612 88.9982C35.3471 93.7368 38.1807 101.666 44.8958 110.001C36.0614 97.261 22.6075 92.4033 13.5589 96.5942C6.65336 99.7851 3.86733 108.619 3.55777 109.81C1.55755 117.692 4.93888 124.24 7.29629 128.836C10.7967 135.575 15.5829 139.861 18.869 142.314Z" fill="#6666CC"/>
</svg>
