<svg width="144" height="144" viewBox="0 0 144 144" fill="none" xmlns="http://www.w3.org/2000/svg">
<path d="M43.9061 142.1C43.9061 142.1 39.739 137.433 31.7619 128.789C23.7848 120.145 19.832 120.455 18.2842 109.406C16.7364 98.3573 16.3078 97.1667 23.0466 86.2131C29.7855 75.2594 30.1427 68.9492 25.9517 60.5197C21.7608 52.0902 15.0934 51.0186 12.0692 36.6598C9.04505 22.3011 10.8548 12.0618 14.2837 6.06115C17.7127 0.0604766 19.7605 2.29882 18.3318 8.25188C16.9269 14.2049 32.4763 44.8274 40.2152 48.2326C47.9542 51.6615 52.2642 55.5429 53.5977 65.1154C54.955 74.688 47.1684 81.784 44.0728 93.4996C40.9772 105.215 31.5 110.787 36.4291 119.122C41.3582 127.456 45.3825 143.648 43.9061 142.1Z" fill="#006699"/>
<path d="M58.5747 140.481C57.3841 140.601 53.3599 130.29 55.8839 119.67C56.3364 117.765 57.9318 111.383 63.0514 106.359C64.1944 105.239 64.242 105.43 65.7898 103.954C68.8854 101.025 72.4572 97.6433 73.9098 92.5713C75.41 87.3326 74.005 82.6178 73.3859 80.6414C72.5287 77.8315 71.8381 77.4505 70.0998 73.2358C70.0998 73.2358 67.7186 69.1401 66.9566 63.449C64.7183 46.4947 70.7428 19.6583 73.3859 20.0631C73.6717 20.1107 73.8622 20.4917 73.9812 20.7537C77.434 28.9451 70.9571 46.3994 75.3147 57.996C79.1009 68.0447 88.0543 65.8064 92.2452 78.1173C92.8405 79.8556 95.2455 87.5469 92.4119 95.8812C91.6499 98.1434 90.4831 100.477 80.482 110.74C67.7662 123.813 60.8607 129.075 59.4082 137.481C59.1462 138.862 59.0272 140.434 58.5747 140.481Z" fill="#9933CC"/>
<path d="M81.4104 139.363C80.5531 138.791 82.0057 134.196 84.3869 130.29C90.6495 120.099 99.0314 121.813 107.461 111.193C109.509 108.597 113.057 104.026 112.771 98.1915C112.652 95.9055 112.033 95.1197 109.58 89.4286C105.199 79.2608 105.699 78.2845 102.389 71.5218C98.7933 64.1401 98.2218 65.283 96.2216 60.592C94.8405 57.3774 90.9115 48.1621 93.507 36.9465C94.1499 34.1367 98.317 22.3972 106.675 17.1109C112.2 13.6343 117.295 16.3727 123.582 9.0624C128.487 3.34747 131.392 2.01399 132.416 2.8236C133.13 3.39509 131.249 7.08599 129.725 9.56246C125.701 16.087 121.677 18.1825 114.986 25.2071C111.176 29.2075 109.271 31.2078 108.794 32.4222C104.151 44.3521 119.7 62.6875 122.486 65.9736C124.249 68.0691 126.725 70.7122 129.035 75.2365C130.321 77.7368 132.535 82.1897 132.988 88.3809C133.13 90.3811 133.392 96.7628 130.059 103.93C128.963 106.311 125.296 113.384 117.438 117.908C116.152 118.646 116.2 118.48 111.795 120.384C100.913 125.075 95.4834 127.433 90.6733 131.124C84.8393 135.648 82.3152 139.934 81.4104 139.363Z" fill="#339966"/>
</svg>
