<svg width="144" height="144" viewBox="0 0 144 144" fill="none" xmlns="http://www.w3.org/2000/svg"><path d="M2.281 131.646a150.363 150.363 0 0111.55-28.932c6.452-12.287 10.572-19.836 18.93-23.003 3-1.143 2.333-.119 15.835-1.619 16.359-1.834 20.526-3.715 22.122-4.477.547-.262 7.477-3.714 12.62-10.215 12.073-15.24 2.072-31.694 9.192-44.624 4.357-7.93 15.978-16.05 48.529-15.74l-1.143 11.24c-8.62-.572-15.74.118-20.836.928-8.834 1.405-15.764 2.62-19.812 8.191-1.785 2.453-2.571 4.858-2.833 7.192-1.31 12.453 3.929 22.288-3.286 36.718C88.124 77.354 82.79 83.26 76.48 86.355c-.929.452-2.81 1.286-8.906 2.572-19.811 4.238-23.455.404-30.575 4.19-8.596 4.572-11.882 14.74-15.454 25.765a75.074 75.074 0 00-3.524 19.122c-5.19-2.096-10.477-4.239-15.74-6.358z" fill="#396"/></svg>