<svg width="144" height="144" viewBox="0 0 144 144" fill="none" xmlns="http://www.w3.org/2000/svg"><path d="M140.404 68.71c-1.12-7.549-2.191-14.811-7.477-20.764-5.239-5.882-11.526-7.025-13.216-7.287-.191-.024-4.501-.619-9.025.738-2.453.739-5.263 2.143-8.049 4.191-4.12-4.215-7.953-6.762-7.953-6.762a45.66 45.66 0 00-6.524-3.644l.595-4.905s6.667.19 8.43 0c1.762-.19 1.166-10.763 0-13.12-1.167-2.358-23.908-.596-30.552-.596-6.667 0-46.433-3.929-47.79-3.334-1.382.596-1.168 1.572-1.953 3.334-.786 1.762-2.548 4.524-2.548 6.882 0 2.357 6.81 2.452 6.81 2.452h10.001c-.38 2.953-.738 5.882-1.119 8.835-5.143 1.024-11.573 3.215-16.907 8.239-25.67 24.193-.857 90.343 16.716 92.844 1.048.143 2.358.119 8.049.619 8.787.786 12.954 1.524 18.693 2.214 13.168 1.548 19.764 2.334 23.669.834 5.381-2.048 8.763-6.239 15.55-14.621 4.024-4.977 7.905-9.787 11.143-15.906 2.263 1.023 4.572 1.595 6.787 1.619 7.929.143 15.978-6.477 17.169-7.477 2.452-2.001 5.024-4.144 7.191-8.001 4.929-8.763 3.405-19.05 2.31-26.384zm-17.598 26.17c-3.095 2.571-7.381 3.857-11.429 3.405 4.19-13.55 4.262-28.766-.191-40.029 2.119-.5 5.691-1 9.025.643 10.096 5.025 12.787 27.503 2.595 35.98z" fill="#00613A"/></svg>