<svg width="144" height="144" viewBox="0 0 144 144" fill="none" xmlns="http://www.w3.org/2000/svg">
<path d="M1.57715 110.372C1.57715 110.372 4.81561 105.371 7.57783 100.871C10.34 96.3705 16.5788 85.6311 16.5788 85.6311C16.5788 85.6311 25.5799 90.3698 28.3183 91.6318C31.0567 92.8939 41.2959 98.1326 41.2959 98.1326C41.2959 98.1326 44.2963 81.8926 45.5345 77.6541C46.7727 73.4155 48.5348 60.414 48.5348 60.414C48.5348 60.414 67.275 68.153 71.5136 68.915C75.7522 69.677 87.9917 75.6538 87.9917 75.6538C87.9917 75.6538 86.9916 53.437 87.9917 48.9365C88.9918 44.436 87.9917 30.1963 87.9917 30.1963C87.9917 30.1963 112.471 28.9581 117.709 28.1961C122.948 27.4341 141.688 28.1961 141.688 28.1961V33.1966L138.688 42.1977C138.688 42.1977 126.448 42.9358 123.448 41.6976C120.448 40.4594 98.731 40.1974 98.731 40.1974C98.731 40.1974 99.231 55.6754 99.4692 61.6761C99.7073 67.6767 98.731 90.1555 98.731 90.1555C98.731 90.1555 75.2283 80.4163 71.4898 79.4162C67.7513 78.416 58.0121 75.4157 58.0121 75.4157C58.0121 75.4157 55.2737 88.6553 53.2735 95.156C51.2732 101.657 47.0347 112.634 47.0347 112.634C47.0347 112.634 28.0563 102.157 25.556 101.395C23.032 100.633 18.7934 97.1324 18.7934 97.1324C18.7934 97.1324 15.293 106.372 14.5548 109.372C13.8166 112.372 12.5546 116.111 12.5546 116.111L1.57715 110.372Z" fill="#E26B13"/>
</svg>
