<svg width="144" height="144" viewBox="0 0 144 144" fill="none" xmlns="http://www.w3.org/2000/svg">
<path d="M18.7634 124.859C18.7634 124.859 17.6681 120.096 14.3582 109.095C11.0483 98.0938 2.64258 71.6623 2.64258 71.6623C2.64258 71.6623 5.57148 71.0193 7.04784 69.7097C8.52419 68.4238 12.9056 67.6856 12.9056 67.6856L24.6451 108.357C24.6451 108.357 20.6208 61.804 19.1444 53.7555C17.6681 45.6831 16.2155 31.3958 16.2155 31.3958H23.1687C23.1687 31.3958 27.574 62.5422 29.0265 66.5903C30.5029 70.6145 35.6225 105.428 35.6225 105.428C35.6225 105.428 36.7179 50.8266 37.456 41.3017C38.1942 31.7768 37.456 13.4414 37.456 13.4414H47.3619C47.3619 13.4414 49.5526 29.5623 49.9336 40.5635C50.3146 51.5648 52.5054 89.6643 53.6007 96.2603C53.6007 96.2603 59.8395 43.1114 61.6731 35.4201C63.5066 27.7287 63.8638 13.4414 63.8638 13.4414L70.6979 14.9178C70.6979 14.9178 69.7216 29.5861 68.9834 39.111C68.2452 48.6359 67.507 94.0934 67.507 94.0934C67.507 94.0934 74.4602 65.4949 77.4129 54.1365C80.3656 42.7781 85.4853 18.2753 85.4853 18.2753L95.7245 21.1566C95.7245 21.1566 93.1528 40.2063 92.0574 46.088C90.9621 51.9458 85.8186 80.9014 85.1043 85.3067C84.3661 89.7119 84.0089 95.5697 84.0089 95.5697L107.107 29.1098L113.703 31.4196C113.703 31.4196 108.94 46.8023 107.464 52.6839C105.988 58.5417 100.868 75.7818 100.13 79.806C99.3916 83.8303 96.1055 99.594 96.1055 99.594C96.1055 99.594 116.274 55.6128 119.561 46.088C122.87 36.5631 122.87 36.5631 122.87 36.5631L127.276 37.6584C127.276 37.6584 124.347 54.8747 119.584 65.5187C114.822 76.139 106.035 103.261 106.035 103.261C106.035 103.261 129.133 69.1858 130.967 64.4234C132.8 59.6609 137.92 50.8742 137.92 50.8742L141.23 55.2795C141.23 55.2795 129.871 84.5923 126.942 91.1883C124.013 97.7843 109.726 124.906 109.726 124.906C75.7937 125.406 63.8162 125.192 61.0301 124.74C60.6729 124.692 57.7917 124.192 53.7674 123.835C53.7674 123.835 52.3149 123.692 50.8147 123.597C47.0285 123.335 35.0272 123.716 18.7634 124.859Z" fill="#996699"/>
</svg>
