<svg width="144" height="144" viewBox="0 0 144 144" fill="none" xmlns="http://www.w3.org/2000/svg">
<path d="M140.421 59.2003C136.112 72.5305 121.235 72.0306 100.621 84.9323C88.0759 92.7876 67.4855 109.331 55.2027 122.09C53.5602 123.78 50.1562 127.446 44.6337 128.874C36.4452 131.017 28.6851 126.97 22.9483 123.995C17.3782 121.114 11.7367 118.163 7.40438 111.712C0.54885 101.476 2.19132 90.0502 2.81022 86.6462C2.52458 90.7881 2.92924 95.4775 4.92877 100.405C8.35654 108.831 14.6408 113.259 16.4975 114.497C24.448 119.757 32.9936 120.067 37.4925 119.567C54.2267 117.663 57.5354 99.6908 74.4124 83.9088C103.025 57.177 137.517 67.7221 140.944 52.0353C141.182 50.9641 141.254 49.8453 141.159 48.7266C141.539 51.2498 141.754 55.0584 140.421 59.2003Z" fill="#FF7300"/>
<path d="M141.159 48.751C140.35 38.2535 126.258 26.5658 115.403 21.4479C101.859 15.0447 89.4091 16.9728 78.4831 18.6629C48.1093 23.3522 29.3042 41.7527 22.8295 48.2511C8.64241 62.5335 5.35747 74.0784 4.61954 76.8397C3.92923 79.4343 3.07229 82.7906 2.81044 86.6707C2.5248 90.8126 2.92946 95.5019 4.92899 100.429C8.35676 108.856 14.641 113.283 16.4977 114.521C24.4482 119.782 32.9938 120.091 37.4928 119.592C54.2269 117.687 57.5357 99.7152 74.4126 83.9332C103.025 57.2014 137.517 67.7466 140.945 52.0598C141.183 50.9648 141.254 49.8698 141.159 48.751Z" fill="#FFF200"/>
<path d="M34.041 84.3854C34.279 85.1947 34.8741 87.7418 33.7791 90.5982C32.5413 93.7642 29.5896 96.3112 25.9476 96.8111C25.3525 96.8825 21.6867 97.3347 18.5922 94.7401C18.259 94.4545 15.8786 92.4311 15.3787 89.2176C14.5218 83.9093 18.9493 76.6967 25.0431 76.7919C29.3754 76.8634 32.9698 80.6006 34.041 84.3854Z" fill="white"/>
</svg>
