<svg width="144" height="144" viewBox="0 0 144 144" fill="none" xmlns="http://www.w3.org/2000/svg">
<path d="M77.9789 137.921C77.2171 138.611 76.4316 139.254 76.4316 139.254C76.4316 139.254 74.8844 140.516 73.5275 141.372C70.7425 143.134 63.7441 140.73 63.6965 140.706C47.6527 135.16 50.1045 136.397 45.4627 134.374C34.1082 129.494 33.4417 128.233 33.1323 127.304C31.823 123.258 34.989 116.64 36.9647 111.879C36.9647 111.879 44.6772 94.5263 49.1999 82.9338C54.3416 69.7941 53.1038 66.89 51.8183 65.3903C50.9376 64.3668 50.2949 64.462 45.3913 62.391C38.7976 59.6298 35.4889 58.2491 34.4177 56.3924C33.1561 54.1787 34.4891 50.3462 37.1551 42.8242C38.6548 38.6585 40.1544 35.1355 43.1537 28.28C46.7243 20.0676 46.153 21.4959 46.7957 20.02C53.2704 5.59485 53.4608 4.92834 54.9843 3.99999C55.1747 3.88097 55.5318 3.71434 55.9364 3.52391C55.9364 3.52391 60.4592 1.45297 66.1721 1.95285C64.2678 1.92905 63.268 2.35752 62.4587 2.8336C60.9353 3.73815 60.7448 4.42846 54.2702 18.8536C52.342 23.1384 49.4856 29.4464 45.5341 39.3488C41.1066 50.4891 40.4639 53.1551 41.8921 55.2499C43.1061 57.0113 44.6296 56.7257 53.1514 60.7248C56.7458 62.4148 58.5787 63.2956 59.2928 64.2477C61.7446 67.4375 60.2925 72.4839 56.6744 81.7912C52.1516 93.3837 44.4391 110.737 44.4391 110.737C40.3687 119.901 39.0832 123.091 40.6067 126.162C41.9873 128.899 44.7486 129.78 53.7465 132.851C71.409 138.897 70.6473 140.135 73.2419 139.92C75.0272 139.778 76.5744 139.087 77.9789 137.921Z" fill="#4E02C6"/>
<path d="M103.926 70.5804C113.995 44.9436 121.565 32.8036 115.257 23.1392C113.328 20.1875 106.925 17.1644 94.0949 11.4515C77.456 4.00084 70.0053 2.04892 66.1967 1.97751C64.2924 1.95371 63.2926 2.38218 62.4833 2.85826C60.9598 3.7628 60.7694 4.45312 54.2947 18.8783C52.3666 23.163 49.5102 29.4711 45.5587 39.3735C41.1074 50.4899 40.4647 53.156 41.8929 55.2507C43.1069 57.0122 44.6304 56.7266 53.1522 60.7256C56.7466 62.4157 58.5795 63.2964 59.2936 64.2486C61.7454 67.4383 60.2933 72.4847 56.6751 81.7921C52.1524 93.3846 44.4399 110.738 44.4399 110.738C40.3694 119.902 39.084 123.092 40.6075 126.163C41.9881 128.9 44.7494 129.781 53.7473 132.852C71.4098 138.898 70.648 140.136 73.2427 139.921C75.028 139.778 76.5514 139.112 77.9559 137.922C86.0016 131.161 89.3103 107.762 103.926 70.5804Z" fill="#ECD3EF"/>
<path d="M102.759 39.6106C101.973 38.3252 100.569 37.5635 97.7838 36.0639C95.0702 34.588 90.3094 32.0172 88.7622 33.5406C88.1909 34.1119 88.0718 35.2069 88.4289 36.0163C89.2382 37.9206 92.1899 37.2303 96.7365 39.3488C98.8788 40.3486 100.117 40.9437 100.759 42.2291C102.164 45.157 99.7358 50.1082 96.2366 51.6792C93.0469 53.1075 89.6191 51.4174 86.1437 49.7987C81.3353 47.5612 74.4322 44.5857 65.3391 41.2531C68.8145 39.4202 71.5757 38.3728 73.6467 37.7301C74.8607 37.3493 77.3839 36.6114 77.5267 35.2545C77.5743 34.7308 77.2887 34.1833 76.884 33.8501C75.6462 32.8503 73.242 33.9453 68.6716 36.1829C60.2689 40.3248 59.9118 40.777 59.6976 41.4197C59.3881 42.3005 59.5547 42.8004 64.625 52.3457C66.1008 55.1308 67.1958 57.1303 68.7907 57.1541C69.5048 57.1541 70.3379 56.7733 70.6474 56.1306C71.2901 54.8214 69.5524 52.917 67.9813 50.7985C66.934 49.3941 65.6485 47.4183 64.3393 44.8237C71.1472 47.4897 76.646 49.7273 80.4308 51.2984C89.7143 55.1308 94.5703 57.3446 98.3075 55.0356C100.283 53.8216 101.235 51.7506 102.045 50.013C102.687 48.6561 105.115 43.4669 102.759 39.6106Z" fill="#FA0018"/>
</svg>
