<svg width="144" height="144" viewBox="0 0 144 144" fill="none" xmlns="http://www.w3.org/2000/svg">
<path d="M75.999 1.89829C72.238 1.75547 57.6938 1.49363 41.8404 9.92022C38.8649 11.4913 26.3678 18.442 16.4178 33.2005C2.01639 54.6002 3.3018 77.1901 4.32537 85.6643C5.22992 93.3292 6.70576 105.707 15.5132 117.562C24.0826 129.13 35.9132 135.224 46.7678 138.39C47.8389 135.272 48.9339 132.13 49.9813 129.106C51.8856 123.584 53.8137 118.061 55.7181 112.563C51.2191 110.587 46.4821 107.707 42.0784 103.422C34.1517 95.6858 31.319 87.2592 30.6763 85.2835C27.2962 74.6431 29.0815 65.7642 29.5813 63.4791C32.6997 49.5776 42.1736 41.8413 44.792 39.7703C47.3391 37.747 54.9087 31.915 66.1442 30.8201C68.0723 30.6296 69.8814 30.6058 71.5715 30.701C73.6424 24.1312 76.0704 16.5377 77.094 13.8003C77.9509 11.5389 79.0935 6.8019 80.1409 2.20774C78.8079 2.06492 77.4034 1.9459 75.999 1.89829Z" fill="#DD00C1"/>
<path d="M140.436 68.7152C128.32 69.2151 126.368 70.3101 115.514 70.3339C114.966 43.9591 93.614 32.8427 71.6191 30.7003C75.6658 17.2511 77.4987 14.4899 80.1886 2.20703C115.561 7.25346 140.746 34.1281 140.436 68.7152Z" fill="#04B25F"/>
<path d="M140.436 68.7168C142.174 127.822 94.185 151.507 46.7676 138.415C49.7907 129.75 52.7424 121.228 55.7179 112.587C93.5899 128.393 116.584 100.352 115.49 70.3355C126.344 70.3117 128.344 69.2167 140.436 68.7168Z" fill="#FC5832"/>
<path d="M67.1438 16.7529C66.9296 17.7526 65.9774 18.8476 64.7158 18.7048C63.6923 18.6096 62.8829 17.705 62.7639 16.7529C62.5973 15.3722 63.8589 14.1582 65.0729 14.1344C65.6442 14.1106 66.2869 14.3487 66.7392 14.8724C67.3581 15.6341 67.1914 16.5624 67.1438 16.7529Z" fill="#ECD3EF"/>
<path d="M47.5059 16.4663C47.244 17.3233 46.3633 18.5611 45.0779 18.4182C44.0305 18.323 43.2926 17.3471 43.1259 16.4663C42.8403 15.0143 43.9591 13.3242 45.3159 13.2766C46.0776 13.229 46.7917 13.7289 47.1964 14.2763C47.8391 15.1571 47.6249 16.1569 47.5059 16.4663Z" fill="#ECD3EF"/>
<path d="M37.5324 34.8421C37.2467 36.1037 35.7947 37.0558 34.4379 36.675C33.3905 36.3655 32.7478 35.3181 32.724 34.3184C32.7002 32.9616 33.8428 31.7237 35.033 31.6999C35.8899 31.6761 36.5088 32.2474 36.6993 32.4379C36.7707 32.5093 37.818 33.5328 37.5324 34.8421Z" fill="#ECD3EF"/>
<path d="M20.6788 43.6508C20.2266 44.6743 19.0126 45.6027 17.8224 45.2694C16.8226 44.9838 16.2989 43.9364 16.2037 43.1271C16.0371 41.6512 17.1797 40.0088 18.5603 39.9374C19.6077 39.8898 20.3218 40.7943 20.417 40.8895C21.0597 41.7465 21.0359 42.8414 20.6788 43.6508Z" fill="#ECD3EF"/>
<path d="M24.416 61.5508C24.1779 62.8124 22.7497 63.9073 21.4881 63.5027C20.5598 63.217 20.0361 62.2173 20.0123 61.3127C19.9885 60.2177 20.7502 59.1466 21.8214 58.9085C22.4641 58.7657 23.202 58.9323 23.7495 59.4322C24.3922 60.0511 24.535 60.9081 24.416 61.5508Z" fill="#ECD3EF"/>
<path d="M12.6573 81.5228C12.3003 82.594 11.1339 83.5937 9.82467 83.3557C8.84871 83.1891 7.99177 82.3559 7.87275 81.4038C7.70612 79.9755 9.25338 78.9044 10.4436 78.7139C10.7054 78.6663 11.5147 78.5235 12.1337 79.0234C12.8954 79.6185 12.9192 80.7849 12.6573 81.5228Z" fill="#ECD3EF"/>
<path d="M25.5115 94.4484C25.3925 94.6865 24.8212 95.9005 23.6072 95.9957C22.5598 96.0909 21.5124 95.3292 21.2744 94.377C20.9173 92.9488 22.4408 91.4491 23.8214 91.4729C24.5117 91.4967 25.3687 91.8776 25.7019 92.6631C26.0114 93.4011 25.6781 94.139 25.5115 94.4484Z" fill="#ECD3EF"/>
<path d="M23.3682 113.491C23.4396 114.728 22.0828 116.228 20.5118 116.014C19.4168 115.847 18.4884 114.871 18.417 113.729C18.3456 112.3 19.5834 111.134 20.726 111.11C21.5115 111.086 22.1304 111.61 22.3923 111.848C22.6065 112.039 23.3206 112.657 23.3682 113.491Z" fill="#ECD3EF"/>
<path d="M45.3637 114.991C45.3161 116.205 44.1259 117.491 42.65 117.396C41.3408 117.324 40.1982 116.205 40.222 114.825C40.2697 113.349 41.6027 112.397 42.7691 112.373C43.7688 112.373 44.4829 113.063 44.6258 113.23C44.7686 113.373 45.4113 114.039 45.3637 114.991Z" fill="#ECD3EF"/>
<path d="M44.6255 131.772C44.4351 132.7 43.602 133.771 42.388 133.7C41.2454 133.628 40.436 132.581 40.3884 131.534C40.3408 130.344 41.293 129.296 42.388 129.201C43.0783 129.13 43.8162 129.463 44.2447 130.058C44.7922 130.772 44.6493 131.581 44.6255 131.772Z" fill="#ECD3EF"/>
</svg>
