<svg width="144" height="144" viewBox="0 0 144 144" fill="none" xmlns="http://www.w3.org/2000/svg">
<path d="M7.90812 37.6281C6.31326 37.6519 4.7422 37.6757 3.21875 37.7233C3.71863 33.4862 4.48036 31.7723 6.05142 30.0346C11.3597 24.0837 19.9053 24.1075 35.0446 24.5121C51.1599 24.9406 67.2989 24.8216 83.438 25.4167C120.096 26.7259 132.069 24.6073 137.378 33.0101C138.116 34.2003 138.687 35.5809 139.163 37.271C127.689 37.2948 119.358 37.9613 104.766 38.3898C85.3423 38.9849 70.5839 38.7231 55.1827 38.4612C32.807 38.0566 26.1419 37.3424 7.90812 37.6281Z" fill="#FFF200"/>
<path d="M138.806 114.538C134.522 119.537 121.406 119.489 95.3404 119.18C88.1278 119.085 88.3421 118.918 75.4404 118.68C59.0632 118.347 54.8024 118.561 44.2572 118.323C18.1681 117.799 10.7175 120.084 6.05191 114.538C4.52846 112.729 3.90955 110.872 2.9812 101.636C1.88622 90.52 1.57677 81.3793 1.69579 71.6197C1.7434 67.692 1.86242 63.6454 2.02904 59.3369C2.05285 58.6703 2.07665 58.0038 2.10046 57.3373C13.812 57.6468 20.4295 56.8851 34.8785 56.409C52.5648 55.8139 50.0416 56.7184 71.5365 56.2423C92.8886 55.7901 94.2931 54.9093 110.718 54.9569C122.572 55.0045 124.738 55.4568 139.568 55.7187C140.282 55.7425 140.996 55.7425 141.687 55.7663C141.758 56.5518 141.806 57.3373 141.853 58.1705C142.044 61.3364 142.163 65.0498 142.353 70.2629C142.353 70.3343 142.353 70.4295 142.353 70.5009C142.448 73.0479 142.639 78.4038 142.663 82.2362C142.782 100.66 142.829 109.873 138.806 114.538Z" fill="#FFF200"/>
<path d="M141.687 55.7668C140.996 55.743 140.282 55.743 139.568 55.7192C124.762 55.4573 122.572 55.005 110.718 54.9574C94.2932 54.9098 92.8888 55.7668 71.5366 56.2428C50.0417 56.6951 52.5411 55.8144 34.8786 56.4095C20.4534 56.8855 13.8359 57.6473 2.10059 57.3378C2.172 55.7192 2.24341 54.0529 2.31482 52.3628C2.31482 52.339 2.31482 52.3152 2.31482 52.2914C2.52906 47.1259 2.71949 43.3173 2.95753 40.4132C3.02894 39.4135 3.12415 38.5327 3.21937 37.7472C4.74282 37.7234 6.31388 37.6758 7.90874 37.652C26.1426 37.3663 32.8077 38.0805 55.2072 38.4851C70.5845 38.747 85.3667 39.0088 104.791 38.4137C119.359 37.9614 127.69 37.3187 139.187 37.2949C139.449 38.2233 139.663 39.2468 139.878 40.3894C140.401 43.2935 140.806 46.9831 141.354 51.7915C141.377 51.9105 141.377 52.0296 141.401 52.1486C141.496 53.315 141.592 54.5052 141.687 55.7668Z" fill="#FF7300"/>
<path d="M118.097 73.7868C115.717 76.1672 108.909 75.9054 106.743 75.834C93.8884 75.4531 35.3069 75.3817 20.5485 75.8578C18.1681 75.9292 10.7889 76.2386 8.28948 73.6916C7.21831 72.5966 7.48015 69.3593 7.45635 68.8832C7.40874 66.9551 7.64678 65.4316 7.71819 65.1222C8.83697 60.5994 37.4017 63.8606 62.8719 62.5038C78.8443 61.6468 94.8882 62.6704 110.884 63.0989C112.503 63.1465 116.55 63.2893 118.335 64.9794C119.24 65.8363 119.24 66.8599 119.216 68.8832C119.168 71.4302 119.144 72.7633 118.097 73.7868Z" fill="white"/>
<path d="M75.3216 93.7101C73.8934 94.3052 69.8229 94.2575 68.5137 94.2337C60.8012 94.1385 25.6428 94.1147 16.7878 94.2337C15.3595 94.2575 10.932 94.329 9.43235 93.6863C8.78964 93.4006 8.93247 92.5913 8.93247 92.4723C8.90866 91.9724 9.05149 91.5915 9.09909 91.5201C9.7656 90.3775 26.9044 91.1868 42.2104 90.8536C51.8033 90.6394 61.4201 90.9012 71.0131 90.9964C71.9891 90.9964 74.4171 91.044 75.4882 91.4725C76.0357 91.6867 76.0357 91.9486 76.0119 92.4723C75.9405 93.115 75.9405 93.4482 75.3216 93.7101Z" fill="white"/>
<path d="M75.3216 99.6612C73.8934 100.256 69.8229 100.209 68.5137 100.185C60.8012 100.09 25.6428 100.066 16.7878 100.185C15.3595 100.209 10.932 100.28 9.43235 99.6374C8.78964 99.3518 8.93247 98.5425 8.93247 98.4234C8.90866 97.9235 9.05149 97.5427 9.09909 97.4713C9.7656 96.3287 26.9044 97.138 42.2104 96.8048C51.8033 96.5905 61.4201 96.8524 71.0131 96.9476C71.9891 96.9476 74.4171 96.9952 75.4882 97.4237C76.0357 97.6379 76.0357 97.8997 76.0119 98.4234C75.9405 99.0661 75.9405 99.3994 75.3216 99.6612Z" fill="white"/>
<path d="M54.6595 105.636C53.6835 106.231 50.8508 106.183 49.9701 106.16C44.6618 106.064 20.4294 106.041 14.3356 106.16C13.3597 106.183 10.2889 106.255 9.26538 105.612C8.8131 105.326 8.93212 104.517 8.93212 104.398C8.90832 103.898 9.00353 103.517 9.05114 103.446C9.50342 102.303 21.334 103.113 31.8553 102.779C38.4728 102.565 45.0903 102.827 51.7078 102.922C52.3743 102.922 54.0406 102.97 54.7785 103.398C55.1593 103.613 55.1593 103.874 55.1355 104.398C55.1117 105.017 55.0879 105.374 54.6595 105.636Z" fill="white"/>
<path d="M100.696 72.3347C100.268 72.7632 99.6963 72.787 98.5061 72.8346C97.3159 72.8822 96.6732 72.906 96.2685 72.4776C96.0067 72.1919 95.9829 71.9063 96.0305 69.8353C96.1019 67.6692 96.1257 67.3121 96.4589 67.0027C96.7922 66.6932 97.2445 66.6694 98.149 66.598C99.3154 66.5266 100.149 66.479 100.672 67.0027C101.077 67.3835 101.077 68.169 101.077 69.7401C101.101 71.1683 101.101 71.9301 100.696 72.3347Z" fill="#4E02C6"/>
<path d="M107.528 72.2625C107.1 72.6909 106.528 72.7147 105.338 72.7623C104.148 72.8099 103.505 72.8338 103.101 72.4053C102.839 72.1196 102.815 71.834 102.863 69.7631C102.934 67.5969 102.958 67.2398 103.291 66.9304C103.624 66.6209 104.077 66.5971 104.981 66.5257C106.147 66.4543 106.981 66.4067 107.504 66.9304C107.909 67.3113 107.909 68.0968 107.909 69.6678C107.933 71.1199 107.909 71.8816 107.528 72.2625Z" fill="#4E02C6"/>
<path d="M114.36 72.2625C113.932 72.6909 113.36 72.7147 112.17 72.7623C110.98 72.8099 110.337 72.8338 109.933 72.4053C109.671 72.1196 109.647 71.834 109.695 69.7631C109.766 67.5969 109.79 67.2398 110.123 66.9304C110.456 66.6209 110.909 66.5971 111.813 66.5257C112.979 66.4543 113.813 66.4067 114.336 66.9304C114.741 67.3113 114.741 68.0968 114.741 69.6678C114.765 71.1199 114.741 71.8816 114.36 72.2625Z" fill="#4E02C6"/>
</svg>
