<svg width="144" height="144" viewBox="0 0 144 144" fill="none" xmlns="http://www.w3.org/2000/svg">
<path d="M118.56 80.1958C118.465 81.0051 118.322 82.1001 118.084 83.4093C117.727 85.4089 117.18 87.9321 116.251 90.7171C114.799 95.1447 112.419 100.286 108.515 105.285C107.848 106.118 107.158 106.975 106.396 107.785C106.063 108.165 105.706 108.546 105.325 108.927C102.112 112.26 98.6602 114.831 95.1848 116.83C94.3993 117.282 93.5899 117.711 92.8044 118.115C87.5199 120.758 82.3307 122.138 77.9746 122.829C76.7129 123.043 75.5227 123.186 74.4278 123.281C70.881 123.614 68.2863 123.519 67.3104 123.471C66.5963 123.424 65.5965 123.376 64.4063 123.233C62.8591 123.067 60.9547 122.781 58.8124 122.305C57.3842 121.996 55.8845 121.591 54.2896 121.091C52.1473 120.424 49.8859 119.544 47.5769 118.425C45.9821 117.663 44.3634 116.759 42.7685 115.735C41.9354 115.188 41.0785 114.616 40.2453 113.997C37.8411 112.212 35.4845 110.094 33.2708 107.594C31.8425 105.975 30.5809 104.309 29.5098 102.667C28.9385 101.81 28.4148 100.953 27.9387 100.096C24.8204 94.5972 23.3207 89.1937 22.5114 84.909C22.0353 82.3858 21.8211 80.2196 21.6783 78.6247C21.6069 77.8154 21.4878 76.649 21.4164 75.197C21.2498 72.3881 21.226 68.5081 21.7497 64.1282C21.9877 62.2238 22.321 60.2243 22.8209 58.1772C23.2255 56.5109 23.7254 54.8208 24.3443 53.1307C24.7252 52.0596 25.1774 50.9884 25.6535 49.9172C27.534 45.8467 30.1525 41.8239 33.8659 38.2533C34.1753 37.9438 34.4848 37.6582 34.7942 37.3963C34.7942 37.3963 34.7942 37.3963 34.818 37.3725C35.5083 36.7298 36.2225 36.1347 36.9604 35.5872C41.1023 32.3737 45.5774 30.3266 49.9811 28.9936C51.0285 28.6841 52.0759 28.3985 53.1233 28.1604C58.6696 26.875 64.0016 26.5656 68.3578 26.3275C69.0481 26.2799 69.7384 26.2561 70.4525 26.2085C72.9757 26.0657 75.6418 25.9705 78.4268 26.0657C82.2116 26.1847 86.2107 26.6132 90.2098 27.7796C92.2807 28.3747 94.3755 29.184 96.4464 30.2076C97.0891 30.5408 97.7318 30.8741 98.3745 31.2549C98.922 31.5644 99.4933 31.9214 100.041 32.2785C100.469 32.5641 100.874 32.8498 101.279 33.1354C105.778 36.3728 109.277 40.467 111.943 44.9898C112.443 45.8229 112.895 46.7037 113.347 47.5606C115.18 51.2026 116.489 55.0589 117.394 58.9389C118.132 62.1048 118.608 65.2945 118.822 68.3891C119.132 72.5547 119.013 76.5776 118.56 80.1958Z" fill="#DD00C1"/>
<path d="M109.086 73.579C112.276 71.2938 115.251 69.1515 117.941 67.1519C118.227 67.5566 118.536 67.9613 118.822 68.3659C118.607 65.2714 118.131 62.0817 117.393 58.9158C116.156 57.1781 114.894 55.4166 113.632 53.6551C112.609 52.2269 111.585 50.8224 110.562 49.418C111.49 48.7991 112.395 48.1802 113.323 47.5375C112.895 46.6567 112.418 45.7998 111.919 44.9667C110.871 45.6094 109.8 46.2759 108.753 46.9186C105.658 42.6577 102.564 38.4444 99.4691 34.2787L101.254 33.1123C100.85 32.8267 100.445 32.541 100.017 32.2554C99.4691 31.8983 98.9216 31.5412 98.3503 31.2318C98.0885 31.3984 97.8266 31.5412 97.5648 31.7079C97.1839 31.208 96.8031 30.6843 96.4222 30.1844C94.3512 29.1371 92.2565 28.3515 90.1856 27.7564C91.1377 29.1609 92.0899 30.5415 93.0658 31.9459C93.4705 32.541 93.8752 33.1123 94.2798 33.7074C91.2567 35.5403 87.9004 37.5636 84.4488 39.6822C81.878 36.2782 79.331 32.9457 76.784 29.6369C76.3793 29.1132 75.9746 28.5896 75.5461 28.0421C76.4983 27.3756 77.4743 26.7091 78.4264 26.0187C75.6414 25.9473 72.9515 26.0425 70.4521 26.1616C70.6663 26.471 70.8806 26.7805 71.0948 27.0899C69.6428 27.9945 68.1907 28.899 66.7149 29.8036C63.906 31.5651 61.0734 33.3265 58.2645 35.1118C57.479 34.1121 56.6934 33.0647 55.9079 31.9935C55.6699 31.6603 55.408 31.3032 55.17 30.97C54.4559 29.994 53.7894 29.0418 53.1228 28.0897C52.0755 28.3277 51.0281 28.6134 49.9807 28.9228C50.671 29.8036 51.3852 30.7319 52.0755 31.6603C52.623 32.3982 53.1705 33.1599 53.6941 33.9454C54.3607 34.8976 54.9796 35.8498 55.5985 36.7781C52.0279 39.0395 48.4335 41.3485 44.8391 43.6575C44.601 43.8241 44.3392 43.9669 44.1012 44.1335C43.6489 43.586 43.2204 43.0385 42.7919 42.5149C41.697 41.1818 40.6734 39.944 39.7212 38.8014C38.7215 37.6113 37.7931 36.5163 36.96 35.4927C36.2459 36.0402 35.5317 36.6353 34.8176 37.278C34.8176 37.278 34.8176 37.278 34.7938 37.3018C34.9604 37.5636 35.1509 37.8255 35.3175 38.0873C37.1266 40.8486 38.8881 43.6098 40.6496 46.3473C36.7219 48.8943 32.7943 51.4889 28.8428 54.0836C27.7955 52.6553 26.7243 51.2271 25.6769 49.7989C25.177 50.87 24.7486 51.9412 24.3677 53.0124C24.9866 53.9407 25.6293 54.8691 26.2482 55.7975C25.1056 56.5592 23.9868 57.2971 22.8443 58.0588C22.3444 60.106 22.0111 62.1055 21.7731 64.0098C24.1059 62.5102 26.4148 61.0105 28.7476 59.4871C31.3185 63.2481 33.9131 67.0329 36.5553 70.8415C32.2944 73.9122 28.0811 76.9829 24.6057 79.5062L21.416 75.2215C21.4874 76.6735 21.6064 77.8399 21.6779 78.6492C21.8207 80.2441 22.0587 82.3864 22.511 84.9335L23.1061 84.5288C26.3434 89.4086 29.4141 93.979 31.7707 97.4543C30.4853 98.3589 29.1999 99.2396 27.9145 100.144C28.3906 101.001 28.9143 101.858 29.4855 102.715C30.8424 101.858 32.223 100.977 33.5798 100.12C34.2701 101.12 34.8414 101.929 35.2699 102.525C36.7457 104.548 39.5784 108.237 42.8872 112.498C42.0302 113.022 41.1495 113.546 40.2449 114.093C41.0781 114.712 41.9112 115.283 42.7681 115.831C43.387 115.45 44.0059 115.093 44.6248 114.736C45.6008 115.974 46.6006 117.259 47.6003 118.521C49.9093 119.64 52.1707 120.497 54.313 121.187L48.1716 112.617C52.9086 109.785 57.1219 107.214 60.7639 104.976C63.4061 108.571 66.0246 112.118 68.6668 115.664C65.3581 117.902 62.0731 120.163 58.8358 122.401C60.9781 122.877 62.8825 123.163 64.4297 123.329C66.6673 121.901 68.9287 120.473 71.19 119.021C72.285 120.473 73.38 121.925 74.475 123.377C75.5699 123.282 76.7601 123.115 78.0218 122.925C76.6887 121.02 75.3795 119.116 74.0465 117.212C78.2598 114.498 82.4969 111.76 86.7578 108.975C88.7335 111.88 90.7569 114.974 92.8516 118.211C93.6371 117.807 94.4465 117.378 95.232 116.926C93.0658 113.546 90.9949 110.38 89.0906 107.452C91.8042 105.667 94.5417 103.881 97.2553 102.072C98.3027 101.358 99.3739 100.668 100.421 99.9775C102.421 102.644 104.444 105.286 106.444 107.904C107.182 107.071 107.896 106.238 108.562 105.405C106.872 102.929 105.182 100.454 103.468 97.9542C107.515 95.2406 111.538 92.5269 115.537 89.8133C115.799 90.1465 116.037 90.5036 116.298 90.8368C117.227 88.028 117.774 85.5286 118.131 83.529C117.631 83.8385 117.108 84.1717 116.608 84.4812C114.109 80.7916 111.609 77.1972 109.086 73.579ZM114.656 62.6292C114.894 62.9624 115.156 63.3195 115.394 63.6527C112.561 65.3904 109.467 67.3186 106.182 69.4609C103.801 66.0807 101.397 62.7006 98.9216 59.3204C98.5883 58.8682 98.2789 58.4397 97.9456 57.9874C100.945 55.9641 103.968 53.9407 106.967 51.8936C109.491 55.4404 112.061 59.0348 114.656 62.6292ZM57.717 61.7722L67.9765 55.0357C70.8092 59.13 73.6894 63.2243 76.5935 67.3424C73.2372 69.5323 69.857 71.7223 66.5007 73.9598C63.6918 69.937 60.8115 65.9379 57.717 61.7722ZM62.7396 76.4593C58.7406 79.1253 54.7653 81.7675 50.8377 84.4098C47.886 80.3155 44.9343 76.2212 41.9826 72.1507L53.4561 64.6049C57.3123 69.7227 60.4783 73.6742 62.7396 76.4593ZM78.9501 70.6511C81.7352 74.5549 84.544 78.4588 87.4243 82.3864C85.1153 84.0765 83.2348 85.4809 81.8066 86.5521C80.426 87.5757 78.9263 88.6707 77.3552 89.8133C74.4274 85.4571 71.6423 81.3629 68.8334 77.3162C72.2136 75.1024 75.5938 72.8649 78.9501 70.6511ZM82.5921 68.2231C86.496 65.6285 90.376 63.0338 94.256 60.4392C96.7554 63.9384 99.2549 67.4614 101.802 70.9844C102.016 71.2938 102.23 71.5795 102.445 71.8889C97.9456 74.8644 94.0894 77.5542 90.8759 79.8632C88.1622 76.007 85.401 72.1269 82.5921 68.2231ZM96.1842 36.4925C97.0649 37.7779 97.9694 39.0633 98.874 40.3725C100.921 43.3242 102.992 46.2759 105.087 49.2276C102.016 51.1557 98.9216 53.0838 95.8271 55.0357C93.6371 52.0364 91.4472 49.0609 89.2572 46.1331C88.4003 44.9905 87.5671 43.8479 86.7102 42.7291L96.1842 36.4925ZM85.1391 47.4899C87.4481 50.7748 89.7571 54.0836 92.0899 57.3923C88.1622 59.8917 84.2108 62.4149 80.2355 64.9858C80.0213 64.6763 79.807 64.3669 79.569 64.0812C76.8316 60.2964 74.0941 56.5354 71.3567 52.822L77.9265 48.4896L83.3062 44.9429C83.9489 45.776 84.544 46.6329 85.1391 47.4899ZM72.9515 29.875C75.6414 33.8026 78.355 37.7541 81.1163 41.7293C77.3076 44.0621 73.4514 46.3949 69.9284 48.5611C69.5476 48.7991 69.1667 49.0371 68.7858 49.2752C68.6192 49.0371 68.4288 48.7991 68.2621 48.5611C65.7151 45.1333 63.1919 41.7293 60.6687 38.3492C64.7868 35.5165 68.9048 32.7076 72.9515 29.875ZM57.8598 40.2535C59.6927 42.9909 61.5732 45.7284 63.4538 48.4658C64.0965 49.418 64.763 50.3702 65.4295 51.3223C60.8353 54.155 57.1695 56.4402 55.3604 57.6542C55.2176 57.7494 55.051 57.8684 54.8843 57.9636C54.0988 56.9162 53.2895 55.8689 52.4563 54.7977C50.5044 52.2507 48.6239 49.8703 46.8624 47.6565C47.8146 47.0138 48.7667 46.3711 49.7189 45.7522C52.4563 43.9193 55.17 42.0864 57.8598 40.2535ZM31.5089 57.8446C33.5084 56.5354 35.5317 55.2262 37.5313 53.8931C39.4118 52.6553 41.2685 51.4175 43.1252 50.1797C45.0295 52.9648 47.1243 55.9879 49.4332 59.1538C49.8617 59.7489 50.2902 60.3202 50.6948 60.8915C47.5765 63.0815 43.6489 65.8903 39.5546 68.842C36.8886 65.1524 34.1987 61.4866 31.5089 57.8446ZM26.4863 82.315L38.7929 74.2217C41.6732 78.3398 44.5772 82.4817 47.5289 86.6235C43.4823 89.3848 39.4594 92.1222 35.4841 94.8597L26.4863 82.315ZM46.5054 110.237L37.4599 97.6209C41.5541 95.0025 45.6722 92.3603 49.7427 89.718C50.8853 91.3129 52.0279 92.9078 53.1705 94.5026C55.0748 97.1449 57.0029 99.7871 58.9072 102.406C55.1224 104.881 50.9805 107.5 46.5054 110.237ZM61.7399 99.6681C58.8834 95.6214 56.0031 91.5986 53.099 87.5519C54.8605 86.4093 56.6458 85.2667 58.4073 84.1003C60.7163 82.6007 63.0015 81.101 65.2867 79.6014C68.0241 83.0053 71.1424 87.0282 74.6178 91.7176C70.9758 94.336 66.8339 97.1925 62.1683 100.287C62.0255 100.073 61.8827 99.8823 61.7399 99.6681ZM77.0934 109.928C75.2367 111.165 73.4038 112.403 71.5709 113.641C69.0715 110.07 66.5483 106.5 64.025 102.929C64.0727 102.905 64.0965 102.882 64.1441 102.858C68.643 100.097 72.8563 97.4781 76.9506 94.9311C79.2358 98.0732 81.6638 101.501 84.2108 105.214C81.8304 106.762 79.4738 108.333 77.0934 109.928ZM86.5674 103.62C84.2822 100.144 82.2112 97.0735 80.4498 94.4074C80.1879 94.0028 79.9023 93.5981 79.6404 93.1934C83.2586 90.932 86.7816 88.6707 90.3284 86.3379C92.804 89.6942 95.2558 93.0268 97.7314 96.3117C94.018 98.7397 90.3046 101.168 86.5674 103.62ZM100.945 94.2646C98.6122 90.8844 96.2318 87.4567 93.8276 84.0527C97.6124 81.5295 101.469 78.9111 105.515 76.0784C108.062 79.5776 110.586 83.0529 113.133 86.5045C109.086 89.0753 105.015 91.6462 100.945 94.2646Z" fill="#ECD3EF"/>
<path d="M100.374 37.0397C100.826 40.9435 92.1375 45.0616 88.1147 46.5613C82.616 48.6084 78.0932 48.5846 69.7618 48.5608C63.0253 48.537 59.0025 48.4894 53.837 47.0611C52.4326 46.6803 39.5546 43.0859 39.6975 38.7536C39.8403 34.5165 52.4088 31.1125 60.1212 30.2318C62.8825 29.9223 65.7628 29.8509 70.1427 29.7557C76.1651 29.6129 79.3072 29.5415 82.5921 29.8985C87.6624 30.4222 99.85 32.6122 100.374 37.0397Z" fill="#FC5832"/>
<path d="M40.0068 10.5693L32.2468 5.2134L28.3905 3.4043L16.679 28.2556C16.679 28.2556 14.6081 17.0678 7.82394 20.6621C3.9201 22.7331 1.80155 25.8038 2.01579 28.8507C2.27763 32.826 6.08626 34.9207 6.46712 35.1349C10.7518 37.4439 15.4174 35.1587 16.0839 34.8255C18.1072 33.8019 20.1782 31.9928 24.9866 21.3763C27.0099 16.9011 28.5096 13.0925 29.5569 10.3312C31.485 12.0213 33.3894 13.7114 35.3175 15.3777C36.8647 13.7828 38.4358 12.1879 40.0068 10.5693Z" fill="#04B25F"/>
<path d="M137.365 97.0488C135.508 97.5963 133.651 98.1676 131.795 98.7151C129.343 99.6435 126.891 100.572 124.439 101.5L136.222 126.304C135.841 126.09 130.89 123.471 126.962 125.947C125.534 126.851 124.891 128.042 124.725 128.327C123.13 131.398 124.296 135.921 127.367 138.015C130.509 140.182 134.27 138.849 135.056 138.563C139.174 137.111 141.792 133.017 142.078 129.279C142.268 126.613 141.245 124.852 138.793 120.448C137.127 117.449 134.532 112.736 131.271 106.642C134.175 105.261 137.079 103.857 140.007 102.476C139.126 100.667 138.245 98.8579 137.365 97.0488Z" fill="#04B25F"/>
</svg>
