<svg width="144" height="144" viewBox="0 0 144 144" fill="none" xmlns="http://www.w3.org/2000/svg">
<path d="M26.3626 50.9439C22.5064 53.0863 20.2926 54.5621 19.0072 55.4429C10.89 61.013 6.51013 64.0837 4.03452 68.4398C3.20138 67.1782 2.53487 65.6072 2.58248 63.8695C2.7015 59.8466 6.48632 57.2996 12.2707 53.4434C17.7218 49.8014 21.0067 47.6114 24.006 48.9444C25.0058 49.3491 25.7675 50.087 26.3626 50.9439Z" fill="#DD00C1"/>
<path d="M109.201 27.6626C102.012 25.5679 95.2277 26.0678 90.6097 26.401C87.4438 26.6391 84.6826 27.0914 80.7073 28.2577C80.5645 27.0437 80.6835 25.8059 81.3262 24.711C81.9451 23.6398 83.1353 22.521 87.8009 21.4974C94.3946 20.0454 103.297 18.0935 107.392 23.1875C107.915 23.854 108.844 25.2585 109.201 27.6626Z" fill="#DD00C1"/>
<path d="M136.742 99.6222C135.813 100.717 132.838 104.24 128.101 105.097C119.293 106.716 110.914 98.0273 104.749 91.6479C96.6081 83.2213 94.1563 77.2465 90.9904 73.9616C91.038 73.5569 91.0856 73.1522 91.0856 72.7238C91.038 68.2486 87.277 64.559 82.8733 64.6066C78.779 64.6542 75.3988 67.9392 74.9703 71.7954C74.8751 72.5809 74.9227 73.3427 75.0656 74.1044C73.066 75.0565 70.8047 76.2229 68.1386 77.5798C64.5442 79.4127 61.6164 80.9123 59.236 82.2215C57.6887 80.3886 55.4511 79.1746 53.166 79.1032C48.6908 78.9604 45.9296 83.2213 45.8105 83.4355C45.4297 84.0544 43.9538 86.5062 44.5727 89.5531C45.025 91.8383 46.5485 93.9807 48.667 95.2423C48.1671 99.765 48.7384 105.978 46.12 119.118C44.6918 126.235 43.3349 130.305 39.6929 133.162C36.6936 135.495 32.3137 136.899 28.3385 136.233C19.9595 134.804 15.7224 124.521 9.58098 109.049C2.4636 91.0528 -1.53546 79.9125 3.48717 69.4388C3.6538 69.0817 3.82043 68.7485 4.01086 68.4152C6.48647 64.0591 10.8664 60.9884 18.9835 55.4183C20.2689 54.5376 22.4827 53.0617 26.3389 50.9194C27.3149 50.3719 28.3861 49.8006 29.5763 49.1817C31.0045 53.5378 33.1945 58.9413 35.6701 60.2743C40.0024 62.5833 51.4997 58.251 57.5697 55.3707C63.6159 52.4904 77.6364 50.229 78.8742 39.2316C79.3265 35.2088 78.8742 31.781 78.1125 29.0435C79.017 28.7579 79.874 28.4722 80.6833 28.258C84.6347 27.0916 87.4198 26.6393 90.5857 26.4013C95.2037 26.0681 102.012 25.5682 109.177 27.6629C111.129 28.2342 113.128 28.9959 115.104 30.0195C128.101 36.6608 132.671 49.9196 136.456 60.8694C139.408 69.3912 146.049 88.6248 136.742 99.6222Z" fill="#04B25F"/>
<path d="M40.8358 84.3875C41.05 89.7434 38.0983 93.6234 37.1938 94.766C36.8367 95.2183 30.4573 103.05 21.4594 101.407C13.3422 99.9314 8.72428 91.7667 8.39103 85.1254C8.34342 83.9352 8.17679 79.5553 11.0809 75.3896C14.3658 70.6288 20.174 68.177 25.6489 68.6293C33.9088 69.3434 40.5263 76.7464 40.8358 84.3875Z" fill="#ECD3EF"/>
<path d="M120.888 49.3487C121.745 55.9186 118.032 60.7508 117.484 61.4411C113.581 66.3447 107.011 68.7251 100.822 67.3445C92.6331 65.4878 88.0866 57.6563 87.7533 51.0626C87.7057 49.8724 87.5391 45.4925 90.4432 41.3268C93.8471 36.4232 99.7743 34.2094 105.011 34.5665C112.938 35.1139 119.865 41.5886 120.888 49.3487Z" fill="#ECD3EF"/>
<path d="M78.8985 39.2541C77.6369 50.2515 63.6402 52.5129 57.594 55.3932C51.5478 58.2735 40.0267 62.582 35.6944 60.2968C33.2188 58.9638 31.0288 53.5603 29.6006 49.2042C36.8132 45.4669 48.2867 40.1825 66.5681 33.2555C71.4241 31.3988 75.1137 30.0658 78.1368 29.0898C78.8985 31.8035 79.3508 35.2313 78.8985 39.2541Z" fill="#FC5832"/>
<path d="M105.535 43.088C105.868 44.7781 104.916 46.1349 104.749 46.373C103.845 47.6822 102.25 48.5153 100.607 48.4201C98.5365 48.3011 96.4655 46.7777 96.1799 44.5877C95.8228 42.0169 98.0842 39.6365 100.607 39.446C102.916 39.3032 105.13 40.9695 105.535 43.088Z" fill="#FC5832"/>
<path d="M100.441 56.7984C100.274 57.3697 99.8217 59.1074 98.2745 59.8215C97.5604 60.1548 96.9176 60.131 96.1083 60.1072C95.1562 60.0834 94.1326 60.0358 93.2042 59.3692C91.6094 58.2028 91.6094 56.0129 91.6094 55.632C91.6094 55.0607 91.6094 53.4659 92.871 52.2519C94.1088 51.0855 95.6798 51.1331 96.1083 51.1331C97.7508 51.1807 99.7741 52.0852 100.464 53.8943C100.917 55.0845 100.631 56.1557 100.441 56.7984Z" fill="#FC5832"/>
<path d="M112.913 58.2501C112.818 60.321 111.152 62.868 108.557 62.987C106.367 63.0822 104.725 61.3684 104.082 59.8211C104.011 59.6545 102.916 56.9408 104.487 55.2032C105.653 53.8939 107.486 54.013 108.51 54.0844C109.367 54.132 111.152 54.251 112.199 55.6554C112.985 56.7266 112.937 57.9168 112.913 58.2501Z" fill="#FC5832"/>
<path d="M117.103 46.6571C116.984 48.8471 115.008 50.4419 113.056 50.6086C110.39 50.8228 108.034 48.3234 108.153 46.2762C108.248 44.9432 109.391 43.9435 109.89 43.4912C110.367 43.0627 111.342 42.2296 112.628 42.1582C114.675 42.0868 117.27 44.0149 117.103 46.6571Z" fill="#FC5832"/>
<path d="M37.3369 80.8647C37.4559 79.9363 36.8132 79.0794 35.6706 77.6036C34.5042 76.0801 33.6234 74.9375 32.2666 74.7709C30.3623 74.5567 28.8151 76.4134 27.6487 77.8178C26.7917 78.8652 25.5777 80.3172 25.911 81.9597C25.9348 82.0549 26.149 83.0547 26.9584 83.7688C29.6244 86.1492 36.956 83.7212 37.3369 80.8647Z" fill="#FC5832"/>
<path d="M19.5786 71.7482C18.6264 71.6054 17.8171 72.2481 16.3174 73.4145C14.794 74.5809 13.6514 75.4616 13.4848 76.8184C13.2705 78.7227 15.1272 80.27 16.5317 81.4364C17.6981 82.4124 19.0073 83.4359 20.6735 83.1741C20.7688 83.1503 22.4112 82.8646 23.1968 81.4602C23.8871 80.2462 23.5062 78.9608 22.8873 77.0327C22.1494 74.6047 21.3163 72.01 19.5786 71.7482Z" fill="#FC5832"/>
<path d="M11.557 89.982C11.3904 90.7913 12.0093 91.6245 13.2471 93.2193C15.08 95.5759 15.9845 96.7423 17.2223 96.7423C18.6267 96.7423 19.6265 95.3141 21.269 92.9337C22.4592 91.196 23.1733 90.1486 22.9591 88.768C22.7924 87.7682 22.1497 86.578 21.0548 86.0782C20.6739 85.9115 19.8408 85.6259 15.8179 87.316C11.8426 88.9584 11.6046 89.6726 11.557 89.982Z" fill="#FC5832"/>
<path d="M30.4569 97.7883C31.4091 97.7645 32.0756 97.1218 33.1468 96.0982C34.337 94.9556 35.5272 93.8368 35.5034 92.3372C35.4796 90.4091 33.4324 89.1236 31.8852 88.1477C30.5997 87.3384 29.1001 86.41 27.5528 86.9813C26.196 87.4574 25.6247 88.7666 25.5533 88.957C24.8868 90.5281 25.6009 92.0753 26.196 93.4084C26.6959 94.5033 28.2432 97.8597 30.4569 97.7883Z" fill="#FC5832"/>
<path d="M59.1889 82.2214C57.6416 80.3885 55.4041 79.1745 53.1189 79.1031C48.6438 78.9603 45.8825 83.2212 45.7635 83.4354C45.3826 84.0543 43.9068 86.5061 44.5257 89.553C44.9779 91.8382 46.5014 93.9806 48.62 95.2422C49.8101 95.9563 51.167 96.3848 52.6428 96.4086C57.118 96.48 60.8552 92.838 61.236 88.5533C61.4741 86.1729 60.6409 83.9353 59.1889 82.2214Z" fill="#DD00C1"/>
<path d="M82.8499 64.6299C78.7556 64.6775 75.3755 67.9625 74.947 71.8187C74.8518 72.6042 74.8994 73.366 75.0422 74.1277C75.7563 77.9363 79.2317 81.126 83.3022 80.9832C87.1108 80.8404 90.4195 77.8173 90.9908 73.9849C91.0384 73.5802 91.0861 73.1755 91.0861 72.747C91.0146 68.2719 87.2536 64.5585 82.8499 64.6299Z" fill="#DD00C1"/>
</svg>
