<svg width="144" height="144" viewBox="0 0 144 144" fill="none" xmlns="http://www.w3.org/2000/svg">
<g clip-path="url(#clip0_552_2175)">
<path d="M94.5337 106.356C94.5575 108.403 94.4147 114.877 90.4871 121.281C85.6787 129.136 75.7762 136.015 64.2551 134.968C51.8771 133.825 40.4512 123.828 39.4752 111.164C38.3803 96.7864 51.4486 87.8599 52.4722 87.1934C60.0895 82.1707 68.0162 82.3136 71.682 82.6944C74.5384 83.0039 84.7979 84.0751 90.6537 92.5254C94.4147 97.9527 94.4861 103.737 94.5337 106.356Z" fill="#FA0018"/>
<path d="M69.4207 74.2451C64.9455 79.6247 58.6375 87.1944 49.2825 86.5517C40.8559 85.9804 33.6196 79.0058 31.5962 71.46C28.2161 58.7725 39.6419 44.5616 52.6389 42.1812C62.2795 40.4197 74.8956 44.7996 77.633 53.5594C80.0848 61.4385 73.4911 69.3414 69.4207 74.2451Z" fill="#4E02C6"/>
<path d="M113.054 76.8634C111.578 84.7663 94.8915 93.1691 83.7512 86.266C77.467 82.3621 72.9918 73.6261 75.6341 65.628C79.2047 54.7972 93.8441 51.4171 101.414 55.5351C105.675 57.8441 107.936 62.6525 110.34 67.7942C112.459 72.2693 113.506 74.4831 113.054 76.8634Z" fill="#FFF200"/>
<path d="M85.9408 0.881108C72.4202 1.16676 65.9931 1.76185 51.0919 2.09511C30.7157 2.54738 14.1958 2.11891 3.50781 1.66664C5.17409 7.99848 6.84036 14.3303 8.50664 20.6622C10.8156 20.5193 13.0532 20.3765 15.2193 20.2575L21.7178 53.9401L23.5031 63.176L29.3827 93.764L30.9061 101.643L38.571 141.467H96.5098H106.15H108.864L112.387 117.139L113.173 111.784L117.386 82.719L118.171 77.3631L123.599 39.8005L124.384 34.397L126.55 19.4958C129.24 19.5196 132.073 19.5672 135.025 19.6386C136.191 13.7352 137.357 7.85566 138.524 1.95228C116.315 0.595461 98.3189 0.619265 85.9408 0.881108ZM104.317 117.163C100.747 122.614 97.2001 128.089 93.6295 133.54C93.4391 133.54 93.2486 133.54 93.0582 133.54C85.5124 128.97 77.9427 124.4 70.3969 119.806C70.6111 119.472 70.8015 119.115 71.0158 118.782C74.9672 112.283 78.9187 105.785 82.8701 99.3103C90.6778 104.024 98.4855 108.737 106.293 113.45C105.65 114.688 104.984 115.925 104.317 117.163ZM65.2552 116.711C59.8517 113.45 54.472 110.189 49.0685 106.904C45.4265 104.476 41.7845 102.048 38.1425 99.6198L43.4032 90.6933C45.5694 86.8847 47.7355 83.0761 49.9255 79.2674C57.9236 84.1234 65.8979 89.0033 73.8722 93.8831C75.4433 94.8352 77.0144 95.7874 78.5854 96.7395C74.1341 103.381 69.6827 110.046 65.2552 116.711ZM33.1913 82.2905C32.5248 77.506 31.7869 72.6499 31.0014 67.7463C33.3817 69.1984 35.7859 70.6504 38.1663 72.1025C40.6896 73.6259 43.189 75.1494 45.6884 76.6966C43.9269 80.053 41.9512 83.5045 39.785 87.0751C38.4044 89.3127 37.0237 91.4789 35.6431 93.526C34.81 89.765 34.0006 86.0278 33.1913 82.2905ZM81.2276 92.431C74.6102 88.432 67.9927 84.4091 61.3752 80.41C58.4473 78.4581 55.4956 76.5062 52.5677 74.5305C54.7339 71.0551 56.9 67.4369 59.0662 63.6521C61.4466 59.4864 63.6603 55.4159 65.7075 51.4407C67.8736 52.7737 70.0398 54.1067 72.206 55.4159C79.8708 60.0339 87.5357 64.6756 95.2006 69.2936C92.8202 72.7452 90.3922 76.4348 87.988 80.41C85.4886 84.5757 83.251 88.5986 81.2276 92.431ZM97.819 65.0327C87.9404 59.0579 78.0855 53.0831 68.2069 47.1083C73.2533 38.2533 78.2998 29.3982 83.3224 20.5432C86.3693 20.4241 88.7021 20.2575 90.2017 20.1861C90.5588 20.1623 90.9158 20.1385 91.2729 20.1147C99.152 24.9231 107.031 29.7077 114.886 34.5161C115.22 34.7303 115.553 34.9207 115.91 35.135C109.888 45.1088 103.841 55.0827 97.819 65.0327ZM65.7551 20.805C69.1114 20.8526 72.206 20.8288 75.0148 20.7812C73.0391 23.8995 71.0158 27.3035 69.04 30.9931C66.6358 35.492 64.5887 39.8243 62.8748 43.871C61.8274 43.2521 60.7563 42.657 59.7327 41.9667C53.996 38.1581 48.283 34.3256 42.5463 30.517L48.9495 20.1623C49.0923 20.1623 49.2114 20.1861 49.3542 20.1861C52.8296 20.3765 58.0902 20.7098 65.7551 20.805ZM27.1213 45.9419C25.7645 38.9436 24.3363 32.0643 22.8366 25.3515C26.9547 27.851 31.049 30.3504 35.167 32.826L35.0718 32.9688L27.1213 45.9419ZM43.8793 19.9481L38.5472 27.851C34.5481 25.1849 30.5729 22.5189 26.5738 19.8766C33.2389 19.7338 38.9995 19.8052 43.8793 19.9481ZM28.5972 53.7734L34.3577 43.99L39.5708 35.5158C46.5929 39.7767 53.5913 44.0614 60.6134 48.3223C56.5192 56.1062 52.4249 63.9139 48.3306 71.6978C42.0702 67.5321 35.8336 63.3664 29.5731 59.2007C29.2399 57.3916 28.9066 55.5825 28.5972 53.7734ZM38.4044 106.237C46.1168 110.927 53.8293 115.64 61.5418 120.353C61.8512 120.543 62.1607 120.71 62.4463 120.901C59.4709 125.376 56.4954 129.827 53.5199 134.302C50.473 134.112 47.4261 133.897 44.403 133.707C42.4034 124.543 40.4039 115.378 38.4044 106.237ZM76.6097 134.016C72.1822 134.255 67.8974 134.564 63.7318 134.969C62.9224 134.921 62.1131 134.873 61.3038 134.802C63.4699 131.231 65.6361 127.685 67.7784 124.114C73.0629 127.304 78.3712 130.517 83.6556 133.707C81.3467 133.778 78.9901 133.897 76.6097 134.016ZM104.579 133.683C102.937 133.636 101.271 133.588 99.5805 133.564C100.08 132.707 100.604 131.827 101.104 130.97C102.794 128.232 104.46 125.495 106.15 122.733C105.627 126.399 105.103 130.041 104.579 133.683ZM108.174 108.761C100.604 104.19 93.0582 99.596 85.4886 95.0256C87.9166 91.0504 90.3446 87.0751 92.7726 83.0999C95.0339 79.3627 97.2715 75.6492 99.5329 71.912C103.818 74.5067 108.102 77.0775 112.387 79.6721C110.983 89.3841 109.578 99.0723 108.174 108.761ZM102.104 67.6511C106.769 59.9148 111.435 52.2024 116.1 44.4661C115.005 53.9639 114.125 63.1998 113.434 72.1501C113.339 72.8642 113.22 73.6021 113.125 74.3162C109.459 72.1025 105.793 69.8649 102.104 67.6511ZM117.862 30.4456C112.72 27.3273 107.579 24.209 102.437 21.0906C101.747 20.6384 101.08 20.1861 100.39 19.7338C105.77 19.5434 112.078 19.4244 119.433 19.4482C118.885 23.0664 118.362 26.7322 117.862 30.4456Z" fill="#04B25F"/>
</g>
<defs>
<clipPath id="clip0_552_2175">
<rect width="142.824" height="142.824" fill="white" transform="translate(0.62793 0.548828)"/>
</clipPath>
</defs>
</svg>
