<svg width="144" height="144" viewBox="0 0 144 144" fill="none" xmlns="http://www.w3.org/2000/svg">
<path d="M61.7616 13.8483C58.2624 14.9671 54.5252 16.3001 51.5021 17.6569C51.0736 17.8473 50.1215 18.3234 49.0503 19.1328C48.3362 19.6802 47.9077 20.1325 47.7649 20.2753C47.7649 20.2753 46.9555 21.1323 46.3366 22.2273C46.2176 22.3939 46.0748 22.5605 45.9558 22.751C39.862 31.7964 46.8841 45.1266 58.1434 86.4265C59.5478 91.5443 60.7618 96.2099 61.8568 100.471C58.2862 102.185 55.0727 103.47 53.2636 104.184C51.0022 105.089 32.3637 112.397 29.5787 108.017C28.5313 106.35 30.1262 103.565 32.3875 99.59C37.4816 90.7112 43.1469 87.9737 42.1948 85.3791C41.9805 84.8078 41.3616 84.0223 33.1255 82.6416C26.6746 81.5705 24.7227 81.6657 20.8188 80.9516C18.3194 80.4993 7.36962 78.5712 7.2744 75.7861C7.17918 72.8106 19.5096 70.1208 20.4856 69.9065C29.8405 67.907 35.8629 69.1686 36.22 67.6928C36.5294 66.3359 31.602 64.8839 22.6755 59.409C18.01 56.5525 13.9157 53.6008 10.0119 49.9588C5.86997 46.0788 1.8471 42.3416 2.77546 40.3897C3.27534 39.3423 5.15585 39.0328 21.1997 40.7229C34.2442 42.0797 37.4578 41.5323 38.3385 39.7946C38.9574 38.5568 38.0767 37.319 35.2916 32.5344C34.149 30.5824 28.6503 21.1323 25.1511 12.2296C23.1516 7.18319 22.1757 4.63617 23.223 3.23174C25.8177 -0.362658 36.8627 3.51738 44.3371 6.13581C49.1693 7.82589 55.1441 10.2539 61.7616 13.8483Z" fill="#FA0018"/>
<path d="M104.632 4.04C101.609 2.54036 99.9192 3.01643 72.5447 10.6813C72.5447 10.6813 67.4982 11.9905 61.7853 13.8472C58.2861 14.966 54.5489 16.299 51.5258 17.6559C51.0973 17.8463 50.1452 18.3224 49.074 19.1317C48.3599 19.6792 47.9314 20.1315 47.7886 20.2743C47.7886 20.2743 46.9793 21.1312 46.3604 22.2262C47.8124 20.4171 50.1214 19.6792 64.856 15.5611C65.8082 15.2993 66.8079 15.0136 67.8553 14.728C91.1831 8.20569 95.8725 6.89648 98.61 7.58679C98.9908 7.682 99.3717 7.84863 99.943 8.11048C109.679 12.3952 109.441 23.3926 117.796 50.3148C119.605 56.123 120.248 57.6465 122.604 65.4542C124.128 70.5244 125.699 75.9279 127.913 84.164C135.839 113.538 136.553 120.846 132.126 126.606C131.555 127.344 131.102 127.892 130.626 128.273C130.436 128.416 130.222 128.558 130.007 128.701C133.149 127.297 135.125 124.94 135.125 124.94C135.363 124.655 136.387 123.441 137.125 121.679C138.553 118.37 138.267 115.038 136.506 105.421C135.53 100.136 135.292 99.1843 135.292 99.1843C131.769 84.2593 130.031 76.8086 125.437 59.7888C116.13 25.1541 115.82 9.58632 104.632 4.04Z" fill="#4E02C6"/>
<path d="M99.9438 8.08753C99.3725 7.82569 98.9916 7.65906 98.6107 7.56385C95.8495 6.89734 91.1601 8.20655 67.8323 14.7288C66.7849 15.0145 65.7851 15.3001 64.833 15.562C50.0983 19.68 47.7894 20.418 46.3373 22.2271C46.2183 22.3937 46.0755 22.5603 45.9565 22.7508C39.8627 31.7962 46.8848 45.1265 58.1441 86.4263C59.5485 91.5441 60.7625 96.2097 61.8575 100.471C68.713 127.202 70.4031 137.557 78.1632 141.271C82.2575 143.222 83.8047 141.294 103.372 135.819C121.582 130.702 127.128 130.44 130.008 128.726C130.222 128.583 130.437 128.464 130.627 128.297C131.103 127.917 131.532 127.369 132.127 126.631C136.578 120.871 135.84 113.563 127.913 84.1887C125.676 75.9287 124.129 70.5252 122.605 65.4788C120.225 57.6473 119.582 56.1239 117.797 50.3395C109.442 23.3697 109.68 12.3722 99.9438 8.08753Z" fill="#04B25F"/>
<path d="M83.6373 51.4349C82.3995 56.0528 76.7341 54.9103 63.2135 59.4092C62.1185 59.7663 59.6429 60.6232 57.8338 59.2188C56.3104 58.0524 55.9533 55.9814 55.8105 55.1483C53.9538 43.7224 48.1456 32.5584 51.621 30.2018C51.9066 30.0113 54.049 29.3686 58.3575 28.107C58.5241 28.0594 58.6194 28.0356 58.7622 27.988C59.8572 27.6548 62.1185 27.0359 66.5699 25.9647C71.3307 24.8221 73.7349 24.2508 74.2823 24.4888C77.0912 25.7028 77.115 29.4163 81.3521 42.556C83.5659 49.3639 84.0419 49.9114 83.6373 51.4349Z" fill="#FFF200"/>
<path d="M81.9715 50.5067C80.8766 54.6486 75.7825 53.625 63.6663 57.6479C62.6666 57.9812 60.4766 58.7191 58.8341 57.4813C57.4773 56.4339 57.1441 54.5772 57.025 53.8155C55.3588 43.5798 50.1457 33.5583 53.264 31.4636C53.5259 31.297 55.454 30.7257 59.3102 29.5831C59.453 29.5355 59.5482 29.5117 59.6673 29.4641C60.667 29.1784 62.6666 28.6071 66.6656 27.655C70.9265 26.6314 73.0927 26.1315 73.5688 26.3457C76.092 27.4407 76.092 30.7495 79.9006 42.5324C81.9001 48.65 82.3524 49.1499 81.9715 50.5067Z" fill="#4E02C6"/>
<path d="M65.9038 35.89C66.3799 38.8893 64.2375 42.6742 61.0478 42.9122C59.0959 43.055 57.2868 41.841 56.287 40.3414C55.1682 38.6751 54.7874 36.3185 55.7871 34.3666C56.8583 32.2242 58.9769 31.7006 59.572 31.5815C59.9766 31.5101 62.2142 31.0578 64.0709 32.6289C64.2375 32.7479 65.5943 33.9381 65.9038 35.89Z" fill="white"/>
<path d="M68.6649 52.7206C66.9272 55.101 62.7853 56.0531 60.3574 53.7917C58.8815 52.4111 58.4292 50.245 58.7387 48.4597C59.0957 46.4839 60.4526 44.6272 62.4997 44.0321C64.7373 43.4132 66.6178 44.6272 67.1177 45.0081C67.4747 45.2699 69.3552 46.6268 69.5933 49.1024C69.6409 49.3404 69.7837 51.1495 68.6649 52.7206Z" fill="white"/>
<path d="M66.1884 53.1719C64.2841 54.1716 61.1896 53.4099 60.2374 51.1009C59.6661 49.6965 60.0232 48.1016 60.7849 47.0543C61.618 45.8641 63.1177 45.0785 64.6887 45.388C66.4026 45.7212 67.2834 47.1733 67.5214 47.578C67.688 47.8636 68.545 49.4109 67.9499 51.1247C67.8785 51.2676 67.4024 52.5292 66.1884 53.1719Z" fill="#FFF200"/>
<path d="M64.3791 39.152C63.2841 41.0563 60.2848 42.056 58.3329 40.5802C57.1427 39.6756 56.6666 38.1046 56.7618 36.7716C56.8808 35.2957 57.7616 33.7961 59.2374 33.201C60.8323 32.5583 62.3081 33.3438 62.7128 33.558C62.9984 33.7247 64.4743 34.5816 64.8314 36.4145C64.8552 36.5811 65.0932 37.9141 64.3791 39.152Z" fill="#FFF200"/>
<path d="M73.7821 43.1744C72.2825 43.4362 70.3068 42.2222 70.1163 40.4607C69.9973 39.3896 70.5686 38.3898 71.3065 37.8423C72.1159 37.2234 73.3061 37.033 74.3296 37.5805C75.4484 38.1756 75.7579 39.3658 75.8293 39.699C75.8769 39.937 76.1625 41.151 75.4008 42.1984C75.3294 42.2698 74.7581 43.0077 73.7821 43.1744Z" fill="white"/>
<path d="M87.6121 79.2381C87.3026 79.3333 86.9932 77.9288 85.7554 76.9291C84.0415 75.5485 81.7801 75.9769 81.6611 76.0007C81.3517 76.0721 79.2093 76.5244 78.2333 78.4287C77.5192 79.857 77.8287 81.2852 78.0667 82.2612C79.1141 86.5221 82.8037 88.9739 83.7559 89.5928C84.5176 90.0927 84.0177 89.6404 88.1358 91.6875C89.8497 92.5445 90.4924 92.9015 91.3969 92.7349C92.2777 92.5921 92.849 92.0446 94.1582 90.5449C96.3481 88.0455 97.4431 86.8077 97.8478 86.0222C99.2998 83.2133 99.2998 80.6425 99.2998 79.4761C99.2998 77.1433 98.7523 76.0245 98.3477 75.4056C98.2048 75.1676 97.824 74.6439 97.2289 74.0964C96.8718 73.787 94.3724 71.716 91.4207 72.7158C89.445 73.3823 88.1358 75.1914 87.8025 76.8101C87.5645 78.0241 87.8977 79.1428 87.6121 79.2381Z" fill="#FA0018"/>
</svg>
