<svg width="144" height="144" viewBox="0 0 144 144" fill="none" xmlns="http://www.w3.org/2000/svg"><path d="M139.306 112.802c-1.238 2.571-5.19 7.117-46.799 6.76-16.853-.143-14.496-.881-27.803-.738-13.306.119-26.636-.309-39.943.072-9.688.285-13.568.619-16.9-2.333-3.928-3.475-4.452-10.022-5.261-23.042-.214-3.309-.333-6.88-.286-20.734.048-11.116.048-16.686.214-20.661.714-16.782 1.048-25.161 4.261-28.541 4.023-4.213 13.092-4.19 31.112-3.928 14.187.19 15.092 1.214 28.803 1.262 10.664.023 10.402-.643 24.542-.762 3.904-.024 10.878.238 24.779.762 15.211.571 17.949.785 20.543 3.26.905.858 3.214 3.357 4.499 18.282.524 6.07.572 10.64.5 21.281-.095 12.926-.286 20.257-.428 24.66-.024 1.096-.048 1.643-.072 2.381-.476 13.235-.738 19.877-1.761 22.019z" fill="#262B2C"/><path d="M23.238 38.962c4.475-.048 8.95-.62 13.425-.596.405 0 6.641.024 11.26 0 6.212-.047 6.807-.166 11.449-.19 8.117-.072 9.974.262 19.948.405 6.903.095 10.354.142 13.615 0 8.689-.381 17.377.642 26.066.595.595 0 2.261-.024 2.904.976.262.404.238.785.047 3.166-.19 2.475-.214 2.666-.404 2.951-.952 1.476-3.666 1.31-4.356 1.286-12.878-.667-25.828.619-38.706-.096-15.091-.833-32.492-.214-39.11.19-2.427.144-4.88.12-7.307.191-9.093.334-14.14.833-15.211-1.38-.428-.905-.405-2.642-.405-3.166.024-.905.048-1.88.405-2.571.976-1.738 4.237-1.738 6.38-1.761zm-.571 25.018c6.665-.285 12.14-.095 13.973-.047.619.023.19 0 10.926-.19 7.07-.12 10.592-.191 11.45-.191 8.26-.048 10.235.262 19.947.404 6.903.096 10.355.143 13.616 0 8.688-.38 17.377.643 26.065.596.595 0 2.262-.024 2.904.975.048.072.072.096.096.191.547 1.095.499 2.261.452 2.975-.119 1.881-.191 2.833-.5 3.285-1.047 1.572-3.856 1.429-4.642 1.405-13.14-.572-26.303.88-39.443.238-11.735-.571-28.612-.548-38.253.024-2.856.166-5.737.047-8.593.071-8.093.12-13.33.262-14.163-1.88-.143-.381-.143-1.19-.096-2.833.024-1.643.048-2.476.31-3.023.904-1.762 4.046-1.928 5.95-2zM23 89.57c3.593-.31 5.855-.31 5.855-.31 4.332 0 7.498.047 8.593.047 4.451.048 4.928-.119 10.712-.214 3.166-.047 5.903-.024 11.212.048 8.021.095 14.782.262 19.947.404 14.782.405 12.926.596 14.687.477 0 0 13.545-.786 24.256-.358.667.024 2.881.143 3.666 1.453a.678.678 0 01.095.19c.548 1.095.5 2.261.453 2.975-.119 1.833-.191 2.762-.5 3.285-1.048 1.81-4.023 1.905-5.094 1.928-32.23.762-39.896.262-39.896.262-13.354-.857-29.278-.857-37.348-.523-2.856.119-5.737-.024-8.593.071-8.26.31-12.878 1.143-14.164-1.095-.547-.928-.452-2.333-.38-3.618.095-1.452.166-2.571.88-3.475.715-.858 1.762-1.19 5.618-1.548z" fill="#ECD3EF"/><path d="M43.543 43.32c.023 1.404-.405 2.427-.524 2.737-.976 2.213-2.952 3.142-3.451 3.356-1.334.595-2.5.619-3.095.619-.738 0-1.928 0-3.214-.69-1.237-.667-1.88-1.595-2.237-2.119-.405-.595-1.357-2.047-1.31-4.07.072-2.785 2.024-4.5 2.31-4.761 1.809-1.548 3.88-1.595 4.641-1.595.715 0 2.595.024 4.309 1.357 1.404 1.095 1.952 2.475 2.118 2.904.405 1 .453 1.88.453 2.261z" fill="#4E02C6"/><path d="M96.577 69.003c0 .142-.071 1.237-.571 2.38-.953 2.07-3.261 3.975-6.118 4.166-2.547.166-4.38-1.095-4.927-1.5-.524-.405-1.476-1.119-2.024-2.452-.476-1.119-.404-2.118-.357-2.809.048-.833.19-2.856 1.667-4.475 2.19-2.452 5.617-2.095 6.427-2.023.88.095 2.618.262 3.975 1.595.857.833 1.238 1.833 1.452 2.38.166.524.524 1.452.476 2.738z" fill="#FA0018"/><path d="M76.368 94.472c-.072 1.642-.762 2.833-1.024 3.285-.31.5-.857 1.404-1.928 2.118-1.476.976-3 .976-4.094.976-.81 0-2.19-.024-3.713-.785-.667-.334-2.31-1.119-3.166-2.976-.5-1.095-.5-2.094-.524-2.713 0-.572 0-1.69.571-2.976.12-.262.667-1.38 1.88-2.38 2.143-1.762 4.714-1.666 5.357-1.619.809.048 2.904.238 4.641 1.952.215.262 2.119 2.214 2 5.118z" fill="#F4F4F4"/></svg>