<svg width="144" height="144" viewBox="0 0 144 144" fill="none" xmlns="http://www.w3.org/2000/svg"><path d="M141.385 118.616c-.142.428-.333.833-.476 1.142-.166.286-.285.476-.285.476-.691 1.191-1.143 1.929-1.786 2.333.119-.119.215-.262.286-.381 1.214-2.023-.643-5.213-4.404-11.473a104.332 104.332 0 00-8.593-12.212 54.918 54.918 0 005.975-12.782c.262-.81 4.618-15.306.476-31.398-4.761-18.495-19.567-34.634-37.991-41.847-25.304-9.95-53.511-1.571-71.126 15.854-.762.761-3.119 3.142-5.951 6.903 4.332-6.951 8.617-11.307 9.712-12.378C44.837 5.428 73.044-2.951 98.3 6.928c1.31.5 29.874 12.259 37.991 41.847 5.047 18.424-.309 34.635-1.095 36.896a59.527 59.527 0 01-4.998 10.807c3.189 5.094 5.665 8.903 7.284 11.402.047 0 4.927 7.451 3.903 10.736z" fill="#FF7300"/><path d="M134.696 110.664a104.155 104.155 0 00-8.593-12.211 54.922 54.922 0 005.975-12.783c.262-.81 4.618-15.306.476-31.397-4.761-18.496-19.567-34.635-37.991-41.848-25.28-9.902-53.488-1.523-71.102 15.901-.762.762-3.119 3.143-5.951 6.904C10.583 44.418.728 61.89 3.703 84.29c3.642 27.017 24.209 48.488 47.941 54.772 6.118 1.619 25.185 5.618 43.919-4.57 7.855-4.261 13.116-9.664 16.258-13.425 2.809.666 7.07 1.547 12.378 2.142 7.712.833 12.83 1.381 14.639-.643.119-.119.215-.262.286-.381 1.19-2.071-.667-5.236-4.428-11.521z" fill="#FFF200"/><path d="M23.58 83.933c-.262 5.975 4.499 11.021 10.021 11.64 4.999.572 9.236-2.618 11.236-6.022.523-.88 2.285-4.023 1.428-7.832-1.071-4.76-5.713-8.379-10.688-8.545-5.737-.19-11.712 4.308-11.997 10.76zm29.612 0c-.262 5.975 4.499 11.021 10.021 11.64 5 .572 9.236-2.618 11.236-6.022.523-.88 2.285-4.023 1.428-7.832-1.071-4.76-5.713-8.379-10.688-8.545-5.76-.19-11.711 4.308-11.997 10.76zm29.611 0c-.262 5.975 4.5 11.021 10.022 11.64 4.999.572 9.236-2.618 11.235-6.022.524-.88 2.285-4.023 1.428-7.832-1.071-4.76-5.713-8.379-10.688-8.545-5.76-.19-11.735 4.308-11.997 10.76z" fill="#fff"/></svg>