<svg width="144" height="144" viewBox="0 0 144 144" fill="none" xmlns="http://www.w3.org/2000/svg"><path d="M140.591 102.304c-4.047 2.428-9.521 5.142-14.925 5.951-10.45 1.548-18.043.929-28.54 2.071-10.094 1.095-22.924-1.428-32.85-4.665-.381-.119-.762-.238-1.119-.381-.905-.31-1.761-.619-2.523-.952-6.76-2.809-8.927-6.237-12.712-10.188a30.004 30.004 0 00-1.951-1.929c-.953-.88-2.119-1.5-3.452-1.928-6.594-2.047-17.52.881-29.374 2.071-3.452.334-5.975.453-7.832.405.596-2 1.238-4.166 1.952-6.475a161.7 161.7 0 011-3.237c1.048-3.428 2.071-6.832 3.142-10.26 1.19-3.76 1.524-4.737 1.69-5.617 0 0 .072-.476.143-1 .595-4.618-.166-9.426-.166-9.426-.024-.072-.024-.143-.048-.215a90.836 90.836 0 00-.357-2.07 66.177 66.177 0 00-1.333-5.761c-.429-1.571-.81-2.738-1.024-3.785-.214-1.071-.285-2.047-.119-3.237.762-5.332 5.237-8.689 9.617-11.974 9.831-7.331 20.424-8.283 23.661-8.45.738-.048 18.472-.786 29.85 9.902 3.404 3.214 4.166 5.451 4.428 6.618.143.619.214 1.214.238 1.761.047 1.833-.572 3.333-1.333 4.928-.976 2.07-2.166 4.308-2.452 7.593-.048.5-.071 1-.048 1.5 0 1 .12 1.952.31 2.928.69 3.428 2.523 6.808 5.023 11.497 1.095 2.023 4.332 7.76 8.688 12.045 14.592 14.425 46.037 11.378 50.369 17.162 1.143 1.5 1.714 3.19 1.714 3.19.119.643.214 1.286.333 1.928z" fill="#BB54F7"/><path d="M38.425 20.443c-2.38 1.786-.429 5.523-.405 14.64.024 5.713-.738 10.402 1.619 12.52.452.405 1.618 1.262 2.57 1.905 1.738 1.166 2.643 1.738 3.5 1.714 1.237-.048 2.118-.928 3.427-2.238 1.167-1.166 1.952-2.356 2.285-2.999 1.667-3.07.762-7.236-.023-11.807-1.833-10.735-1.476-14.306-3.88-15.21-.953-.358-2.119-.19-4.404.142-2.166.358-3.69.572-4.69 1.333zm36.729 73.935c-1.405 2.405-6.094 6.951-10.855 11.283-.38-.119-.762-.238-1.119-.38-.904-.31-1.761-.619-2.523-.953 7.475-6.141 15.782-14.115 15.782-19.09-.024-9.046-8.926-13.902-8.926-13.902 2.785-4.403-.976-13.187-.976-13.187l1.833-1.095 5.76-3.5c0 1 .12 1.953.31 2.929l-5.38 2.547c.714 1.975.976 9.95.976 9.95s4.213 4.475 6.665 7.093c2.476 2.619 1.619 12.902-1.547 18.305z" fill="#FF8FF0"/><path d="M140.829 103.686s-.024.643-.19 1.262c-2.381 9.616-28.16 10.402-45.894 10.926 0 0-26.28.809-40.11-8.141-3.475-2.238-4.19-4.357-4.19-4.357-.07-.214-.237-.833-.69-1.547-.452-.738-1.07-1.428-1.785-2.023-1.214-1-2.737-1.785-4.356-2.261-2.547-.762-5.308-.738-7.332.333-5.236 2.737-1.785 10.521-7.45 14.615-1.857 1.333-6.38 1.452-15.354 1.643-6.189.143-9.283.19-10.164-.619-2.761-2.499-1.5-8.879 2-20.78 1.832.047 4.356-.048 7.831-.406 11.83-1.19 22.756-4.141 29.374-2.07 1.333.404 2.5 1.047 3.452 1.928a50.666 50.666 0 011.952 1.928c3.784 3.951 5.95 7.379 12.71 10.188.786.333 1.62.643 2.524.952.357.119.738.238 1.119.381 9.926 3.237 22.733 5.784 32.85 4.665 10.473-1.142 18.066-.523 28.54-2.071 5.404-.809 10.879-3.523 14.925-5.951.095.477.167.929.238 1.405z" fill="#00FF9D"/><path d="M47.947 94.14a30.004 30.004 0 00-1.952-1.928c-.952-.881-2.118-1.5-3.451-1.928-.786-1.81-2.024-3.38-3.975-4.357-8.332-4.213-19.044-10.592-15.307-18.662a15.76 15.76 0 01-2.499-2.975 16.538 16.538 0 01-2.476-6.546c-1.737-.405-3.451-.81-5.189-1.19a90.813 90.813 0 00-.357-2.072l7.903 1.572s-.285 8.521 6.26 9.593c0 0-4.689 3.427.667 9.188 4.451 4.784 18.638 5.046 20.376 19.305zm30.04-54.606c.048 1.833-.571 3.333-1.333 4.927-5.95-4.975-16.734-12.616-26.398-12.187-14.259.666-24.994 1.785-29.66 6.617-2.88 2.952-6.689 7.094-9.212 9.808-.429-1.572-.81-2.738-1.024-3.785 2.38-3.738 6.856-9.689 12.14-11.355 7.927-2.523 33.421-8.26 40.253-4.522 3.904 2.142 10.378 6.831 15.234 10.497z" fill="#FF8FF0"/></svg>