<svg width="144" height="144" viewBox="0 0 144 144" fill="none" xmlns="http://www.w3.org/2000/svg">
<path d="M70.0435 16.6179C68.6629 18.7841 66.83 21.712 65.7112 23.7353C61.5694 25.0207 61.0219 27.8534 61.2361 29.8529C60.9743 29.1626 60.5934 28.3771 60.0459 27.6153L68.0202 14.666C68.4963 15.4753 69.2104 16.1657 70.0435 16.6179Z" fill="#003163"/>
<path d="M83.3491 23.7832C82.2779 24.7591 81.3972 26.0683 80.683 27.7346C78.4693 23.7118 75.7318 18.951 74.9463 18.1416C74.5654 17.7608 74.1846 17.2847 73.8037 16.761C74.8273 16.3325 75.708 15.5232 76.2079 14.5234L83.3491 23.7832Z" fill="#003163"/>
<path d="M119.269 78.4369C119.103 81.7694 119.15 89.9818 119.198 95.9089C119.222 99.6938 119.269 102.526 119.269 102.526C119.269 102.526 113.628 102.288 99.1311 103.764C84.6345 105.264 25.0533 102.526 25.0533 102.526C25.0533 102.526 25.3152 82.4121 25.0533 75.4614C24.9819 73.5333 24.9581 70.3911 24.9343 66.8682C24.9105 57.7036 25.0533 45.8969 25.0533 45.8969C25.0533 45.8969 49.4762 42.9214 59.688 42.6596C69.8999 42.4215 119.293 40.9219 119.293 40.9219C119.293 40.9219 119.531 72.9858 119.269 78.4369Z" fill="#F9F3EF"/>
<path d="M72.2095 7.92978C69.8529 7.85837 67.782 9.66746 67.4963 11.905C67.3773 12.881 67.5915 13.8331 68.0438 14.6425C68.4961 15.4756 69.2102 16.1659 70.0433 16.6182C70.7098 16.9515 71.4478 17.1419 72.2095 17.1181C72.757 17.0943 73.3045 16.9753 73.8044 16.761C74.8279 16.3326 75.7087 15.5232 76.2086 14.5235C76.4942 13.9522 76.6608 13.3333 76.6846 12.643C76.756 10.1197 74.6851 8.00119 72.2095 7.92978Z" fill="#007B66"/>
<path d="M119.223 99.0521C119.223 98.1237 119.199 97.0526 119.199 95.91C111.082 93.3391 88.254 85.8647 80.1606 80.1756C76.2806 77.4619 71.2818 73.9627 65.9973 70.7254C57.7135 65.6314 48.6919 61.1562 42.1696 61.3229C35.5997 61.4657 29.006 64.5602 24.9355 66.893C24.9355 70.416 24.9832 73.5581 25.0546 75.4862C25.3164 82.4369 25.0546 102.551 25.0546 102.551C25.0546 102.551 84.6358 105.289 99.1324 103.789C113.629 102.289 119.27 102.551 119.27 102.551C119.27 102.551 119.247 101.171 119.223 99.0521Z" fill="#007B66"/>
<path d="M132.79 82.913C132.79 82.913 139.241 82.675 140.479 72.9868C141.717 63.2986 139.479 58.8235 128.315 57.3476C128.315 57.3476 135.766 53.6342 135.766 45.6837C135.766 37.7332 137.503 26.5692 121.126 31.0443C121.126 31.0443 113.676 14.1673 102.512 28.8067C102.512 28.8067 102.75 23.5937 95.3228 21.856C90.562 20.7372 86.3249 21.0466 83.3494 23.8079C82.2782 24.7839 81.3737 26.0931 80.6834 27.7594C80.2787 28.7353 79.9454 29.8303 79.6598 31.0443C79.6598 31.0443 80.8976 22.3559 69.4717 23.0938C67.9721 23.189 66.7343 23.427 65.7107 23.7365C61.5688 25.0219 61.0213 27.8546 61.2356 29.8541C60.9737 29.1638 60.5929 28.3783 60.0454 27.6165C58.6409 25.6646 56.1177 23.8555 51.595 24.0935C42.1686 24.5934 43.1446 32.0441 43.1446 32.0441C42.8589 31.4966 39.5502 25.2123 33.4564 24.8553C31.4807 24.7363 29.9334 25.2599 29.1241 25.617C23.5063 27.9974 22.3876 34.8529 22.2923 35.5432C22.2923 35.5432 19.5549 33.5675 13.6039 34.3054C7.65293 35.0434 4.91548 40.0184 5.41536 45.7313C5.91525 51.4443 13.8658 54.4197 13.8658 54.4197C13.8658 54.4197 9.65246 56.8954 5.41536 60.3707C1.17827 63.8461 0.702188 75.7719 5.41536 77.0097C10.1285 78.2475 15.1036 78.0094 15.1036 78.0094C15.1036 78.0094 7.65293 81.7228 7.41489 89.4353C7.17685 97.124 8.15281 109.288 21.3164 105.574C21.3164 105.574 15.3654 113.025 18.8408 117.5C22.3161 121.975 38.2172 123.951 39.693 114.263C39.693 114.263 43.4064 121.951 52.5947 123.189C61.7831 124.427 65.9963 112.763 65.9963 112.763C65.9963 112.763 69.9716 120.452 83.635 120.952C97.2985 121.452 98.7743 112.501 98.7743 112.501C98.7743 112.501 102.488 122.19 112.438 120.952C122.364 119.714 129.815 116.976 125.601 105.313C125.601 105.313 133.552 108.288 137.765 103.337C141.978 98.3856 147.192 88.626 132.79 82.913ZM99.1314 103.765C84.6348 105.265 25.0536 102.527 25.0536 102.527C25.0536 102.527 25.3154 82.4132 25.0536 75.4624C24.7918 68.5117 25.0536 45.9217 25.0536 45.9217C25.0536 45.9217 49.4764 42.9463 59.6883 42.6844C69.9002 42.4464 119.293 40.9467 119.293 40.9467C119.293 40.9467 119.365 49.9208 119.389 59.1805C119.412 67.4167 119.412 75.8671 119.293 78.4379C119.127 81.7705 119.174 89.9828 119.222 95.91C119.222 96.0528 119.222 96.1956 119.222 96.3384C119.222 96.9335 119.222 97.5048 119.246 98.0523C119.246 98.2666 119.246 98.4808 119.246 98.695C119.246 98.8141 119.246 98.9331 119.246 99.0521C119.27 101.147 119.293 102.527 119.293 102.527C119.293 102.527 113.628 102.289 99.1314 103.765Z" fill="#DB0032"/>
<path d="M102.13 60.3941C100.94 60.656 99.6784 60.9654 98.274 61.3225C91.2518 63.1554 89.2047 64.4408 82.8728 66.5356C81.7541 66.9164 80.4686 67.2973 79.0642 67.7257C78.9214 65.0121 78.7786 62.2984 78.6357 59.5848L88.8238 50.3965L101.249 55.8476C101.559 57.371 101.845 58.8707 102.13 60.3941Z" fill="#DB0032"/>
<path d="M119.365 59.1791C117.389 59.0125 114.652 58.8935 111.438 59.0839C108.939 59.2267 106.035 59.5362 102.131 60.3931C100.941 60.655 99.679 60.9644 98.2746 61.3215C91.2524 63.1544 89.2053 64.4398 82.8734 66.5345C81.7547 66.9154 80.4692 67.2963 79.0648 67.7247C75.5418 68.7483 71.1381 69.8433 65.9727 70.7478C71.2571 73.9852 76.2798 77.5081 80.136 80.198C88.2293 85.8633 111.033 93.3616 119.174 95.9324C119.127 90.029 119.079 81.7928 119.246 78.4603C119.389 75.8657 119.389 67.4153 119.365 59.1791Z" fill="#003163"/>
<path d="M57.807 52.6329C57.9499 53.2756 57.4738 53.8707 57.3072 54.1325C55.998 56.0606 52.6892 56.0844 48.3807 56.1082C48.095 56.1082 47.9046 56.1082 47.6428 56.1082C43.0486 56.0844 40.7396 56.0368 39.6923 54.8704C39.1924 54.2991 38.6449 53.347 38.9543 52.6329C39.4066 51.6093 41.5728 51.2998 44.5245 51.9664C44.8101 51.5379 45.548 50.5857 46.7858 50.2049C48.5949 49.6574 50.7373 50.5619 52.0703 52.4662C52.3559 52.133 53.1653 51.2998 54.4031 51.1332C55.8075 50.919 57.569 51.5617 57.807 52.6329Z" fill="#003163"/>
<path d="M79.9214 48.3249C79.969 48.8724 79.6595 49.3247 79.5167 49.5151C78.5883 50.8957 76.4222 50.991 73.3753 51.0862C73.161 51.0862 72.7088 51.0862 71.7804 51.0862C71.5662 51.0862 68.4479 51.0624 65.8532 50.3483C65.5914 50.2768 65.1153 50.134 64.8773 49.7294C64.5678 49.2295 64.7583 48.6106 64.8297 48.3249C65.0201 47.706 65.5438 46.7301 66.6626 46.3492C67.6623 46.0397 68.7573 46.3016 69.4952 47.0633C70.1141 46.0636 71.2091 45.4923 72.3517 45.5399C73.5419 45.5875 74.6131 46.3254 75.113 47.4204C75.2558 47.2776 76.3032 46.2778 77.7076 46.492C78.7074 46.6587 79.8499 47.3728 79.9214 48.3249Z" fill="#003163"/>
<path d="M115.913 48.634C116.009 49.2291 115.628 49.729 115.485 49.9432C114.461 51.4667 112.081 51.5619 108.701 51.6809C108.463 51.6809 107.963 51.6809 106.939 51.6809C106.701 51.6809 103.25 51.6571 100.393 50.8478C100.108 50.7764 99.5838 50.6097 99.322 50.1574C98.9411 49.5385 99.203 48.8006 99.2744 48.6102C99.7028 47.3486 101.083 46.8725 101.345 46.8011C102.893 46.3012 104.226 47.0867 104.44 47.2296C104.559 47.0867 105.725 45.7537 107.606 45.8727C109.534 45.968 110.534 47.4676 110.653 47.6342C110.962 47.42 112.152 46.6345 113.628 46.8963C114.437 47.0629 115.77 47.6342 115.913 48.634Z" fill="#003163"/>
</svg>
