<svg width="144" height="144" viewBox="0 0 144 144" fill="none" xmlns="http://www.w3.org/2000/svg"><path d="M127.741 54.039C109.364 23.736 67.779-4.733 55.805 4.05c-1.237.905-2.975 2.833-3.666 5.38-2.166 8.093 8.213 15.401 5.452 20.924-.976 1.928-3.047 2.666-3.476 2.809-9.26 3.118-18.281-19.52-33.849-19.567-1.119 0-6.594 0-10.688 3.594-14.877 13.14 6.451 58.463 12.759 70.198 4.547 8.45 10.26 16.258 10.26 16.258 5.308 7.26 10.497 12.854 13.044 15.33 12.735 12.473 39.943 26.279 66.08 18.971 5.332-1.475 15.734-4.546 22.852-14.163 5.355-7.212 6.284-14.782 6.903-19.781 1.714-13.806-2.476-24.827-5.88-33.778-2.975-7.807-6.26-13.544-7.855-16.186zm-95.073 6.427c-7.498-1.048-11.83-8.76-14.211-12.95-2.523-4.427-4.642-8.26-3.333-12.687.762-2.642 2.905-5.904 6.213-6.903 7.332-2.214 14.854 8.426 15.687 9.616 3.737 5.285 4.237 10.355 4.57 13.712.5 5.117-.619 6.665-1.07 7.212-2.357 2.761-7 2.095-7.856 2z" fill="#FFD800"/><path d="M68.612 84.032c.38 1.285 0 2.832-.786 5.95-1.095 4.333-1.642 6.5-3.356 8.046-2.547 2.309-6.023 2.214-7.736 2.167-3.785-.096-6.547-1.714-8.975-3.119-2-1.166-3.427-2-4.784-3.594-.381-.452-5.023-5.975-2.809-11.64 2.142-5.427 8.76-7.38 13.211-6.95 2.5.237 4.261 1.213 7.284 2.856 4.451 2.427 7.141 3.618 7.95 6.284z" fill="#8D41E5"/><path d="M91.893 108.334c1.452 4.023 2.785 7.665 1.047 11.284-1.214 2.523-3.856 4.951-6.855 5.189-1.048.095-1.62-.143-3.619-.714-8.76-2.547-10.378-1.976-11.878-3.952-1.119-1.499-.285-1.952-1.904-5.237-1.595-3.237-2.857-3.308-3.07-4.927-.62-4.594 4.236-9.26 8.807-11.093 1.19-.476 6.498-2.618 11.544.334 3.357 1.928 4.476 5.117 5.928 9.116z" fill="#FF378C"/><path d="M124.79 112.952c-.524 1.452-2.024 4.928-5.785 7.213-.976.595-4.499 2.666-8.974 1.785-.524-.095-3.071-.619-5.57-2.713-5.308-4.428-7.57-13.545-4.38-17.092 1.738-1.904 3.404-.357 9.95-2.951 3.547-1.405 4.309-2.357 6.499-2.262 3.999.167 6.688 3.642 7.046 4.095 3.546 4.737 1.666 10.664 1.214 11.925z" fill="#009D6F"/></svg>