<svg width="144" height="143" viewBox="0 0 144 143" fill="none" xmlns="http://www.w3.org/2000/svg">
<path d="M103.266 106.187C103.266 106.187 46.6128 110.71 33.9967 111.424C21.3806 112.138 10.9069 117.137 6.14611 108.805C1.38533 100.474 1.38533 79.7645 3.76572 71.9092C6.14611 64.0539 28.5218 59.7692 52.8018 57.3888C118.667 50.938 130.926 50.9856 135.877 59.0551C137.734 62.0782 138.71 69.0766 140.638 83.0971C141.471 89.1433 141.709 92.8091 139.448 95.7131C137.591 98.0935 134.687 99.1409 128.974 101.188C125.642 102.378 122.809 103.116 120.881 103.568C121.048 104.402 121.333 105.663 121.833 107.139C123.642 112.519 126.38 115.399 125.166 117.375C124.928 117.779 124.594 117.994 124.452 118.089C123.071 118.993 120.595 118.636 111.597 112.376C109.527 110.924 106.646 108.853 103.266 106.187Z" fill="#00FF9D"/>
<path d="M48.6838 84.0726C49.636 89.4998 48.1601 96.284 43.2089 100.497C38.71 104.33 33.3303 104.306 30.8309 104.306C27.9744 104.306 22.4519 104.282 18.4529 100.259C14.668 96.4506 14.5014 91.3566 14.4062 88.1192C14.3348 85.4532 14.1681 80.6924 17.2627 76.2173C20.5952 71.3613 26.8794 68.0525 33.4493 68.838C41.8045 69.814 47.4698 77.0266 48.6838 84.0726Z" fill="#FF8FF0"/>
<path d="M68.1788 75.3366C68.3216 71.8612 66.7267 68.9095 64.2511 67.886C62.3944 67.1242 60.6329 67.6955 60.0617 67.886C56.372 69.1 53.468 73.5275 54.6106 76.8838C55.2295 78.6929 56.8481 79.6927 57.3004 79.9545C58.6096 80.7639 59.8474 80.8591 63.9179 81.2876C63.9179 81.2876 55.9436 81.0019 54.5391 87.548C53.1109 94.0941 56.5387 99.7832 60.7996 98.355C65.0605 96.9267 68.2026 91.8089 68.2026 91.8089C66.9886 94.6654 67.3456 97.6647 69.0595 99.4262C70.464 100.878 72.3207 101.021 73.13 101.092C75.9151 101.33 79.2714 100.093 80.9615 97.2362C82.9372 93.9036 82.1041 89.2143 78.7239 86.3816C78.7239 86.3816 88.3883 91.4995 89.5309 82.9776C89.6737 81.9779 90.9591 77.2171 88.4121 75.1224C87.2933 74.194 85.9365 74.194 84.9606 74.1702C84.9606 74.1702 82.8658 74.1464 76.9862 77.2885C80.2474 76.1459 82.3897 73.5275 82.4135 70.79C82.4135 70.433 82.4135 68.5525 81.0805 67.0766C78.962 64.72 74.9391 64.9105 72.3921 66.2911C69.4166 67.9098 67.7265 71.5042 68.1788 75.3366Z" fill="#BB54F7"/>
<path d="M106.527 71.6238C107.384 72.933 105.075 75.8371 103.242 78.1937C100.076 82.2879 97.7197 85.5015 97.1722 86.2632C95.0775 89.1911 90.3643 95.7133 91.9592 97.8319C93.1732 99.4506 98.4338 97.4986 108.979 93.5948C108.979 93.5948 115.168 91.3096 124.666 85.5491C127.808 83.6448 128.855 82.8116 129.022 81.5262C129.379 78.8602 125.523 77.5509 116.596 70.4812C111.455 66.4107 108.051 63.1258 105.98 64.2207C105.051 64.7206 104.575 65.9822 104.456 66.2917C103.956 67.5771 103.861 69.4576 104.885 70.5764C105.599 71.3381 106.17 71.0763 106.527 71.6238Z" fill="#FFFF76"/>
<path d="M112.383 79.2163C111.812 80.3827 110.408 80.8588 109.265 80.5493C108.289 80.2875 107.361 79.4306 107.313 78.3356C107.242 76.955 108.646 76.0028 109.717 75.7648C109.979 75.7172 110.884 75.5029 111.669 76.0504C112.598 76.7169 112.931 78.1213 112.383 79.2163Z" fill="#FF8FF0"/>
<path d="M99.8149 93.6416C99.6006 94.8794 98.3628 95.6173 97.3869 95.784C97.0774 95.8316 96.1253 95.9982 95.4111 95.4031C94.7922 94.8794 94.7208 94.0939 94.6732 93.594C94.6256 93.1179 94.5542 92.2372 95.1493 91.4754C95.7206 90.7613 96.6251 90.4281 97.4821 90.5471C98.6247 90.6899 99.196 91.5945 99.3388 91.7611C99.4816 91.9277 99.9815 92.6894 99.8149 93.6416Z" fill="#FF8FF0"/>
<path d="M116.334 85.2147C116.143 86.6667 114.334 87.5475 112.906 87.1666C111.835 86.8809 110.859 85.8574 110.93 84.7624C111.002 83.2866 112.978 82.1202 114.525 82.5962C115.572 82.9533 116.501 84.0721 116.334 85.2147Z" fill="#FF8FF0"/>
<path d="M107.265 91.4758C107.051 92.9278 105.575 93.999 104.242 93.7134C103.004 93.4515 102.361 92.1661 102.29 91.1663C102.266 90.8331 102.242 89.6667 103.123 88.9288C104.004 88.2147 105.051 88.4289 105.17 88.4527C106.408 88.7383 107.503 90.0237 107.265 91.4758Z" fill="#FF8FF0"/>
<path d="M106.551 83.5728C106.694 84.763 105.909 85.5961 105.766 85.7389C104.956 86.5721 103.409 87.0958 102.314 86.334C101.148 85.5009 101.386 83.8108 101.41 83.7156C101.624 82.4064 102.814 81.1686 104.1 81.2162C104.956 81.24 105.552 81.8113 105.694 81.9541C105.861 82.0969 106.432 82.6682 106.551 83.5728Z" fill="#FF8FF0"/>
<path d="M43.1848 88.0961C43.1848 88.0961 42.7325 92.4284 40.4235 93.809C39.9236 94.1185 39.2571 94.4755 38.4478 94.8326C38.8763 93.928 39.4714 92.5712 39.8284 91.5714C40.3997 89.929 39.4476 88.2627 36.9244 88.0961C34.7106 87.9532 32.354 94.7136 31.8065 96.356C30.2593 96.3084 28.6882 95.9514 27.2124 95.0706C22.2373 92.1189 21.4994 89.2863 21.4994 89.2863L19.1904 89.7385C19.1904 89.7385 19.8331 94.0709 24.9748 96.4513C30.1164 98.8316 42.5421 100.95 45.3985 88.0723H43.1848V88.0961Z" fill="#BB54F7"/>
<path d="M22.4521 81.6915C22.4521 81.6915 23.2377 84.9289 25.3086 85.643C27.3796 86.3571 29.4981 85.9048 30.4265 84.1671C31.3786 82.4295 31.4262 81.4297 31.4262 81.4297L29.7361 81.5487C29.8314 82.9055 29.141 84.0719 28.1413 84.4528C26.8559 84.9289 25.6181 83.9291 25.5705 83.8815C24.5945 83.0722 24.1422 81.4535 24.1422 81.4535L22.4521 81.6915Z" fill="#BB54F7"/>
<path d="M43.3048 80.7875C43.3048 80.7875 42.9477 84.0962 40.972 85.0722C38.9963 86.0482 36.8539 85.8815 35.6875 84.2629C34.5211 82.6442 34.3545 81.6682 34.3545 81.6682L36.0446 81.573C36.116 82.9298 36.9491 84.001 38.0203 84.2629C39.3533 84.5723 40.4483 83.4297 40.4959 83.3583C41.3528 82.43 41.5909 80.7637 41.5909 80.7637H43.3048V80.7875Z" fill="#BB54F7"/>
</svg>
