<svg width="144" height="144" viewBox="0 0 144 144" fill="none" xmlns="http://www.w3.org/2000/svg"><path d="M4.611 96.695c19.71 9.212 66.366 24.709 79.363 28.517-2.476 6.189-4.333 8.903-7.903 10.284-6.808 2.618-8.831-2.928-34.659-12.807-8.57-3.285-24.637-9.307-27.66-11.307-3.023-1.999-12.568-3.523-11.545-9.283.19-1.119 1.071-3 2.404-5.404zm89.504 1.165c-2.666 6.856-4.69 12.474-6.356 17.092-8.546-3.618-24.827-7.355-40.228-12.949-15.354-5.594-29.613-11.617-37.063-14.854a592.553 592.553 0 015.998-9.046c15.378 6.808 55.606 16.259 77.649 19.758zm6.331-15.686a522.795 522.795 0 00-4.166 10.164C81.355 87.53 57.67 82.459 45.745 77.77a707.888 707.888 0 01-22.733-9.403c1.737-2.618 3.118-4.737 3.808-5.974.476-.834.976-1.738 1.548-2.666 21.97 7.474 51.297 16.377 72.078 22.447zm40.657-25.304c0 6.023-1.761 19.592-2.261 21.591-.762 3.023-5.618.286-13.807-1.761a146.008 146.008 0 00-20.661-3.595c-.119.238-.215.5-.334.762C91.781 70.89 56.313 61.394 47.149 57.18c-2.904-1.333-7.903-3.57-13.45-6.022 1.81-2.809 3.19-4.856 3.19-4.856a247.385 247.385 0 01-12.306-2.523C8.92 40.184 8.11 38.089 7.253 37.256c-1.999-2 6.523-12.306 7.784-14.83 1.262-2.523 7.499-13.544 8.76-15.781 1.262-2.238 6.285 2.523 11.807 5.022 16.877 7.665 27.256 8.236 28.136 14.068.357 2.428-1.547 2.643-2.523 8.284-.333 1.904-1 6.142.5 11.045.738 2.404 2.047 6.784 6.284 9.807 3.904 2.785 9.141 3.618 13.569 2.262 4.737-1.476 7.474-5.142 12.044-11.307 4.214-5.666 3.88-7.117 6.523-8.784 3.689-2.309 7.307-1.357 15.829 0 18.996 3 22.614 1.571 25.113 5.285 1.619 2.356.024 3.618.024 14.544z" fill="#2E1544"/><path d="M104.016 73.89a525.441 525.441 0 00-3.57 8.284c-20.781-6.07-50.107-14.949-72.102-22.423 1.69-2.857 3.69-6.023 5.332-8.546 5.546 2.452 10.545 4.69 13.449 6.023 9.165 4.189 44.632 13.687 56.891 16.662z" fill="#FFD110"/><path d="M96.28 92.338a365.204 365.204 0 00-2.118 5.356c-.024.047-.047.119-.071.166-22.043-3.499-62.271-12.95-77.649-19.757 2.38-3.547 4.69-6.927 6.546-9.736a768.072 768.072 0 0022.733 9.403c11.95 4.69 35.635 9.76 50.56 14.568z" fill="#E7AEFF"/><path d="M87.758 114.93c-1.523 4.213-2.713 7.569-3.784 10.283-12.997-3.809-59.653-19.305-79.363-28.517 1.5-2.69 3.57-6.023 5.856-9.546 7.475 3.238 21.733 9.26 37.063 14.854 15.4 5.594 31.683 9.331 40.228 12.926z" fill="#02B795"/></svg>