<svg width="144" height="144" viewBox="0 0 144 144" fill="none" xmlns="http://www.w3.org/2000/svg"><path d="M134.395 81.312c-15.973 8.57-50.679 27.065-56.25 29.16-7.283 2.738-21.399 4.547-33.563 8.855-12.163 4.309-22.78 8.641-30.421 9.117-3.642.238-7.427-.857-10.402-2.047-.905-1.952-1.452-4.118-1.643-6.308 2.857.809 8.26 2.047 12.95 1.262 6.76-1.119 15.924-6.475 20.97-7.046 5.047-.572 18.758-4.88 24.71-6.38 5.926-1.5 31.42-10.83 36.657-16.567 5.237-5.761 9.45-19.305 19.948-25.923 4.261-2.69 9.902-.738 15.068 2.5.428 6.093.262 9.235 1.976 13.377z" fill="#FF378C"/><path d="M141.678 99.259c-.142 7.403-23.97 11.354-47.536 17.853-6.546 1.809-46.537 13.02-73.72 16.734-2.667.357-8.38 1.071-12.736-2.285-1.69-1.31-3.023-3.119-3.975-5.166 2.975 1.214 6.784 2.285 10.402 2.047 7.641-.476 18.258-4.808 30.422-9.117 12.164-4.308 26.28-6.117 33.563-8.855 5.57-2.094 40.3-20.59 56.249-29.16.119.262.238.548.357.81 1.047 2.237 1.857 3.118 3.356 6.403.286.476 3.69 7.88 3.618 10.736z" fill="#009D6F"/><path d="M58.864 68.316c.048 4.308 2.857 6.403 1.452 10.211-.38 1.024-5.022 7.332-6.546 8.903-.333.333-.738.88-1.261 1.571-.786 1.024-1.81 2.357-3.166 3.737a25.19 25.19 0 01-6.023 4.547 25.82 25.82 0 01-4.975 2.047c-2.07.619-4.38 1.024-6.998 1.166-.31.024-.595.024-.905.048-.785.024-1.928.286-3.285.667-1.523.428-3.284 1.023-5.093 1.642-1.429.476-2.88.976-4.238 1.404-2.832.881-5.284 1.5-6.403 1.191-.952-.262-1.452-1.286-1.666-2.571 1.761-1.357 3.69-2.452 5.713-3.476 1.214-.619 2.475-1.19 3.737-1.809a100.403 100.403 0 004.237-2.118c.429-.238 1.071-.572 1.857-1.024A56.931 56.931 0 0028.8 92.31c1.5-.976 3.19-2.166 4.927-3.57 1.214-.953 2.428-2.024 3.666-3.19a60.21 60.21 0 003.404-3.523 46.84 46.84 0 002.642-3.285 38.909 38.909 0 002.405-3.666c.238-.429.476-.833.69-1.238.738-1.357 1.31-2.618 1.833-3.832.38-.905.738-1.786 1.095-2.643.214-.547.404-.976.428-1.047.952-2.333 1.31-4.523 2.166-6.665.929-2.31 1.548-3.904 3.095-4.618 1.523-.714 3.094-.238 4.665.262 1.19.38 3.238 1.023 4.904 2.237-3.451 2.333-5.903 6.69-5.856 10.784z" fill="#FF378C"/><path d="M127.444 61.173c-4.309-1.095-9.165-8.783-10.117-13.02-.571-2.524 1.904-7.737 3.999-11.521a7.98 7.98 0 00-1.69-.5c-1.476-.262-2.714-.12-3.309-.048-2.69.357-4.57 1.547-6.165 2.952-2.642 2.332-4.404 4.427-5.665 6.284a33.478 33.478 0 00-1.572 2.523c-.975 1.81-1.618 3.07-1.809 3.475-1.57 3.143-6.022 4.833-8.569 5.785-2.714 1.023-6.45 2.428-10.83 1.523-3.12-.642-3.31-1.785-6.833-2.475-1.737-.334-4.998-.976-8.188.31-.69.285-1.357.642-1.976 1.07-3.451 2.333-5.903 6.69-5.856 10.783.048 4.31 2.857 6.404 1.452 10.212-.38 1.024-5.022 7.332-6.546 8.903-.333.333-.738.88-1.261 1.571-.786 1.024-1.81 2.357-3.166 3.737a25.185 25.185 0 01-6.023 4.547 25.812 25.812 0 01-4.975 2.047c-2.07.619-4.38 1.024-6.998 1.166-.31.024-.595.024-.905.048-.785.024-1.928.286-3.284.667-1.524.428-3.285 1.023-5.095 1.642-1.428.476-2.88.976-4.237 1.404-2.832.881-5.284 1.5-6.403 1.191-.952-.262-1.452-1.286-1.666-2.571-2 1.547-3.785 3.451-5.213 6.022-1.048 1.857-1.666 3.476-2.023 4.975-.477 1.976-.596 4.095-.405 6.189 2.856.81 8.26 2.047 12.95 1.262 6.76-1.119 15.924-6.475 20.97-7.046 5.047-.571 18.758-4.88 24.709-6.38 5.927-1.499 31.421-10.83 36.658-16.567 5.237-5.76 9.45-19.305 19.948-25.922 4.261-2.69 9.902-.739 15.068 2.499v-.095s-.191-2.619-.834-6.523a9.847 9.847 0 01-4.141-.119z" fill="#8D41E5"/><path d="M31.68 103.426c-.428.809-1.5 1.356-2.38 1.166-.762-.167-1.31-.881-2.143-3.38a22.373 22.373 0 01-.428-1.333 79.71 79.71 0 01-1.428-5.38c.047-.286.166-.88.571-1.428.214-.286.619-.833 1.38-1 .762-.167 1.358.19 1.548.286 1.238 4.713 1.976 6.689 2.333 7.57.071.19.166.38.238.571.428 1.095.762 2.071.31 2.928zm12.735-2.358c-.071.238-.523 1.786-1.713 2.095-.881.238-1.714-.357-2.167-.666-1.07-.762-1.547-1.69-2.19-3.166-.19-.453-.404-.952-.642-1.524-.929-2.142-.072.072-2-4.308a246.511 246.511 0 01-2-4.713 2.966 2.966 0 01.405-1.976c.143-.238.62-1 1.595-1.285a2.603 2.603 0 011.69.07c1.976 4.928 3.642 7.38 4.428 8.975.571 1.119 1.071 2 1.523 2.737.905 1.548 1.428 2.476 1.071 3.761zm9.022-9.117c-.024.31-.12 1.952-.928 2.333-.572.262-1.524-.024-3.166-1.571-1.833-1.714-4.547-4.951-8.57-10.688a3.073 3.073 0 01.262-1.524c.643-1.38 2.166-1.714 2.357-1.737 1.356 1.476 3.237 3.618 5.641 6.236 1.547 1.667 2.714 2.88 3.452 4 .69.975 1 1.88.952 2.951zm7.855-8.855c.452 1.405.071 3.31-.928 3.761-.833.381-2.285-.119-5.356-3.546a134.955 134.955 0 01-8.213-10.165c-.095-.238-.404-1.07-.071-2.047.476-1.404 1.88-1.833 2-1.88 2.808 2.5 4.737 4.713 5.998 6.355 1.88 2.405 2.095 3.214 3.785 4.642 1.38 1.19 2.357 1.619 2.785 2.88zm70.293-21.804a9.849 9.849 0 01-4.142-.12c-4.308-1.094-9.164-8.783-10.116-13.02-.572-2.523 1.904-7.736 3.999-11.521.285.119.595.262.88.428 2.024 1.19 3 3.047 3.5 4.07 3.261 6.737 4.998 14.712 5.879 20.163z" fill="#FFD800"/><path d="M130.038 94.213c-1.38-2.309-10.664 3.428-28.088 9.236-1.667.547-5.928 1.952-6.023 4.07-.047 1.143 1.119 2.047 1.262 2.143 2 1.499 5.094.428 6.784-.119 12.069-3.976 12.473-1.619 17.472-4.928 4.499-2.928 9.736-8.498 8.593-10.402z" fill="#FF378C"/></svg>