<svg width="144" height="144" viewBox="0 0 144 144" fill="none" xmlns="http://www.w3.org/2000/svg"><path d="M78.29 118.777c6.093-1.071 12.449-3.237 18.804-6.95 21.376-12.569 29.279-34.683 29.279-47.275 0-15.758 0-20.257-11.259-38.277-3.237-5.189-9.331-13.068-19.995-19.138A53.38 53.38 0 0084.764 2.59a3.081 3.081 0 00-3.928 2.095l-.023.12c-.405 1.451.285 2.975 1.594 3.617-.428.905-.976 2.071-1.618 3.428 1.19.381 2.118.714 2.761.928.81.286 1.833.667 2.975 1.12.357-1.262.69-2.524 1.048-3.785a51.143 51.143 0 0115.663 9.354c2.475 2.167 9.855 9.046 14.116 20.329 5.951 15.806 4.141 36.015-7.689 51.369-10.855 14.068-25.851 18.495-34.23 19.971a64.483 64.483 0 01-5.38.714c-1.809.167-3.57.262-5.284.286a59.198 59.198 0 01-14.711-1.738c.904-1.88 1.809-3.761 2.714-5.665a39.698 39.698 0 01-6.404-2.261c-1 2.213-1.952 4.213-2.809 5.998a3.08 3.08 0 00-3.618 2.285l-.024.119c-.357 1.476.381 3 1.786 3.595 4.094 1.738 12.901 4.856 23.827 5.261.5 6.569.524 13.354-1.428 13.806-3.856.881-16.21-2.333-19.281 2.928-.595 1.023-.738 1.809-.476 2.404 1.142 2.833 9.188 2.142 17.853 1.69 23.613-1.19 35.063.69 36.087-3.237.261-1.048-.334-2.024-.477-2.238-2.904-4.689-15.996 1.524-19.424-3.166-.785-1.071-.523-1.976-.309-6.284.143-2.571.19-4.832.214-6.856z" fill="#FF739E"/><path d="M115.067 60.22c-1.333 15.735-10.331 25.685-13.497 29.089-11.521 12.378-25.446 15.067-29.279 15.758-3.76.666-10.093 1.737-18.02 0-.5-.119-1.023-.238-1.499-.357a39.602 39.602 0 01-6.403-2.262c-8.998-4.046-14.52-10.402-16.853-13.14a47.942 47.942 0 01-3.047-3.975c9.045-7.879-1.095-10.402-1.38-17.115-.31-7.046 1.784-15.877 4.212-24.518 1.286-4.594-1.261-8.617-3.951-11.402a50.604 50.604 0 017.498-9.688c7.332 3.523 16.449 5.308 25.09-.119 6.117-3.832 8.902-8.522 9.878-13.116 1.88.119 3.666.31 5.308.571 3.119.5 5.737 1.214 7.69 1.833.332.095.618.19.904.286-.048 1.31-.31 2.809-1.048 4.284-1.809 3.738-4.975 4.19-4.88 6.118.143 2.904 7.403 4.76 10.95 5.523 2.642.571 5.404.452 9.284-.096 3.904-.547 6.165-1.57 7.498-2.523.881.952 1.738 2 2.595 3.095a43.438 43.438 0 013.761 5.855c-3.976 1.905-8.308 3.19-12.26 2.738-11.71-1.333-14.639-4.332-17.567.095-2.928 4.428-.214 3.928 3.071 8.808 3.261 4.88 22.495 13.544 5.57 10.426-16.924-3.119-15.71-9.141-24.613-5.166-8.903 4-10.355-2.452-13.283 5.166-2.88 7.498 4.833 19.424 9.26 18.876 1.405-.166 2.142-1.5 5.023-1.88 2.213-.286 3.166.333 3.451.523.238.167.905.69 1.452 2.262.738 2.118.524 3.999.405 4.951-.833 6.832-1.547 7.117-1.024 8.474 1.024 2.69 5.047 4.523 8.26 3.928 3.523-.643 3.404-3.737 7.641-5.975 5.356-2.856 9.094.238 11.355-2.261 2.809-3.142-2.738-8.189.024-14.592 2.142-4.975 8.141-7.689 10.021-8.45 1.286-.524 2.428-.596 4.142-1.072.833-.214 2.38-.547 4.261-.952z" fill="#3700ED"/><path d="M67.816 9.4c-.976 4.594-3.761 9.283-9.879 13.116-8.64 5.427-17.758 3.642-25.09.119 4.023-4.023 8.903-7.475 14.688-9.879 7.308-3.047 14.33-3.69 20.28-3.356zm35.681 16.018c-1.309.952-3.594 1.952-7.498 2.523-3.88.547-6.641.666-9.283.095-3.547-.762-10.807-2.618-10.95-5.522-.095-1.928 3.07-2.38 4.88-6.118.714-1.476 1-2.976 1.047-4.285.762.262 1.38.476 1.857.643.809.286 1.833.667 2.975 1.119C91 15.682 97.618 18.99 103.497 25.418zm11.593 34.61v.191c-1.905.404-3.452.737-4.333.976-1.714.452-2.832.547-4.142 1.07-1.88.739-7.879 3.452-10.021 8.451-2.761 6.403 2.785 11.45-.024 14.592-2.261 2.523-5.998-.571-11.354 2.261-4.237 2.238-4.118 5.332-7.641 5.975-3.19.595-7.237-1.238-8.26-3.927-.5-1.334.214-1.643 1.023-8.475.12-.952.31-2.832-.404-4.95-.548-1.572-1.19-2.096-1.453-2.262-.285-.215-1.237-.81-3.451-.524-2.857.38-3.618 1.714-5.023 1.88-4.451.548-12.14-11.378-9.26-18.876 2.928-7.617 4.38-1.166 13.283-5.165 8.903-3.976 7.689 2.047 24.613 5.165 16.925 3.118-2.309-5.546-5.57-10.426-3.26-4.88-5.998-4.38-3.07-8.808 2.927-4.427 5.855-1.428 17.567-.095 3.951.452 8.284-.833 12.259-2.737 6.046 11.307 5.546 22.28 5.261 25.684zM26.492 85.334c-3.57-5.19-5.285-9.808-5.951-11.783-.524-1.548-3.309-10.022-2.262-20.258.69-6.665 3-14.115 7.094-20.97 2.69 2.76 5.237 6.807 3.951 11.401-2.428 8.641-4.522 17.472-4.213 24.518.286 6.69 10.402 9.212 1.38 17.092zm63.7 4.093c-.548-.071-2.261-.143-5.57 2.571-1.81 1.476-4.737 4.308-4.214 5.142.215.333.929.357 2.286-.024 4.403-1.238 5.284-3.452 7.498-4.404 2.047-.904 2.166-1.785 2.095-2.19-.143-.666-1.333-1-2.095-1.095z" fill="#02C961"/></svg>