<svg width="143" height="143" viewBox="0 0 143 143" fill="none" xmlns="http://www.w3.org/2000/svg">
<g clip-path="url(#clip0_552_2438)">
<path d="M72.3275 61.2493C69.8226 63.2876 66.4336 72.7424 65.2794 76.1068C65.1812 75.7384 65.0829 75.4437 64.9356 75.2473C65.4267 73.5528 66.1635 70.6795 66.4091 68.2974C66.802 64.6629 69.2823 53.7838 65.4513 50.5176L64.4936 52.2366C64.4936 52.2366 65.4513 52.4331 65.8197 53.3908C66.2126 54.3486 66.9739 60.0706 66.581 61.6177C66.2863 62.7965 64.8374 71.2689 64.1989 74.9771C61.915 75.6648 56.8315 86.814 56.414 87.7226C55.6527 89.368 54.8669 91.2344 54.8669 91.2344C53.5162 94.4269 52.6813 96.7353 52.4357 97.3984C49.366 105.65 42.3179 112.059 44.0615 114.343C44.5281 114.957 45.4121 115.006 45.6086 115.006C48.752 115.154 49.6361 108.99 55.9474 99.6086C57.3718 97.4721 58.9926 95.3356 61.2274 91.4554C62.6026 89.0733 63.3148 87.87 63.8796 86.3965C65.1566 83.0321 65.6232 79.1274 65.3531 76.8435C66.8511 73.4791 71.0996 64.0735 71.8854 63.1157C72.8432 61.9615 74.5622 60.6354 77.0426 58.9163C79.5229 57.1973 81.0455 57.5902 81.0455 57.5902V55.6747C77.8775 55.7238 75.3727 58.769 72.3275 61.2493Z" fill="#FF0068"/>
<path d="M52.8777 45.6545C46.8119 29.6674 33.3051 1.00843 16.483 14.5152C-0.339075 28.022 -5.56988 46.4895 6.8318 56.9756C19.2335 67.4618 34.1155 76.8183 41.5811 80.1336C46.1488 82.1719 51.3305 84.0874 54.6458 85.2662C47.9415 85.4872 28.3935 86.2485 21.8121 87.7711C13.8308 89.6129 7.9369 92.0687 7.44575 96.8575C6.95459 101.646 8.67364 106.681 14.0764 106.189C19.4791 105.698 58.1085 86.4695 58.1085 86.4695C58.1085 86.4695 58.9434 61.6416 52.8777 45.6545Z" fill="#FF7300"/>
<path d="M142.612 67.4617C140.746 45.9737 110.687 56.0424 94.9456 62.6975C79.5969 69.2053 62.7257 86.2239 61.8908 87.0834H61.8662C61.8662 87.0834 61.8662 87.0834 61.8662 87.108C61.8662 87.108 61.8662 87.108 61.8908 87.108C62.6029 88.4586 82.1264 125.271 86.1539 128.758C90.255 132.319 94.6017 129.225 96.9839 125.05C99.366 120.875 96.0261 115.448 90.5988 109.284C86.7678 104.937 74.8573 95.4576 68.1776 90.2759C71.0508 91.6757 74.5626 93.2965 77.8779 94.6718C85.4171 97.766 102.485 102.039 118.619 103.758C134.754 105.502 144.479 88.9498 142.612 67.4617Z" fill="#FF7300"/>
</g>
<defs>
<clipPath id="clip0_552_2438">
<rect width="142.82" height="142.82" fill="white"/>
</clipPath>
</defs>
</svg>
