<svg width="143" height="143" viewBox="0 0 143 143" fill="none" xmlns="http://www.w3.org/2000/svg">
<g clip-path="url(#clip0_552_2327)">
<path d="M8.51199 95.6916C7.55259 97.6104 8.29059 99.6768 9.29919 102.284C11.9806 109.148 13.3336 112.592 14.662 114.781C14.662 114.781 18.9178 121.817 24.4282 126.909C33.6778 135.421 49.5694 140.464 64.8707 139.701C83.9111 138.742 109.2 128.483 115.916 110.033C118.917 101.792 118.523 91.2144 126.74 86.1468C128.855 84.843 136.85 80.6364 136.334 78.5454C136.285 78.3978 136.063 77.6352 135.571 76.7988C135.448 76.5774 134.809 75.4704 134.292 75.1014C132.841 74.019 129.249 76.233 124.403 79.554C121.106 81.7926 119.483 82.9242 118.597 83.6376C106.1 93.8712 99.2123 99.5046 90.2825 103.76C85.2641 106.147 65.6087 114.806 43.5178 109.541C31.8082 106.762 24.1084 104.917 19.8772 98.7174C18.721 97.0446 16.4086 92.9856 13.0876 92.9364C11.2672 92.8872 9.34839 94.068 8.51199 95.6916Z" fill="#FFD652"/>
<path d="M10.5291 93.3785C9.47129 93.5753 8.73329 93.6983 8.31509 94.3133C7.99529 94.7807 7.89689 95.4941 8.14289 96.0107C9.12689 98.0525 15.9411 97.4375 16.3839 95.7647C16.5069 95.3219 16.2117 94.7315 15.9411 94.3871C15.6705 94.0427 15.2769 93.8213 14.4651 93.5999C13.6533 93.4031 12.3249 93.0587 10.5291 93.3785Z" fill="black"/>
<path d="M49.225 88.0915C47.0848 89.3215 44.7724 88.7311 39.6555 87.1567C22.1157 81.7201 13.2351 78.8665 6.91291 72.5443C3.09991 68.7313 0.0249027 65.6317 0.000302649 61.3021C-0.0242974 58.2763 1.4517 56.0869 4.08391 53.6515C6.88831 51.0931 10.9965 48.2641 16.0149 43.9099C30.1845 31.6591 45.7564 12.3973 56.2114 10.1587C56.5066 10.0849 56.8018 10.0603 57.1462 10.1587C63.5668 12.0775 55.1044 57.1447 52.8412 68.1901C51.9064 72.7903 52.423 77.8087 52.1278 81.7447C51.931 84.6229 51.2668 86.9353 49.225 88.0915Z" fill="#FF0068"/>
<path d="M49.225 88.0912C48.8068 88.3372 48.3886 88.4848 47.9458 88.6078C46.5928 88.9276 44.9938 88.6816 42.6322 88.042C41.7466 87.796 40.7626 87.5008 39.6555 87.1564C36.4083 86.1478 33.4563 85.2376 30.7749 84.3766C29.7663 84.0568 28.8069 83.737 27.8475 83.4172C25.0431 82.4824 22.5339 81.5968 20.2707 80.6866C19.1391 80.2192 18.0567 79.7764 17.0481 79.309C13.0875 77.4886 9.98791 75.5206 7.35571 72.9868C7.20811 72.8392 7.06051 72.7162 6.91291 72.5686C5.70751 71.3632 4.60051 70.2316 3.61651 69.1246C1.4763 66.6892 0.0249027 64.303 0.000302649 61.3264C-0.0242974 58.3006 1.4517 56.1112 4.08391 53.6758C4.99411 55.6684 6.93751 58.6942 11.0211 63.0484C11.1195 63.1468 11.2179 63.2452 11.3163 63.3682C12.2265 64.3276 13.1613 65.2624 14.0961 66.148C16.1871 68.1406 18.3027 69.9118 20.4429 71.4862C20.9103 71.8552 21.4023 72.1996 21.8697 72.5194C25.4859 75.0778 29.0775 77.0458 32.4477 78.5464C33.2103 78.8662 33.9483 79.186 34.6863 79.4566C36.2853 80.0716 37.8351 80.5636 39.2865 80.9572C40.4427 81.277 41.6728 81.4738 42.9028 81.646C44.0098 81.7936 45.1414 81.8674 46.2484 81.9166C48.3148 81.9904 50.3566 81.9166 52.1278 81.7936C51.931 84.6226 51.2668 86.935 49.225 88.0912Z" fill="#32B244"/>
<path d="M12.4968 68.9778C11.2176 69.888 9.27422 71.4132 7.35542 72.963C7.20782 72.8154 7.06022 72.6924 6.91261 72.5448C5.70721 71.3394 4.60021 70.2078 3.61621 69.1008C5.83021 68.0184 8.46242 66.1734 11.0208 63C11.1192 63.0984 11.2176 63.1968 11.316 63.3198C12.2262 64.2792 13.161 65.214 14.0958 66.0996C13.9482 67.2312 13.4808 68.289 12.4968 68.9778Z" fill="black"/>
<path d="M20.2949 80.6625C19.1633 80.1951 18.0809 79.7523 17.0723 79.2849C17.5643 77.8089 18.1547 76.1607 18.6959 74.7093C19.0649 73.7499 19.7045 72.5937 20.4671 71.4375C20.9345 71.8065 21.4265 72.1509 21.8939 72.4707C21.4265 73.8483 21.0575 75.2013 20.9591 76.3821C20.8361 77.9073 20.5655 79.3833 20.2949 80.6625Z" fill="black"/>
<path d="M34.6865 79.4075C33.6041 80.8835 32.4971 82.3103 31.6361 83.3189C31.3409 83.6633 31.0457 84.0077 30.7751 84.3521C29.7665 84.0323 28.8071 83.7125 27.8477 83.3927C28.4381 82.7531 29.2253 81.9167 30.2339 80.7851C30.9473 79.9733 31.7099 79.1861 32.4479 78.4727C33.2105 78.8171 33.9485 79.1369 34.6865 79.4075Z" fill="black"/>
<path d="M47.9459 88.6087C46.5929 88.9285 44.9939 88.6825 42.6323 88.0429C42.2387 85.4599 42.4601 83.2951 42.8783 81.5977C43.9853 81.7453 45.1169 81.8191 46.2239 81.8683C46.2239 81.9667 46.2239 82.0651 46.1993 82.1389C46.1009 83.3197 47.0111 86.0749 47.9459 88.6087Z" fill="black"/>
<path d="M38.3766 27.2055C37.3926 28.0665 36.7284 29.5917 37.1712 30.0837C37.6632 30.6249 39.459 29.7885 40.4184 28.8291C41.0826 28.1895 41.1318 27.7221 41.1318 27.5253C41.1318 27.4761 41.1318 26.7873 40.689 26.4921C40.0494 26.0493 38.9178 26.7381 38.3766 27.2055Z" fill="black"/>
<path d="M49.1266 49.6655C49.0774 50.6003 49.3726 51.2645 49.5202 51.6089C49.7662 52.1255 49.8892 52.3715 50.086 52.4207C50.6764 52.5191 51.562 50.8217 51.6358 49.2965C51.685 48.3863 51.3898 47.9927 51.2668 47.8451C51.2176 47.7959 50.7502 47.2793 50.2336 47.3777C49.471 47.5007 49.1758 48.9767 49.1266 49.6655Z" fill="black"/>
<path d="M22.5096 54.3644C21.6732 55.2008 21.2796 56.5784 21.6978 56.9474C21.9438 57.1688 22.485 56.972 23.2968 56.6768C23.8134 56.48 24.2316 56.3324 24.6252 55.9142C24.8712 55.6682 25.2894 55.2254 25.2894 54.5858C25.2894 54.5366 25.2648 53.8478 24.822 53.5526C24.1578 53.159 23.0754 53.8232 22.5096 54.3644Z" fill="black"/>
<path d="M103.813 51.6338C99.8522 47.378 93.0134 45.5576 88.1426 46.0988C87.1586 46.1972 85.4858 46.4924 83.7392 46.8368C82.952 46.9844 82.1402 47.1566 81.353 47.3042C80.6642 47.4272 80 47.5748 79.4096 47.6978C76.679 48.239 75.3014 48.5096 74.219 48.8294C69.791 50.0594 66.2732 51.0434 64.1576 54.0446C63.149 55.4714 62.78 56.9228 62.2388 58.9892C61.55 61.6214 61.5008 63.737 61.4762 64.7456C61.4024 68.3864 62.0174 75.9386 66.716 84.278C69.053 88.4108 70.2092 90.4772 72.8414 92.2484C77.4662 95.3972 82.7798 95.0774 87.2816 94.8314C91.7342 94.5854 94.7846 94.3886 97.7858 92.4698C102.435 89.4194 103.714 84.1304 105.092 77.9804C107.454 67.427 109.618 57.8576 103.813 51.6338Z" fill="#32B244"/>
<path d="M84.7227 42.0146C84.7227 42.0146 83.7633 43.6628 83.7879 45.1634C83.7879 45.5078 83.7879 46.1228 83.7387 46.8362C82.9515 46.9838 82.1397 47.156 81.3525 47.3036C81.5739 44.4008 82.6317 41.6456 82.6317 41.6456L83.4435 41.375L84.7227 42.0146Z" fill="black"/>
<path d="M68.4382 54.8809C66.4702 56.7013 65.6584 59.3827 65.6584 59.3827C64.5022 63.2941 64.8958 68.9767 67.3804 70.0099C67.9462 70.2559 68.758 70.2805 69.3238 69.9361C70.0618 69.4933 70.3816 68.5093 70.4554 66.3445C70.603 62.6791 69.7912 62.3101 70.0126 60.2929C70.4062 56.6767 73.309 54.8317 72.571 53.9215C72.1036 53.3311 70.603 53.6509 69.8158 53.9461C69.1762 54.2413 68.7334 54.6103 68.4382 54.8809Z" fill="white"/>
<path d="M140.614 22.0903C144.968 28.2895 141.721 36.8749 140.983 38.7691C140.319 40.5157 137.982 46.0015 132.078 49.7653C130.011 51.0691 123.025 55.5217 115.571 52.6189C110.011 50.4541 107.478 45.4849 106.666 43.5169C104.329 37.9327 105.706 32.9143 106.248 31.0693C106.543 30.0607 108.511 23.7631 114.612 19.8025C122.484 14.7349 135.448 14.7349 140.614 22.0903Z" fill="#FF7300"/>
<path d="M111.635 27.0096C111.635 27.0096 110.38 25.9272 109.15 20.7612C107.92 15.5952 117.121 3 117.121 3C117.121 3 117.637 3.3444 117.096 8.51041C116.555 13.6764 115.891 19.974 114.661 22.3602C113.431 24.7464 111.635 27.0096 111.635 27.0096Z" fill="#32B244"/>
<path d="M113.284 46.2214C113.308 46.5412 113.185 47.0086 112.89 47.0824C112.669 47.1316 112.423 46.984 112.3 46.8118C111.931 46.3444 112.275 45.4096 112.644 45.3604C112.89 45.3358 113.234 45.7786 113.284 46.2214Z" fill="#FFD652"/>
<path d="M118.007 49.3715C118.228 49.7897 118.228 50.4047 117.957 50.5523C117.613 50.7491 116.752 50.2325 116.752 49.6175C116.752 49.2977 116.949 48.9041 117.293 48.8549C117.687 48.8057 117.982 49.3223 118.007 49.3715Z" fill="#FFD652"/>
<path d="M110.553 42.4328C110.553 42.5066 110.43 43.097 110.061 43.22C109.667 43.343 109.077 42.9002 109.052 42.4082C109.003 41.7932 109.765 41.252 110.159 41.375C110.356 41.4488 110.479 41.7194 110.503 41.8424C110.528 41.9162 110.602 42.1376 110.553 42.4328Z" fill="#FFD652"/>
<path d="M114.76 41.5974C114.784 41.8188 114.809 42.0894 114.661 42.2124C114.415 42.4092 113.751 42.2124 113.554 41.745C113.456 41.499 113.505 41.1546 113.726 40.9332C113.751 40.9086 113.997 40.6626 114.268 40.7364C114.661 40.8594 114.735 41.4252 114.76 41.5974Z" fill="#FFD652"/>
<path d="M117.441 45.0654C117.416 45.2868 117.416 45.5328 117.268 45.6066C116.998 45.7542 116.26 45.3114 116.309 44.7948C116.334 44.352 116.875 43.983 117.17 44.106C117.514 44.2536 117.465 44.9916 117.441 45.0654Z" fill="#FFD652"/>
</g>
<defs>
<clipPath id="clip0_552_2327">
<rect width="142.82" height="142.82" fill="white"/>
</clipPath>
</defs>
</svg>
