<svg width="143" height="143" viewBox="0 0 143 143" fill="none" xmlns="http://www.w3.org/2000/svg">
<g clip-path="url(#clip0_552_2373)">
<path d="M141.237 51.7143C132.943 49.4323 124.919 53.7263 115.203 47.9846C105.486 42.2675 128.649 21.9508 126.367 19.3744C124.085 16.798 108.332 33.3851 92.0398 30.5388C75.7227 27.6679 85.1694 9.36328 82.0287 5.36374C78.8879 1.36419 67.4291 31.692 57.7125 30.5388C47.9958 29.3855 45.4194 15.6693 39.6777 12.7985C39.2606 12.6022 38.9661 12.5531 38.6472 12.6267C34.4022 13.7554 43.3092 38.4888 34.3041 45.6045C28.9059 49.874 13.9138 50.3156 11.3619 50.2911C10.5277 50.2911 7.77953 50.193 6.42999 51.9351C6.33184 52.0823 5.66934 52.9166 5.71841 53.849C5.79202 56.3763 10.773 57.3578 17.7661 60.9647C26.8203 65.6268 27.9245 68.8411 28.2189 70.2643C28.4152 71.1967 28.5133 72.1782 28.2189 73.405C25.9124 82.999 9.42351 93.7953 10.773 96.568C10.9448 96.9361 11.5092 97.3532 14.5027 97.1324C26.5995 96.2981 32.3411 88.3236 38.3772 90.4828C41.1254 91.4643 42.4749 94.0407 42.5486 94.1634C45.812 100.568 37.3958 109.892 39.2606 119.706C39.4078 120.467 39.5796 121.031 40.0212 121.228C43.0148 122.553 50.2777 103.537 59.9944 103.954C62.4481 104.052 64.2884 105.377 64.7791 105.769C68.1407 108.297 69.2449 113.008 71.0115 121.031C71.7967 124.614 72.2875 127.73 74.2995 128.344C75.281 128.663 76.2379 128.221 76.5078 128.098C79.7222 126.601 78.9861 121.252 81.0227 114.308C82.6176 108.91 83.7463 105.033 86.6171 103.978C92.187 101.942 103.45 111.143 106.443 117.425C106.836 118.234 108.112 121.13 109.633 121.031C110.443 120.982 111.032 120.124 111.228 119.805C114.148 115.339 107.645 98.5555 112.945 93.1083C122.392 83.3916 140.132 93.4027 138.979 87.0967C137.826 80.7907 121.803 76.2268 122.392 69.062C122.981 61.8971 149.53 53.9962 141.237 51.7143ZM113.731 68.6203C113.412 78.5333 108.234 85.2073 106.762 87.0231C99.4745 96.1509 85.6356 99.0463 84.875 99.218C68.4106 102.555 55.5287 94.8013 53.2467 93.3782C50.3268 91.5624 45.6402 88.5444 41.837 82.7536C41.1745 81.7476 32.5129 68.0314 38.4018 53.1129C39.236 50.9781 41.3462 46.3897 45.812 42.2184C56.7801 31.9865 72.8273 33.5323 76.5324 33.9003C79.6977 34.1948 101.511 36.624 110.246 53.4564C113.902 60.4985 113.78 67.1971 113.731 68.6203Z" fill="#BC2B55"/>
<path d="M113.731 68.6194C113.412 78.5324 108.235 85.2065 106.762 87.0222C99.4749 96.15 85.636 99.0454 84.8754 99.2172C68.411 102.554 55.529 94.8005 53.2471 93.3773C50.3272 91.5616 45.6406 88.5435 41.8374 82.7528C41.1749 81.7468 32.5133 68.0305 38.4022 53.112C39.2364 50.9773 41.3466 46.3888 45.8124 42.2175C56.7804 31.9856 72.8277 33.5314 76.5328 33.8995C79.6981 34.1939 101.512 36.6231 110.247 53.4555C113.903 60.4977 113.78 67.1963 113.731 68.6194Z" fill="#FFB000"/>
<path d="M49.124 54.6102C49.124 54.6102 49.4675 58.9042 56.3134 62.1431C63.1592 65.4065 72.1643 53.7514 72.1643 53.7514L70.0296 52.8926C70.0296 52.8926 65.9074 58.5606 63.6745 59.3949C61.4416 60.2537 56.1416 61.3333 53.737 57.8C51.3324 54.2667 51.3324 54.2667 51.3324 54.2667L49.124 54.6102Z" fill="#374993"/>
<path d="M99.4252 54.61C99.2044 55.2725 97.4132 60.4253 92.2358 62.1429C88.7025 63.3207 85.6599 62.2411 84.433 61.7994C79.0104 59.7874 76.802 54.8063 76.3604 53.7512C76.9002 53.5304 77.44 53.3096 77.9798 53.1133C78.2497 53.8249 80.0409 58.2906 84.8011 60.0082C85.6599 60.3026 90.0275 61.873 93.7571 59.2721C96.1372 57.6281 96.947 55.1744 97.1923 54.2665L99.4252 54.61Z" fill="#374993"/>
<path d="M45.4925 68.5212C45.4925 68.5212 58.0555 84.7893 75.0351 82.3601C92.0393 79.9555 99.4004 66.8281 99.4004 66.8281L100.897 67.6378C100.897 67.6378 97.462 74.5082 93.1189 77.5999C88.7759 80.667 81.3166 84.6666 76.3601 85.0101C71.4036 85.3781 59.086 83.7342 53.2953 78.1397C47.5045 72.5207 44.0693 69.2818 44.0693 69.2818L45.4925 68.5212Z" fill="#EE5F9D"/>
<path d="M80.2131 66.117C80.0904 68.7179 76.1154 70.4846 73.0974 70.6073C70.3737 70.73 66.5214 69.5767 66.1288 67.2948C65.7362 65.0128 69.0242 62.7309 71.3062 61.8966C72.1159 61.6022 74.6677 60.6943 77.1705 62.0438C78.3728 62.6818 80.3113 64.2276 80.2131 66.117Z" fill="#BC2B55"/>
<path d="M22.5262 31.3234C22.5262 31.3234 24.5873 27.4956 27.9734 27.2011C28.9795 27.103 30.9915 26.3914 32.8318 27.471C33.8623 28.0845 34.3776 28.9433 34.7457 29.5812C34.991 29.9984 36.635 32.8937 35.5063 34.6849C34.7702 35.8627 33.1753 36.0835 32.5373 36.1817C26.9429 37.065 1.17896 41.04 0.295622 37.3595C-0.587713 33.6789 0.418307 31.3234 4.54053 30.5872C8.66276 29.8511 10.5767 33.6053 10.5767 33.6053C10.5767 33.6053 11.3128 28.9678 14.5517 26.9803C17.8151 24.9928 22.5262 27.0539 22.5262 31.3234Z" fill="#374993"/>
<path d="M124.38 129.152C124.797 128.563 127.643 124.613 132.624 124.245C133.41 124.196 136.477 124 139.274 126.036C139.887 126.502 141.311 127.557 142.12 129.52C142.979 131.631 143.102 134.747 141.433 136.464C140.035 137.912 137.875 137.888 137.066 137.888C108.578 137.691 95.0582 139.36 92.7763 132.735C92.1138 130.796 92.3591 128.024 93.7578 126.11C95.8679 123.239 99.9656 123.092 100.604 123.067C101.266 123.067 102.468 123.043 103.793 123.681C104.996 124.245 105.683 125.055 105.855 125.226C107.425 127.067 107.67 129.741 107.67 129.741C108.333 125.766 110.958 122.527 114.492 121.521C117.951 120.54 122.785 121.546 124.282 124.834C124.969 126.502 124.65 128.195 124.38 129.152Z" fill="#374993"/>
</g>
<defs>
<clipPath id="clip0_552_2373">
<rect width="142.82" height="142.82" fill="white"/>
</clipPath>
</defs>
</svg>
