<svg width="143" height="143" viewBox="0 0 143 143" fill="none" xmlns="http://www.w3.org/2000/svg">
<g clip-path="url(#clip0_552_2251)">
<path d="M124.218 63.552C124.813 62.9824 126.868 63.3786 127.462 62.5367C128.354 61.3233 119.959 59.045 119.984 57.8069C120.008 56.5687 122.064 59.1193 123.624 57.8069C125.159 56.4944 115.601 53.2009 114.932 52.4085C114.288 51.6408 118.003 52.3094 120.38 50.5512C122.089 49.2635 115.452 49.4368 111.663 49.635C113.496 48.3473 116.839 45.1775 119.711 38.0457C123.921 27.645 125.655 13.0346 120.207 9.07249C114.759 5.11035 106.091 7.09142 103.367 12.787C100.643 18.4578 100.891 29.0566 91.06 37.9714C91.2086 36.9561 91.2829 35.5941 90.8372 35.1731C90.0943 34.455 86.2312 36.6342 85.3149 36.2875C84.3987 35.9656 87.8656 35.2969 86.9741 34.7274C86.0578 34.1578 80.5603 35.2969 79.3222 35.1731C78.084 35.0493 80.2384 34.3064 81.6995 33.4892C83.1853 32.672 75.4343 34.3064 73.4285 35.1731C71.3979 36.0398 73.9733 33.9102 74.5428 32.672C75.0133 31.6567 71.4969 35.8417 70.2588 37.3275C69.7635 37.4514 69.2435 37.5752 68.7482 37.699C68.7482 37.699 68.7482 37.699 68.773 37.699C72.2894 45.2271 75.3105 51.2198 77.4154 55.2562C81.3775 62.8834 82.9129 65.2359 84.1015 69.8667C85.414 74.9432 87.2712 82.2236 84.052 87.0029C78.6288 95.0263 60.3286 93.6891 48.3432 86.5077C40.617 81.8769 36.1596 75.2156 33.708 70.2133C32.7422 71.0801 32.9898 70.9067 32.2965 71.4763C26.1056 76.429 21.8958 79.8958 16.4479 86.582C10.9999 93.2681 7.78069 95.9921 6.79015 104.164C6.59205 105.873 6.59205 107.631 6.81492 109.315C7.63211 115.704 11.3714 121.399 17.4384 121.994C20.7567 122.316 24.6693 122.811 29.1763 122.836C35.1195 122.86 42.1028 122.018 50.1261 118.774C61.6659 114.119 67.411 111.791 69.1197 111.073C68.9216 112.905 68.7482 115.085 69.0701 114.688C69.6149 114.02 69.6149 112.064 69.9368 113.005C70.2835 113.946 69.813 116.769 70.5312 117.561C71.2741 118.353 70.8779 115.085 71.3236 115.877C71.7693 116.67 70.9769 120.904 71.6703 121.647C72.3389 122.39 72.1408 117.932 72.8837 118.7C73.6266 119.468 72.8094 121.87 74.1466 122.34C74.7905 122.563 75.0133 121.672 75.0629 120.681C78.5545 116.645 85.0425 109.265 89.6485 104.907C95.0469 99.7809 120.702 78.1376 129.84 70.4362C128.18 68.1828 126.298 65.8797 124.218 63.552Z" fill="#FF7300"/>
<path d="M16.8189 33.538C15.8779 30.5169 16.3979 27.2729 18.2057 24.9203C22.1678 19.72 34.3019 22.1964 42.7214 26.4061C51.141 30.6159 59.8082 40.2737 59.8082 40.2737C52.8497 43.4681 48.8875 48.4951 46.535 51.541C45.9654 52.2591 45.4702 52.9773 44.9749 53.6707C43.8358 52.2096 41.929 50.08 39.1803 48.0246C35.0695 44.9787 33.658 43.2205 26.8729 41.7595C21.202 40.546 17.958 37.1782 16.8189 33.538Z" fill="#FF7300"/>
<path d="M84.1263 69.8669C82.9377 65.2361 81.4271 62.8836 77.4402 55.2565C75.3353 51.22 72.2894 45.2273 68.7978 37.6992C68.7978 37.6992 68.7978 37.6992 68.773 37.6992C64.3899 38.8136 60.2049 40.126 59.8086 40.2499C59.8086 40.2499 59.8086 40.2499 59.7839 40.2499C52.8254 43.4443 48.8632 48.4713 46.5107 51.5172C45.9411 52.2353 45.4459 52.9535 44.9506 53.6469C44.8763 53.7707 44.802 53.8697 44.7277 53.9935C44.282 54.8603 43.0686 57.1385 41.459 59.8129C39.3788 63.2551 36.5806 67.3906 33.708 70.1641C36.1596 75.1663 40.617 81.8276 48.3432 86.4584C60.3287 93.615 78.6288 94.9522 84.052 86.9536C87.296 82.2238 85.4388 74.9434 84.1263 69.8669Z" fill="#FFD652"/>
<path d="M69.1687 77.8899C66.42 79.4748 62.4331 80.4901 57.629 80.0939C57.629 80.0939 56.8366 70.4361 60.3282 68.5046C62.1359 67.5141 64.5132 66.9693 66.841 67.1921C69.0202 67.415 71.1746 68.3065 72.6851 70.139C74.5176 72.3429 73.0318 75.686 69.1687 77.8899Z" fill="#32B244"/>
<path d="M133.133 67.7129C133.133 67.7129 131.919 68.7282 129.889 70.4369C120.751 78.1383 95.0962 99.7815 89.6977 104.908C84.7946 109.538 77.7865 117.562 74.4682 121.4C73.3291 122.737 72.6357 123.554 72.6357 123.554L82.0458 135.49C82.0458 135.49 113.322 110.479 120.602 104.066C127.908 97.6519 142.84 79.8717 142.84 79.8717L133.133 67.7129Z" fill="#007A96"/>
<path d="M99.6777 39.6302C99.6777 39.6302 105.77 34.0584 106.537 28.9819C107.305 23.9054 106.29 16.724 111.366 13.8515C116.443 10.9789 121.271 16.0554 120.504 20.1166C119.736 24.1778 112.778 43.4685 107.751 47.5049C102.724 51.5661 107.528 43.1961 106.933 42.0074C106.339 40.8436 103.293 45.7715 103.293 45.7715C103.293 45.7715 105.175 41.7846 103.987 40.7198C102.823 39.6549 101.164 44.1371 101.164 44.1371C101.114 43.5923 101.114 42.7999 101.362 41.9084C101.659 40.8188 102.129 40.3235 101.906 39.9273C101.758 39.6549 101.263 39.4073 99.6777 39.6302Z" fill="#FF0068"/>
<path d="M43.5881 46.7127C43.39 47.0841 46.1387 48.5947 45.8168 49.61C45.7425 49.8081 45.5939 49.9319 45.5444 49.9567C44.4548 50.6748 41.2851 47.7527 40.5422 47.0346C37.9173 45.0783 35.54 43.4687 33.5341 42.2305C30.3149 40.1999 28.7053 39.2094 27.2195 38.5655C23.183 36.8568 21.2267 37.2283 19.6666 35.1482C18.899 34.1081 18.1561 32.3747 18.8247 31.2108C19.4685 30.0964 21.1772 29.9726 21.8706 29.9231C30.8349 29.2545 47.2283 44.9545 47.3274 46.7127C47.3274 46.9108 47.2531 47.0346 47.2531 47.0346C46.7083 47.7775 43.7862 46.3412 43.5881 46.7127Z" fill="#FF0068"/>
<path d="M69.169 77.8892C68.7975 77.8892 68.4013 77.8397 68.0299 77.7654C65.1573 77.0968 63.3991 74.0509 64.142 70.9554C64.5382 69.2963 65.5535 67.9591 66.866 67.1914C69.0452 67.4143 71.1996 68.3058 72.7102 70.1383C74.5179 72.3422 73.0321 75.6853 69.169 77.8892Z" fill="black"/>
<path d="M66.1234 70.3872C66.3215 71.4768 65.4548 72.6406 64.2909 72.6902C63.127 72.7149 62.1365 71.6006 62.3098 70.4615C62.4584 69.4709 63.4489 68.7775 64.4395 68.8766C65.2814 68.9509 65.9748 69.5947 66.1234 70.3872Z" fill="white"/>
<path d="M47.9709 101.589C47.9709 101.589 46.5594 109.761 42.6715 112.708C39.6999 114.937 35.5149 120.013 29.2002 122.836C24.6933 122.811 20.7807 122.316 17.4624 121.994C11.3953 121.4 7.65606 115.704 6.83887 109.315L9.16663 109.811C9.16663 109.811 10.5781 117.042 16.7442 118.8C22.9103 120.558 27.1449 120.385 29.2745 118.8C31.4042 117.215 44.4545 110.281 44.2811 101.564H47.9709V101.589Z" fill="#FF0068"/>
<path d="M12.8073 107.012C11.3215 108.944 10.1576 110.405 8.34991 110.578C5.03162 110.875 2.15906 106.616 1.04471 103.744C0.549438 102.431 -1.03542 98.3947 1.04471 95.2497C3.02578 92.2533 6.98792 92.0057 10.1329 91.8324C13.1788 91.6342 15.6304 91.4857 16.9923 93.021C19.7906 96.1412 15.358 103.719 12.8073 107.012Z" fill="black"/>
<path d="M25.907 106.318C25.7832 106.962 25.2631 107.457 24.6193 107.531C23.8021 107.63 23.0344 107.036 22.9354 106.244C22.8116 105.303 23.703 104.411 24.6441 104.535C25.4365 104.659 26.0556 105.501 25.907 106.318Z" fill="#FFD652"/>
<path d="M36.7036 106.318C36.5798 106.813 36.1093 107.284 35.4902 107.309C34.8216 107.333 34.3263 106.789 34.2025 106.244C34.0291 105.451 34.6977 104.56 35.4406 104.535C36.2331 104.535 36.9265 105.526 36.7036 106.318Z" fill="#FFD652"/>
<path d="M34.0791 94.2826C33.9801 94.8522 33.5343 95.4217 32.8905 95.5208C32.0733 95.6446 31.2809 94.976 31.2066 94.1836C31.1075 93.2426 32.0238 92.3263 32.9153 92.4749C33.6829 92.5987 34.2277 93.4902 34.0791 94.2826Z" fill="#FFD652"/>
<path d="M54.3848 58.5009C54.3848 58.5009 61.789 58.7485 63.4482 59.0952C65.1073 59.4419 71.4963 59.5657 71.4963 59.5657V56.5941C71.4963 56.5941 64.1416 55.8759 62.6557 55.8759C61.1699 55.8759 54.3848 54.9102 54.3848 54.9102V58.5009V58.5009Z" fill="#FF7300"/>
<path d="M87.8904 122.984C87.5685 124.222 86.4541 125.857 84.6464 125.956C82.8634 126.03 81.3528 124.618 81.0804 123.058C80.6842 120.83 82.9129 118.972 84.7207 118.725C84.9683 118.7 85.9588 118.551 86.8256 119.17C88.039 120.012 88.2123 121.795 87.8904 122.984Z" fill="#32B244"/>
<path d="M104.803 108.325C104.407 109.786 102.971 111.321 101.188 111.148C99.3552 110.95 98.2408 109.093 98.216 107.533C98.1913 105.378 100.222 103.273 102.203 103.595C104.11 103.917 105.323 106.344 104.803 108.325Z" fill="#32B244"/>
<path d="M120.379 93.4415C120.404 95.5464 118.522 97.2056 116.541 97.2056C114.882 97.2056 113.322 96.0417 112.95 94.5311C112.405 92.2281 114.733 89.5537 117.16 89.8508C118.819 90.0242 120.354 91.5595 120.379 93.4415Z" fill="#32B244"/>
<path d="M136.08 79.8958C136.055 82.0997 133.628 83.8084 131.523 83.2636C130.038 82.8922 128.775 81.4063 128.874 79.6481C128.973 77.9147 130.359 76.6023 131.845 76.3546C133.95 76.0327 136.129 77.7909 136.08 79.8958Z" fill="#32B244"/>
</g>
<defs>
<clipPath id="clip0_552_2251">
<rect width="142.82" height="142.82" fill="white"/>
</clipPath>
</defs>
</svg>
