<svg width="143" height="143" viewBox="0 0 143 143" fill="none" xmlns="http://www.w3.org/2000/svg"><g clip-path="url(#clip0_552_2462)"><path d="M142.791 85.154v2.011c-.025 1.056-.025 2.16-.049 3.313 0 .344-.025.687-.025 1.055-.024 1.03-.049 2.06-.073 3.14 0 .197 0 .418-.025.614-.024.662-.024 1.35-.049 2.036 0 .32-.024.638-.024.982-.049 1.349-.074 2.747-.123 4.146-.025.368-.025.76-.049 1.128-.025.393-.025.786-.049 1.203-.049 1.226-.074 2.453-.123 3.68l-.074 1.717c-.024.859-.073 1.718-.098 2.601l-.073 2.183c0 .123 0 .246-.025.368-.024.859-.073 1.693-.098 2.528v.024l-.074 1.619v.098l-.073 1.522v.171c-.025.368-.025.736-.049 1.104 0 .197-.025.393-.025.589-.073 1.62-.147 3.19-.196 4.686 0 .098 0 .197-.025.295 0 .221-.024.466-.024.687v.024c-.025.466-.049.933-.074 1.374-.024.319-.024.638-.049.957 0 .123-.024.245-.024.344-.025.539-.049 1.055-.074 1.545 0 .172-.024.344-.024.515 0 .123-.025.246-.025.368-.024.27-.024.54-.049.786-.049.858-.074 1.619-.098 2.33 0 .148-.025.295-.025.442 0 .245-.024.491-.024.711 0 .099 0 .197-.025.27 0 .074 0 .148-.024.246v.196c-.025.245-.025.466-.025.687 0 .147-.024.294-.024.442v.49c-.025.368-.025.638-.049.785v.148s-68.623-.246-85.773 0C37.832 141.559 0 139.326 0 139.326c.76-15.358 1.84-28.19 2.772-37.587.687-6.992 1.374-13.003 2.061-18.18.344-2.674.712-5.152 1.055-7.41 2.257-14.303 4.417-20.755 6.33-25.687 3.337-8.562 6.55-16.585 13.985-24.78C36.556 14.25 49.756 8.386 53.289 6.913c.024-.024.368-.147.712-.294.294-.123.613-.245.98-.393.173-.073.369-.147.565-.22l.589-.221c.515-.196 1.08-.393 1.668-.614.368-.122.736-.27 1.129-.392.123-.05.27-.098.392-.123.663-.22 1.374-.466 2.11-.687.59-.196 1.203-.368 1.84-.564a83.41 83.41 0 014.613-1.202 56.65 56.65 0 012.233-.49C75.345.632 81.356-.129 87.71.042a62.51 62.51 0 0110.723 1.154h.024c.54.098 1.104.22 1.644.343.564.123 1.104.27 1.668.417.27.074.515.148.785.221.049 0 .074.025.098.025 1.104.319 2.209.662 3.288 1.055.564.196 1.104.392 1.668.613h.025c.27.098.54.221.81.32.269.122.539.22.809.343.025 0 .025 0 .025.024l.809.368c.27.123.565.245.835.393.024 0 .049.024.049.024.539.246 1.055.515 1.594.785.172.098.344.172.516.27.269.147.564.295.834.466.122.074.27.148.392.221.148.098.319.172.466.27.148.098.319.196.467.27.466.27.932.564 1.398.883 10.084 6.526 15.334 14.942 17.542 18.548.761 1.252 1.497 2.552 2.208 4.098 2.478 5.323 4.613 13.2 5.668 29.147.024.27.024.54.049.785.098 1.545.196 3.165.27 4.858.221 4.93.368 10.5.392 16.88.025.71.025 1.496.025 2.33z" fill="#DDD9C9"/><path d="M142.08 60.274c-4.048 2.503-9.716 5.349-16.414 8.22-13.543 5.863-31.257 11.948-47.867 15.947a177.94 177.94 0 01-5.79 1.3c-21.934 4.662-40.776 5.03-43.696-4.588-.049-.147-.073-.294-.122-.442a39.658 39.658 0 01-1.055-6.575c-1.497-20.879 17.002-29.392 25.27-26.055 9.078 3.68 13.69 15.653 13.69 15.653.074-1.546.81-11.58 9.176-17.592.785-.564 2.478-1.766 4.834-2.65 1.643-.637 3.582-1.128 5.74-1.177.418 0 .835 0 1.276.025 7.557.417 14.427 6.231 17.641 14.647-.098-.442-4.22-20.217 11.212-29.81 2.821-1.766 5.692-2.355 8.513-2.085 4.245.392 8.342 2.772 11.949 6.084 2.478 5.3 4.588 13.175 5.643 29.098z" fill="#067BBB"/><path d="M142.791 82.798a413.234 413.234 0 00-.393-16.88 231.095 231.095 0 00-.27-4.858c-.024-.27-.024-.54-.049-.785-1.055-15.923-3.189-23.823-5.667-29.147-.712-1.546-1.448-2.846-2.208-4.097-2.184-3.607-7.434-12.022-17.542-18.548l-1.399-.884a4.556 4.556 0 00-.466-.27 4.556 4.556 0 00-.466-.27c-.123-.073-.27-.147-.393-.22-.27-.147-.564-.32-.834-.466-.172-.098-.343-.197-.515-.27-.515-.27-1.055-.54-1.595-.785-.024 0-.049-.025-.049-.025-.27-.123-.54-.27-.834-.392l-.81-.368s-.024 0-.024-.025c-.27-.123-.54-.22-.81-.343-.27-.123-.54-.221-.81-.32h-.024a63.627 63.627 0 00-4.956-1.668c-.025 0-.074-.024-.098-.024-.27-.074-.515-.147-.785-.221-.565-.147-1.104-.294-1.669-.417a39.073 39.073 0 00-1.644-.344h-.024C94.826.435 91.244.091 87.735.018c-6.354-.147-12.365.614-17.59 1.669a50.49 50.49 0 00-2.234.49 96.114 96.114 0 00-4.612 1.202c-.638.197-1.251.368-1.84.565-.736.22-1.448.466-2.11.687-.123.049-.27.098-.393.122-.392.123-.76.27-1.128.393-.614.22-1.153.417-1.669.613-.196.074-.417.148-.588.221-.197.074-.368.147-.565.22-.343.148-.687.27-.981.393-.344.148-.663.27-.712.295-3.533 1.472-16.708 7.336-27.086 18.769-7.434 8.194-10.648 16.217-13.984 24.78-1.939 4.956-4.098 11.408-6.33 25.712a316.945 316.945 0 00-1.055 7.41c-.687 5.176-1.374 11.163-2.061 18.179a765.795 765.795 0 00-2.773 37.587s37.833 2.282 55.007 2.012 85.773 0 85.773 0v-.147c0-.147.024-.417.049-.785v-.491c0-.147.024-.27.024-.442 0-.22.025-.441.025-.687v-.196c0-.073 0-.147.024-.245 0-.098 0-.172.025-.27 0-.221.024-.466.024-.712 0-.147.025-.294.025-.441.024-.712.073-1.497.098-2.331.024-.245.024-.515.049-.785 0-.123.025-.245.025-.368 0-.172.024-.344.024-.515.025-.491.049-1.006.074-1.546 0-.123 0-.245.024-.343.025-.319.025-.638.049-.957.025-.442.049-.908.074-1.374v-.025c0-.221.024-.466.024-.687 0-.098 0-.196.025-.294.074-1.497.147-3.067.196-4.686 0-.196.025-.393.025-.589.024-.368.024-.736.049-1.104v-.172l.073-1.521v-.098l.074-1.619v-.025c.025-.834.074-1.668.098-2.527 0-.123 0-.245.025-.368l.073-2.184c.025-.858.074-1.717.098-2.6l.074-1.718c.049-1.226.098-2.453.123-3.68.024-.392.024-.785.049-1.202.024-.368.024-.761.049-1.129.049-1.398.098-2.772.123-4.146 0-.319.024-.662.024-.981.025-.687.049-1.374.049-2.037 0-.22 0-.417.025-.613.024-1.08.049-2.135.073-3.14 0-.344.025-.712.025-1.055.024-1.154.049-2.258.049-3.313v-2.011c-.049-.86-.049-1.644-.049-2.38zM93.697 7.354a50.172 50.172 0 019.667 2.404c.834.295 1.668.638 2.527.982a48.07 48.07 0 016.992 3.704c5.202 3.362 8.98 7.263 11.63 10.624 2.011 2.527 3.385 4.76 4.22 6.158 3.091 5.103 5.986 11.703 7.188 30.914-9.127 1.52-18.941 2.968-23.798 3.19-5.619.245-18.377 1.643-30.914 3.09 1.89-9.15 3.46-17.15 3.803-20.633.147-1.374.442-3.263.859-5.496 1.398-7.58 4.072-19.137 6.084-27.577.663-2.92 1.3-5.47 1.742-7.36zM18.377 52.4c3.017-7.753 5.937-14.991 12.66-22.4 9.371-10.354 21.295-15.654 24.485-16.979.024-.024.343-.147.637-.27 4.54-1.864 17.273-6.55 31.699-5.937-.344 1.595-.834 3.779-1.398 6.355a2411.18 2411.18 0 00-4.343 20.118c-.712 3.41-1.398 6.82-2.036 10.182-1.767 9.225-3.288 18.106-4.81 25.614-8.807 1.03-16.904 1.963-21.54 2.453-.074 0-.172.025-.246.025-4.907.515-15.383 1.496-26.35 2.551-4.858.467-9.814.933-14.426 1.374 1.987-12.831 3.95-18.646 5.667-23.087zm43.67 82.141c-.98 0-1.889.025-2.723.025-.834 0-1.594.024-2.257.024-15.506.221-49.731-1.815-49.731-1.815A706.274 706.274 0 019.838 98.77c.59-6.06 1.202-11.31 1.791-15.85 5.79-.564 11.9-1.177 16.684-1.766 2.92-.344 5.348-.687 6.918-.981 2.773-.516 8.342-1.252 14.917-2.037 7.532-.908 16.39-1.864 23.824-2.65-.565 2.92-1.227 6.453-1.939 10.256a601.26 601.26 0 01-1.251 6.698c-2.085 11.261-4.294 23.357-5.57 29.171-1.153 5.3-2.306 9.79-3.164 12.93zm73.825-27.724c-.54 14.156-1.202 27.773-1.202 27.773s-43.18-.147-66.513-.074a974.981 974.981 0 002.748-13.273c.957-4.858 1.815-9.617 2.183-12.659.147-1.252.49-3.215.957-5.692.908-4.736 2.282-11.385 3.778-18.426.663-3.14 1.35-6.379 2.012-9.568 1.816-.197 3.484-.368 4.883-.516a473.45 473.45 0 003.459-.368c4.146-.417 21.32-2.993 37.513-5.47 3.582-.54 7.115-1.105 10.476-1.62.197 4.318.295 9.2.319 14.745.025 6.011-.269 15.702-.613 25.148z" fill="#820002"/><path d="M45.316 93.494c-3.558 2.012-6.33 4-8.318 5.57-3.287 2.625-4.636 4.268-4.76 6.231-.024.393-.122 1.718.737 2.552 1.03 1.006 2.797.687 3.484.54 4.833-.859 8.44-13.396 8.857-14.893zm46.271-7.236c-2.478 3.14-4.588 5.594-6.133 7.287-2.748 3.042-4.785 5.03-4.245 6.943.32 1.128 1.399 1.815 1.448 1.84 0 0 1.3.81 3.312.319 2.65-.613 4.784-7.36 5.618-16.39zm-36.115 26.496a37.073 37.073 0 00-7.336 7.041c-3.729 4.76-3.214 6.649-3.042 7.189.074.196.515 1.398 1.693 2.036 0 0 1.251.663 3.067.148 2.576-.687 4.71-7.385 5.618-16.414zm49.879-10.477a63.238 63.238 0 00-6.992 7.164c-2.135 2.601-3.41 4.637-3.386 7.066.025 1.693.638 2.356.834 2.527 1.276 1.227 3.631.565 4 .467 4.98-1.374 5.495-15.703 5.544-17.224zm26.988 8.491c-3.263 2.698-5.717 5.201-7.361 7.066-3.41 3.802-4.048 5.397-3.704 6.82.245 1.006.981 2.086 2.085 2.601 0 0 1.399.638 3.41-.074 2.945-1.079 5.03-7.679 5.57-16.413zm0-35.282c-3.067 2.724-5.373 5.226-6.992 7.164-2.38 2.822-3.411 4.54-3.165 6.453.049.344.245 1.89 1.423 2.65 0 0 1.153.736 3.14.147 4.269-1.276 5.471-15.089 5.594-16.414z" fill="#067BBB"/></g><defs><clipPath id="clip0_552_2462"><path fill="#fff" d="M0 0h142.82v142.82H0z"/></clipPath></defs></svg>