<svg width="144" height="144" viewBox="0 0 144 144" fill="none" xmlns="http://www.w3.org/2000/svg">
<path d="M127.119 81.8223C124.024 67.3921 109.308 59.5816 101.95 53.6048C100.069 52.0808 96.735 51.1759 92.5679 50.7473C98.3542 48.247 103.45 45.1276 105.093 41.6987C108.974 33.6025 111.284 24.6253 112.07 17.815C112.856 10.9809 112.07 2.88477 112.07 2.88477L53.5873 13.124L30.7514 17.815C30.7514 17.815 32.2992 29.3401 35.7757 38.2935C39.2523 47.2469 39.6571 49.5091 45.4673 52.2237C47.8962 53.3428 51.9204 54.3906 56.2304 55.1764C54.8255 55.6526 53.5158 56.1765 52.3967 56.7004C40.3953 62.3439 28.775 71.964 23.3458 81.8461C17.9166 91.7281 15.6068 97.5621 14.059 111.207C12.5112 124.851 14.059 141.281 14.059 141.281C14.059 141.281 90.3533 133.4 102.736 132.542C115.118 131.685 131.001 131.685 131.001 131.685C131.001 131.685 131.001 123.589 131.001 115.731C131.001 107.873 130.239 96.2763 127.119 81.8223Z" fill="#66CC66"/>
</svg>
