<svg width="144" height="144" viewBox="0 0 144 144" fill="none" xmlns="http://www.w3.org/2000/svg">
<path d="M50.9832 47.6046C50.9832 47.6046 54.2216 34.6031 47.459 26.7451C40.6963 18.8871 37.9817 17.2679 30.6714 18.3394C23.361 19.411 15.241 21.054 10.6215 27.269C6.00191 33.484 0.334597 48.3904 1.97764 66.6782C3.62068 84.966 5.2161 95.8005 15.241 103.111C25.266 110.421 53.4358 122.327 64.2466 123.423C75.0812 124.494 82.1296 128.018 93.488 124.78C104.87 121.542 120.848 105.278 128.682 91.7525C136.517 78.2271 144.399 51.1288 141.946 41.3896C139.517 31.6504 137.874 29.4835 129.206 27.3166C120.539 25.1497 108.942 27.8167 103.251 33.5078C97.5599 39.1989 92.6784 48.4142 92.6784 48.4142C92.6784 48.4142 102.441 29.4597 87.5349 22.1494C72.6285 14.839 54.5074 29.174 50.9832 47.6046Z" fill="#FFFF66"/>
</svg>
