<svg width="144" height="144" viewBox="0 0 144 144" fill="none" xmlns="http://www.w3.org/2000/svg">
<g clip-path="url(#clip0_552_2744)">
<path d="M131.378 126.668C128.973 129.073 124.758 131.502 113.209 131.502C93.0162 131.478 86.2774 123.953 59.5125 118.524C54.4881 117.5 47.2968 116.047 37.4862 115.214C19.7223 113.69 14.2454 117.476 8.36383 113.19C0.291493 107.285 0.743925 93.6163 1.00586 85.4726C1.60116 67.1371 9.53063 66.3752 8.45908 50.3257C8.03046 43.8488 6.31598 37.4671 7.98284 27.0374C9.17345 19.5365 10.9356 17.3934 12.1024 16.3219C16.579 12.1786 23.8418 13.131 33.4619 15.1313C47.7254 18.084 54.8453 19.5603 65.0131 23.6799C103.946 39.4435 133.378 25.0848 140.45 39.9436C142.879 45.0632 141.76 51.7545 140.26 60.4697C138.355 71.7091 135.188 72.2568 134.354 81.1625C133.33 92.14 137.902 93.7354 137.474 106.665C137.259 112.999 136.878 121.215 131.378 126.668Z" fill="#F4A019"/>
</g>
<defs>
<clipPath id="clip0_552_2744">
<rect width="142.873" height="142.873" fill="white" transform="translate(0.220703 0.773438)"/>
</clipPath>
</defs>
</svg>
