<svg width="144" height="144" viewBox="0 0 144 144" fill="none" xmlns="http://www.w3.org/2000/svg">
<path d="M97.3834 59.0331C97.3834 59.0331 96.0499 50.1035 93.1924 43.7933C90.335 37.483 87.6204 32.5301 80.2624 31.9824C72.9044 31.4347 64.9273 37.5069 62.6175 45.603C60.3078 53.6753 63.5462 73.0109 68.1658 84.5122C72.7615 95.9897 79.9052 111.253 81.3816 114.754C82.8341 118.254 87.5966 132.065 87.5966 132.065C87.5966 132.065 106.099 100.966 111.028 92.3464C115.957 83.7264 125.387 63.4622 131.983 51.6037C138.579 39.7452 143.508 28.1963 137.34 22.4575C131.173 16.7426 110.171 10.5276 102.955 26.1008C95.7165 41.6502 97.3834 59.0331 97.3834 59.0331Z" fill="#C10065"/>
<path d="M41.6385 138.614C41.6385 138.614 29.8752 133.994 13.2543 110.373C-3.36662 86.7509 5.72965 78.1309 10.8493 75.8449C15.9689 73.559 24.9461 82.8457 27.0178 87.2034C27.0178 87.2034 27.8274 72.6541 35.0425 67.0344C42.2338 61.4147 51.9253 60.5813 54.3304 70.0824C56.7592 79.5596 47.4487 115.516 46.4485 120.731C45.4722 125.97 41.6385 138.614 41.6385 138.614Z" fill="#500D59"/>
<path d="M33.3043 23.0531C30.1849 16.7904 24.6605 13.933 20.8982 15.2665C18.255 16.1951 16.5643 19.1717 16.2072 21.8148C15.5404 26.5535 19.1122 30.5301 25.7797 37.7214C29.7801 42.0552 33.2567 44.9841 34.4473 45.9604C41.3052 51.6753 49.1871 56.4616 49.1871 56.4616C49.4966 53.2469 49.83 48.7226 49.8538 43.2934C49.9014 37.1499 49.9014 30.6253 48.1631 22.7197C46.4725 15.0045 44.9247 8.38473 39.8051 6.24163C39.5669 6.14638 35.8284 4.6224 33.2329 6.3845C30.0182 8.62285 29.5182 15.4331 33.3043 23.0531Z" fill="#E59AE0"/>
</svg>
