<svg width="144" height="144" viewBox="0 0 144 144" fill="none" xmlns="http://www.w3.org/2000/svg">
<path d="M140.393 72.0118C141.06 84.799 141.608 94.8001 136.202 105.492C131.154 115.517 123.606 120.708 115.891 126.018C108.842 130.876 92.0545 142.115 68.2661 141.924C60.8129 141.877 45.8588 141.758 31.7382 131.757C21.5942 124.565 16.8317 115.779 12.9503 108.635C8.92606 101.229 0.972782 83.8941 2.80632 61.3916C3.52069 52.6525 4.3303 42.7704 10.9501 32.6264C18.57 20.9346 30.0237 14.9577 37.7865 10.8858C41.6679 8.86181 46.5017 6.3139 53.3597 4.48036C72.8857 -0.782138 89.9114 4.38511 97.698 7.4807C102.746 9.48093 113.724 13.9814 123.272 24.8398C128.797 31.1024 131.63 37.0078 133.178 40.3177C139.298 53.1763 140.012 64.511 140.393 72.0118Z" fill="#006699"/>
</svg>
