<svg width="144" height="144" viewBox="0 0 144 144" fill="none" xmlns="http://www.w3.org/2000/svg">
<path d="M16.4134 91.8465C19.9138 93.1086 22.9856 88.1318 33.6297 80.1786C43.3689 72.9158 43.8689 74.797 55.8703 66.0341C64.0141 60.1049 64.4189 58.7714 69.3242 56.5568C74.92 54.0328 79.6825 53.4136 80.1825 50.6514C80.5635 48.5321 78.2299 46.4605 76.9203 45.3413C62.5853 32.9828 56.3941 29.649 56.3941 29.649C28.3434 14.6473 14.3418 7.12269 11.0795 4.83671C9.8889 4.0271 6.34088 1.47919 4.57878 2.62218C3.22148 3.50323 3.55485 6.26545 3.67391 7.19412C6.96 34.0067 8.60304 47.3177 8.1268 43.5792C6.86475 33.8638 8.74591 55.1519 11.6748 78.3212C12.6273 85.8697 13.3655 90.7512 16.4134 91.8465Z" fill="#E26B13"/>
<path d="M3.72198 131.685C-0.826156 123.993 10.699 109.539 12.4134 107.42C19.7476 98.2287 24.4624 98.4668 39.6784 86.6797C55.6326 74.3212 57.49 68.6063 62.2048 69.7255C69.4675 71.4637 65.2527 85.0843 75.6825 113.516C77.7541 119.183 82.3737 130.78 77.135 137.305C76.6826 137.876 76.2778 138.257 76.0159 138.471C68.015 145.829 51.394 139.233 26.1531 136.4C11.2704 134.733 6.15082 135.804 3.72198 131.685Z" fill="#00613A"/>
<path d="M139.761 69.0828C140.499 61.4152 140.999 56.2718 138.165 54.3192C131.974 50.033 120.735 68.4636 100.59 69.4399C85.35 70.1781 76.5871 60.3675 72.158 64.6299C70.0625 66.6539 71.4198 69.6781 76.9204 90.99C80.1113 103.325 78.3015 95.3476 88.4217 126.899C91.1363 135.376 92.1364 138.829 95.0177 139.638C100.018 141.043 106.209 133.304 113.758 123.851C123.14 112.088 128.402 101.944 130.355 97.9908C138.237 82.0366 139.428 72.3927 139.761 69.0828Z" fill="#F4A019"/>
<path d="M99.7331 59.4621C92.9228 58.7715 90.9702 52.0088 82.6121 42.3411C65.7293 22.7674 47.0367 19.4099 48.3702 14.3379C48.7512 12.8377 51.18 10.0993 70.9203 10.3613C94.9707 10.6708 139.928 15.3618 140.928 27.6728C141.119 29.8873 134.118 35.626 120.116 47.0559C106.686 58.0095 103.638 59.8431 99.7331 59.4621Z" fill="#4B190D"/>
</svg>
